<svg width="18" height="19" viewBox="0 0 18 19" fill="none" xmlns="http://www.w3.org/2000/svg">
<path d="M15.875 0.75H2.125C1.07031 0.75 0.25 1.60938 0.25 2.625V16.375C0.25 17.4297 1.07031 18.25 2.125 18.25H7.47656V12.3125H5.01562V9.5H7.47656V7.39062C7.47656 4.96875 8.92188 3.60156 11.1094 3.60156C12.2031 3.60156 13.2969 3.79688 13.2969 3.79688V6.17969H12.0859C10.875 6.17969 10.4844 6.92188 10.4844 7.70312V9.5H13.1797L12.75 12.3125H10.4844V18.25H15.875C16.8906 18.25 17.75 17.4297 17.75 16.375V2.625C17.75 1.60938 16.8906 0.75 15.875 0.75Z" fill="#EBEDFA"/>
</svg>
