<svg width="21" height="22" viewBox="0 0 21 22" fill="none" xmlns="http://www.w3.org/2000/svg">
<path d="M10.5 8.51562C11.8594 8.51562 12.9844 9.64062 12.9844 11C12.9844 11.4688 12.8438 11.8906 12.6562 12.2656C11.6719 13.9531 9.28125 13.9531 8.29688 12.2656C7.35938 10.625 8.53125 8.51562 10.5 8.51562ZM16.3125 6.59375C16.7344 7.57812 16.6406 9.92188 16.6406 11C16.6406 12.125 16.7344 14.4688 16.3125 15.4531C16.0781 16.1094 15.5625 16.625 14.9062 16.8594C13.9219 17.2812 11.5781 17.1875 10.5 17.1875C9.375 17.1875 7.03125 17.2812 6.04688 16.8594C5.39062 16.625 4.875 16.1094 4.64062 15.4531C4.26562 14.4688 4.3125 12.125 4.3125 11C4.3125 9.92188 4.26562 7.57812 4.64062 6.59375C4.875 5.9375 5.39062 5.42188 6.04688 5.1875C7.03125 4.76562 9.375 4.85938 10.5 4.85938C11.5781 4.85938 13.9219 4.76562 14.9062 5.1875C15.5625 5.42188 16.0781 5.9375 16.3125 6.59375ZM10.5 14.8438C12.6094 14.8906 14.3438 13.1562 14.3438 11C14.3438 10.3438 14.1562 9.6875 13.8281 9.07812C12.3281 6.54688 8.625 6.54688 7.125 9.07812C5.67188 11.6562 7.5 14.8438 10.5 14.8438ZM14.4844 7.90625C14.9531 7.90625 15.375 7.53125 15.375 7.01562C15.375 6.875 15.3281 6.6875 15.2344 6.54688C14.9062 5.98438 14.0625 5.98438 13.6875 6.54688C13.3594 7.15625 13.7812 7.90625 14.4844 7.90625ZM18.75 0.5C19.9688 0.5 21 1.53125 21 2.75V19.25C21 20.5156 19.9688 21.5 18.75 21.5H2.25C0.984375 21.5 0 20.5156 0 19.25V2.75C0 1.53125 0.984375 0.5 2.25 0.5H18.75ZM17.9062 14.0938C18 12.875 18 9.17188 17.9062 7.95312C17.8594 6.73438 17.5781 5.65625 16.7344 4.8125C15.8438 3.92188 14.7656 3.64062 13.5938 3.59375C12.3281 3.5 8.625 3.5 7.40625 3.59375C6.1875 3.64062 5.10938 3.92188 4.26562 4.76562C3.375 5.65625 3.09375 6.73438 3.04688 7.90625C2.95312 9.17188 2.95312 12.875 3.04688 14.0938C3.09375 15.3125 3.375 16.3906 4.26562 17.2344C5.10938 18.125 6.1875 18.4062 7.40625 18.4531C8.625 18.5469 12.3281 18.5469 13.5938 18.4531C14.7656 18.4062 15.8438 18.125 16.7344 17.2344C17.5781 16.3906 17.8594 15.3125 17.9062 14.0938Z" fill="#EBEDFA"/>
</svg>
