<svg width="21" height="22" viewBox="0 0 21 22" fill="none" xmlns="http://www.w3.org/2000/svg">
<path d="M19.5 0.5C19.875 0.5 20.25 0.6875 20.5312 0.96875C20.8125 1.25 21 1.625 21 2V20C21 20.4219 20.8125 20.7969 20.5312 21.0781C20.25 21.3594 19.875 21.5 19.5 21.5H1.5C1.07812 21.5 0.703125 21.3594 0.421875 21.0781C0.140625 20.7969 0 20.4219 0 20V2C0 1.625 0.140625 1.25 0.421875 0.96875C0.703125 0.6875 1.07812 0.5 1.5 0.5H19.5ZM6.32812 18.5H6.375V8.46875H3.23438V18.5H6.32812ZM4.78125 7.10938C5.25 7.10938 5.67188 6.96875 6.04688 6.59375C6.42188 6.21875 6.60938 5.79688 6.60938 5.32812C6.60938 4.85938 6.42188 4.4375 6.04688 4.0625C5.67188 3.6875 5.25 3.5 4.78125 3.5C4.26562 3.5 3.84375 3.6875 3.51562 4.0625C3.14062 4.4375 3 4.85938 3 5.32812C3 5.79688 3.14062 6.21875 3.51562 6.59375C3.84375 6.96875 4.26562 7.10938 4.78125 7.10938ZM18 18.5V13.0156C18 11.4688 17.7656 10.3438 17.3438 9.59375C16.7344 8.70312 15.7031 8.23438 14.2969 8.23438C13.5469 8.23438 12.9375 8.42188 12.375 8.75C11.9062 9.03125 11.5312 9.40625 11.3438 9.82812H11.2969V8.46875H8.29688V18.5H11.3906V13.5312C11.3906 12.7812 11.4844 12.1719 11.7188 11.75C12 11.2344 12.5156 10.9531 13.2656 10.9531C13.9688 10.9531 14.4375 11.2812 14.6719 11.8438C14.8125 12.2188 14.9062 12.8281 14.9062 13.625V18.5H18Z" fill="#EBEDFA"/>
</svg>
