<svg width="18" height="19" viewBox="0 0 18 19" fill="none" xmlns="http://www.w3.org/2000/svg">
<path d="M15.875 0.75H2.125C1.07031 0.75 0.25 1.60938 0.25 2.625V16.375C0.25 17.4297 1.07031 18.25 2.125 18.25H15.875C16.8906 18.25 17.75 17.4297 17.75 16.375V2.625C17.75 1.60938 16.8906 0.75 15.875 0.75ZM13.9609 6.96094C13.9609 7.07812 13.9609 7.19531 13.9609 7.3125C13.9609 10.6719 11.3828 14.5781 6.65625 14.5781C5.21094 14.5781 3.88281 14.1875 2.75 13.4453C2.94531 13.4844 3.14062 13.4844 3.33594 13.4844C4.54688 13.4844 5.64062 13.0547 6.53906 12.3906C5.40625 12.3516 4.46875 11.6094 4.11719 10.5938C4.54688 10.6719 4.89844 10.6719 5.28906 10.5547C4.11719 10.3203 3.25781 9.30469 3.25781 8.05469V8.01562C3.57031 8.21094 3.96094 8.32812 4.39062 8.32812C3.76562 7.89844 3.25781 6.96094 3.25781 6.21875C3.25781 5.71094 3.375 5.28125 3.60938 4.89062C4.85938 6.45312 6.77344 7.46875 8.88281 7.58594C8.53125 5.86719 9.82031 4.42188 11.3828 4.42188C12.125 4.42188 12.7891 4.73438 13.2578 5.24219C13.8438 5.125 14.3906 4.92969 14.8984 4.61719C14.7031 5.24219 14.2734 5.71094 13.7656 6.02344C14.2734 5.98438 14.7812 5.82812 15.25 5.63281C14.8984 6.14062 14.4297 6.60938 13.9609 6.96094Z" fill="#EBEDFA"/>
</svg>
