<svg width="18" height="19" viewBox="0 0 18 19" fill="none" xmlns="http://www.w3.org/2000/svg">
<path d="M8.51562 1.02344C8.67188 0.828125 8.98438 0.828125 9.17969 1.02344L17.3438 9.1875C17.5391 9.38281 17.5391 9.65625 17.3438 9.85156L9.17969 18.0156C8.98438 18.2109 8.67188 18.2109 8.51562 18.0156L7.73438 17.2734C7.53906 17.0781 7.53906 16.7656 7.73438 16.6094L13.7891 10.5156H0.46875C0.195312 10.5156 0 10.3203 0 10.0469V8.95312C0 8.71875 0.195312 8.48438 0.46875 8.48438H13.7891L7.73438 2.42969C7.53906 2.27344 7.53906 1.96094 7.73438 1.76562L8.51562 1.02344Z" fill="#8B7CFF"/>
</svg>
