<svg width="306" height="200" viewBox="0 0 306 200" fill="none" xmlns="http://www.w3.org/2000/svg">
<rect x="2" y="2" width="302" height="196" rx="2" fill="url(#paint0_radial_451_4563)" stroke="#8B7CFF" stroke-width="4"/>
<path opacity="0.01" d="M69.44 36L36.29 115.67L61.06 112.43L69.51 164L102.65 84.33L77.89 87.57L69.44 36Z" fill="#291763"/>
<path opacity="0.02" d="M70.0804 36L36.9404 115.67L61.7004 112.43L70.1504 164L103.3 84.33L78.5404 87.57L70.0804 36Z" fill="#291764"/>
<path opacity="0.03" d="M70.7301 36L37.5801 115.67L62.3501 112.43L70.8001 164L103.94 84.33L79.1801 87.57L70.7301 36Z" fill="#2A1765"/>
<path opacity="0.03" d="M71.3705 36L38.2305 115.67L62.9905 112.43L71.4405 164L104.59 84.33L79.8305 87.57L71.3705 36Z" fill="#2A1866"/>
<path opacity="0.04" d="M72.0201 36L38.8701 115.67L63.6401 112.43L72.0901 164L105.24 84.33L80.4701 87.57L72.0201 36Z" fill="#2B1867"/>
<path opacity="0.04" d="M72.6595 36L39.5195 115.67L64.2795 112.43L72.7395 164L105.88 84.33L81.1195 87.57L72.6595 36Z" fill="#2B1968"/>
<path opacity="0.05" d="M73.3102 36L40.1602 115.67L64.9302 112.43L73.3802 164L106.53 84.33L81.7602 87.57L73.3102 36Z" fill="#2B1969"/>
<path opacity="0.06" d="M73.9596 36L40.8096 115.67L65.5696 112.43L74.0296 164L107.17 84.33L82.4096 87.57L73.9596 36Z" fill="#2C196A"/>
<path opacity="0.06" d="M74.6 36L41.46 115.67L66.22 112.43L74.67 164L107.82 84.33L83.05 87.57L74.6 36Z" fill="#2C1A6B"/>
<path opacity="0.07" d="M75.2496 36L42.0996 115.67L66.8696 112.43L75.3196 164L108.46 84.33L83.6996 87.57L75.2496 36Z" fill="#2D1A6C"/>
<path opacity="0.08" d="M75.89 36L42.75 115.67L67.51 112.43L75.96 164L109.11 84.33L84.35 87.57L75.89 36Z" fill="#2D1A6D"/>
<path opacity="0.08" d="M76.5396 36L43.3896 115.67L68.1596 112.43L76.6096 164L109.75 84.33L84.9897 87.57L76.5396 36Z" fill="#2E1B6E"/>
<path opacity="0.09" d="M77.18 36L44.04 115.67L68.8 112.43L77.25 164L110.4 84.33L85.64 87.57L77.18 36Z" fill="#2E1B6F"/>
<path opacity="0.09" d="M77.8297 36L44.6797 115.67L69.4497 112.43L77.8997 164L111.05 84.33L86.2797 87.57L77.8297 36Z" fill="#2E1C70"/>
<path opacity="0.1" d="M78.4701 36L45.3301 115.67L70.0901 112.43L78.5501 164L111.69 84.33L86.9301 87.57L78.4701 36Z" fill="#2F1C71"/>
<path opacity="0.11" d="M79.1197 36L45.9697 115.67L70.7397 112.43L79.1897 164L112.34 84.33L87.5697 87.57L79.1197 36Z" fill="#2F1C72"/>
<path opacity="0.11" d="M79.7701 36L46.6201 115.67L71.3801 112.43L79.8401 164L112.98 84.33L88.2201 87.57L79.7701 36Z" fill="#301D73"/>
<path opacity="0.12" d="M80.4095 36L47.2695 115.67L72.0295 112.43L80.4795 164L113.63 84.33L88.8595 87.57L80.4095 36Z" fill="#301D74"/>
<path opacity="0.13" d="M81.0602 36L47.9102 115.67L72.6802 112.43L81.1302 164L114.27 84.33L89.5102 87.57L81.0602 36Z" fill="#301D75"/>
<path opacity="0.13" d="M81.6996 36L48.5596 115.67L73.3196 112.43L81.7696 164L114.92 84.33L90.1596 87.57L81.6996 36Z" fill="#311E76"/>
<path opacity="0.14" d="M82.3502 36L49.2002 115.67L73.9702 112.43L82.4202 164L115.57 84.33L90.8002 87.57L82.3502 36Z" fill="#311E77"/>
<path opacity="0.15" d="M82.9896 36L49.8496 115.67L74.6096 112.43L83.0596 164L116.21 84.33L91.4496 87.57L82.9896 36Z" fill="#321E78"/>
<path opacity="0.15" d="M83.6402 36L50.4902 115.67L75.2602 112.43L83.7102 164L116.86 84.33L92.0902 87.57L83.6402 36Z" fill="#321F79"/>
<path opacity="0.16" d="M84.2896 36L51.1396 115.67L75.8997 112.43L84.3596 164L117.5 84.33L92.7397 87.57L84.2896 36Z" fill="#331F7A"/>
<path opacity="0.16" d="M84.9303 36L51.7803 115.67L76.5503 112.43L85.0003 164L118.15 84.33L93.3803 87.57L84.9303 36Z" fill="#33207B"/>
<path opacity="0.17" d="M85.5797 36L52.4297 115.67L77.1897 112.43L85.6497 164L118.79 84.33L94.0297 87.57L85.5797 36Z" fill="#33207C"/>
<path opacity="0.18" d="M86.2201 36L53.0801 115.67L77.8401 112.43L86.2901 164L119.44 84.33L94.6701 87.57L86.2201 36Z" fill="#34207D"/>
<path opacity="0.18" d="M86.8697 36L53.7197 115.67L78.4897 112.43L86.9397 164L120.08 84.33L95.3197 87.57L86.8697 36Z" fill="#34217E"/>
<path opacity="0.19" d="M87.5101 36L54.3701 115.67L79.1301 112.43L87.5801 164L120.73 84.33L95.9701 87.57L87.5101 36Z" fill="#35217F"/>
<path opacity="0.2" d="M88.1598 36L55.0098 115.67L79.7798 112.43L88.2298 164L121.38 84.33L96.6098 87.57L88.1598 36Z" fill="#352180"/>
<path opacity="0.2" d="M88.8002 36L55.6602 115.67L80.4202 112.43L88.8702 164L122.02 84.33L97.2602 87.57L88.8002 36Z" fill="#362281"/>
<path opacity="0.21" d="M89.4498 36L56.2998 115.67L81.0698 112.43L89.5198 164L122.67 84.33L97.8998 87.57L89.4498 36Z" fill="#362282"/>
<path opacity="0.22" d="M90.1002 36L56.9502 115.67L81.7102 112.43L90.1702 164L123.31 84.33L98.5502 87.57L90.1002 36Z" fill="#362283"/>
<path opacity="0.22" d="M90.7398 36L57.5898 115.67L82.3598 112.43L90.8098 164L123.96 84.33L99.1898 87.57L90.7398 36Z" fill="#372384"/>
<path opacity="0.23" d="M91.3902 36L58.2402 115.67L83.0002 112.43L91.4602 164L124.6 84.33L99.8402 87.57L91.3902 36Z" fill="#372385"/>
<path opacity="0.23" d="M92.0296 36L58.8896 115.67L83.6497 112.43L92.0996 164L125.25 84.33L100.48 87.57L92.0296 36Z" fill="#382486"/>
<path opacity="0.24" d="M92.6803 36L59.5303 115.67L84.3003 112.43L92.7503 164L125.89 84.33L101.13 87.57L92.6803 36Z" fill="#382487"/>
<path opacity="0.25" d="M93.3197 36L60.1797 115.67L84.9397 112.43L93.3897 164L126.54 84.33L101.78 87.57L93.3197 36Z" fill="#392488"/>
<path opacity="0.25" d="M93.9703 36L60.8203 115.67L85.5903 112.43L94.0403 164L127.19 84.33L102.42 87.57L93.9703 36Z" fill="#392589"/>
<path opacity="0.26" d="M94.6097 36L61.4697 115.67L86.2297 112.43L94.6897 164L127.83 84.33L103.07 87.57L94.6097 36Z" fill="#39258A"/>
<path opacity="0.27" d="M95.2603 36L62.1104 115.67L86.8804 112.43L95.3304 164L128.48 84.33L103.71 87.57L95.2603 36Z" fill="#3A258B"/>
<path opacity="0.27" d="M95.9098 36L62.7598 115.67L87.5198 112.43L95.9798 164L129.12 84.33L104.36 87.57L95.9098 36Z" fill="#3A268C"/>
<path opacity="0.28" d="M96.5502 36L63.4102 115.67L88.1702 112.43L96.6202 164L129.77 84.33L105 87.57L96.5502 36Z" fill="#3B268D"/>
<path opacity="0.28" d="M97.1998 36L64.0498 115.67L88.8098 112.43L97.2698 164L130.41 84.33L105.65 87.57L97.1998 36Z" fill="#3B278E"/>
<path opacity="0.29" d="M97.8402 36L64.7002 115.67L89.4602 112.43L97.9102 164L131.06 84.33L106.29 87.57L97.8402 36Z" fill="#3C278F"/>
<path opacity="0.3" d="M98.4898 36L65.3398 115.67L90.1098 112.43L98.5598 164L131.7 84.33L106.94 87.57L98.4898 36Z" fill="#3C2790"/>
<path opacity="0.3" d="M99.1302 36L65.9902 115.67L90.7502 112.43L99.2002 164L132.35 84.33L107.59 87.57L99.1302 36Z" fill="#3C2891"/>
<path opacity="0.31" d="M99.7799 36L66.6299 115.67L91.3999 112.43L99.8499 164L133 84.33L108.23 87.57L99.7799 36Z" fill="#3D2892"/>
<path opacity="0.32" d="M100.42 36L67.2803 115.67L92.0403 112.43L100.5 164L133.64 84.33L108.88 87.57L100.42 36Z" fill="#3D2893"/>
<path opacity="0.32" d="M101.07 36L67.9199 115.67L92.6899 112.43L101.14 164L134.29 84.33L109.52 87.57L101.07 36Z" fill="#3E2994"/>
<path opacity="0.33" d="M101.72 36L68.5703 115.67L93.3303 112.43L101.79 164L134.93 84.33L110.17 87.57L101.72 36Z" fill="#3E2995"/>
<path opacity="0.34" d="M102.36 36L69.2197 115.67L93.9797 112.43L102.43 164L135.58 84.33L110.81 87.57L102.36 36Z" fill="#3E2996"/>
<path opacity="0.34" d="M103.01 36L69.8604 115.67L94.6203 112.43L103.08 164L136.22 84.33L111.46 87.57L103.01 36Z" fill="#3F2A97"/>
<path opacity="0.35" d="M103.65 36L70.5098 115.67L95.2698 112.43L103.72 164L136.87 84.33L112.1 87.57L103.65 36Z" fill="#3F2A98"/>
<path opacity="0.35" d="M104.3 36L71.1504 115.67L95.9204 112.43L104.37 164L137.51 84.33L112.75 87.57L104.3 36Z" fill="#402B99"/>
<path opacity="0.36" d="M104.94 36L71.7998 115.67L96.5598 112.43L105.01 164L138.16 84.33L113.4 87.57L104.94 36Z" fill="#402B9A"/>
<path opacity="0.37" d="M105.59 36L72.4404 115.67L97.2104 112.43L105.66 164L138.81 84.33L114.04 87.57L105.59 36Z" fill="#412B9B"/>
<path opacity="0.37" d="M106.23 36L73.0898 115.67L97.8498 112.43L106.31 164L139.45 84.33L114.69 87.57L106.23 36Z" fill="#412C9C"/>
<path opacity="0.38" d="M106.88 36L73.7305 115.67L98.5005 112.43L106.95 164L140.1 84.33L115.33 87.57L106.88 36Z" fill="#412C9D"/>
<path opacity="0.39" d="M107.53 36L74.3799 115.67L99.1399 112.43L107.6 164L140.74 84.33L115.98 87.57L107.53 36Z" fill="#422C9E"/>
<path opacity="0.39" d="M108.17 36L75.0303 115.67L99.7903 112.43L108.24 164L141.39 84.33L116.62 87.57L108.17 36Z" fill="#422D9F"/>
<path opacity="0.4" d="M108.82 36L75.6699 115.67L100.44 112.43L108.89 164L142.03 84.33L117.27 87.57L108.82 36Z" fill="#432DA0"/>
<path opacity="0.41" d="M109.46 36L76.3203 115.67L101.08 112.43L109.53 164L142.68 84.33L117.91 87.57L109.46 36Z" fill="#432DA1"/>
<path opacity="0.41" d="M110.11 36L76.96 115.67L101.73 112.43L110.18 164L143.32 84.33L118.56 87.57L110.11 36Z" fill="#442EA2"/>
<path opacity="0.42" d="M110.75 36L77.6104 115.67L102.37 112.43L110.82 164L143.97 84.33L119.21 87.57L110.75 36Z" fill="#442EA3"/>
<path opacity="0.42" d="M111.4 36L78.25 115.67L103.02 112.43L111.47 164L144.62 84.33L119.85 87.57L111.4 36Z" fill="#442FA4"/>
<path opacity="0.43" d="M112.04 36L78.9004 115.67L103.66 112.43L112.12 164L145.26 84.33L120.5 87.57L112.04 36Z" fill="#452FA5"/>
<path opacity="0.44" d="M112.69 36L79.54 115.67L104.31 112.43L112.76 164L145.91 84.33L121.14 87.57L112.69 36Z" fill="#452FA6"/>
<path opacity="0.44" d="M113.34 36L80.1904 115.67L104.95 112.43L113.41 164L146.55 84.33L121.79 87.57L113.34 36Z" fill="#4630A7"/>
<path opacity="0.45" d="M113.98 36L80.8398 115.67L105.6 112.43L114.05 164L147.2 84.33L122.43 87.57L113.98 36Z" fill="#4630A8"/>
<path opacity="0.46" d="M114.63 36L81.4805 115.67L106.25 112.43L114.7 164L147.84 84.33L123.08 87.57L114.63 36Z" fill="#4730A9"/>
<path opacity="0.46" d="M115.27 36L82.1299 115.67L106.89 112.43L115.34 164L148.49 84.33L123.72 87.57L115.27 36Z" fill="#4731AA"/>
<path opacity="0.47" d="M115.92 36L82.7695 115.67L107.54 112.43L115.99 164L149.13 84.33L124.37 87.57L115.92 36Z" fill="#4731AB"/>
<path opacity="0.47" d="M116.56 36L83.4199 115.67L108.18 112.43L116.63 164L149.78 84.33L125.02 87.57L116.56 36Z" fill="#4832AC"/>
<path opacity="0.48" d="M117.21 36L84.0596 115.67L108.83 112.43L117.28 164L150.43 84.33L125.66 87.57L117.21 36Z" fill="#4832AD"/>
<path opacity="0.49" d="M117.85 36L84.71 115.67L109.47 112.43L117.93 164L151.07 84.33L126.31 87.57L117.85 36Z" fill="#4932AE"/>
<path opacity="0.49" d="M118.5 36L85.3496 115.67L110.12 112.43L118.57 164L151.72 84.33L126.95 87.57L118.5 36Z" fill="#4933AF"/>
<path opacity="0.5" d="M119.15 36L86 115.67L110.76 112.43L119.22 164L152.36 84.33L127.6 87.57L119.15 36Z" fill="#4933B0"/>
<path opacity="0.51" d="M119.79 36L86.6504 115.67L111.41 112.43L119.86 164L153.01 84.33L128.24 87.57L119.79 36Z" fill="#4A33B1"/>
<path opacity="0.51" d="M120.44 36L87.29 115.67L112.06 112.43L120.51 164L153.65 84.33L128.89 87.57L120.44 36Z" fill="#4A34B2"/>
<path opacity="0.52" d="M121.08 36L87.9404 115.67L112.7 112.43L121.15 164L154.3 84.33L129.54 87.57L121.08 36Z" fill="#4B34B3"/>
<path opacity="0.53" d="M121.73 36L88.5801 115.67L113.35 112.43L121.8 164L154.94 84.33L130.18 87.57L121.73 36Z" fill="#4B34B4"/>
<path opacity="0.53" d="M122.37 36L89.2305 115.67L113.99 112.43L122.44 164L155.59 84.33L130.83 87.57L122.37 36Z" fill="#4C35B5"/>
<path opacity="0.54" d="M123.02 36L89.8701 115.67L114.64 112.43L123.09 164L156.24 84.33L131.47 87.57L123.02 36Z" fill="#4C35B6"/>
<path opacity="0.54" d="M123.66 36L90.5195 115.67L115.28 112.43L123.74 164L156.88 84.33L132.12 87.57L123.66 36Z" fill="#4C36B7"/>
<path opacity="0.55" d="M124.31 36L91.1602 115.67L115.93 112.43L124.38 164L157.53 84.33L132.76 87.57L124.31 36Z" fill="#4D36B8"/>
<path opacity="0.56" d="M124.96 36L91.8096 115.67L116.57 112.43L125.03 164L158.17 84.33L133.41 87.57L124.96 36Z" fill="#4D36B9"/>
<path opacity="0.56" d="M125.6 36L92.46 115.67L117.22 112.43L125.67 164L158.82 84.33L134.05 87.57L125.6 36Z" fill="#4E37BA"/>
<path opacity="0.57" d="M126.25 36L93.0996 115.67L117.87 112.43L126.32 164L159.46 84.33L134.7 87.57L126.25 36Z" fill="#4E37BB"/>
<path opacity="0.58" d="M126.89 36L93.75 115.67L118.51 112.43L126.96 164L160.11 84.33L135.35 87.57L126.89 36Z" fill="#4F37BC"/>
<path opacity="0.58" d="M127.54 36L94.3896 115.67L119.16 112.43L127.61 164L160.75 84.33L135.99 87.57L127.54 36Z" fill="#4F38BD"/>
<path opacity="0.59" d="M128.18 36L95.04 115.67L119.8 112.43L128.25 164L161.4 84.33L136.64 87.57L128.18 36Z" fill="#4F38BE"/>
<path opacity="0.59" d="M128.83 36L95.6797 115.67L120.45 112.43L128.9 164L162.05 84.33L137.28 87.57L128.83 36Z" fill="#5039BF"/>
<path opacity="0.6" d="M129.47 36L96.3301 115.67L121.09 112.43L129.55 164L162.69 84.33L137.93 87.57L129.47 36Z" fill="#5039C0"/>
<path opacity="0.61" d="M130.12 36L96.9697 115.67L121.74 112.43L130.19 164L163.34 84.33L138.57 87.57L130.12 36Z" fill="#5139C1"/>
<path opacity="0.61" d="M130.77 36L97.6201 115.67L122.38 112.43L130.84 164L163.98 84.33L139.22 87.57L130.77 36Z" fill="#513AC2"/>
<path opacity="0.62" d="M131.41 36L98.2695 115.67L123.03 112.43L131.48 164L164.63 84.33L139.86 87.57L131.41 36Z" fill="#523AC3"/>
<path opacity="0.63" d="M132.06 36L98.9102 115.67L123.68 112.43L132.13 164L165.27 84.33L140.51 87.57L132.06 36Z" fill="#523AC4"/>
<path opacity="0.63" d="M132.7 36L99.5596 115.67L124.32 112.43L132.77 164L165.92 84.33L141.16 87.57L132.7 36Z" fill="#523BC5"/>
<path opacity="0.64" d="M133.35 36L100.2 115.67L124.97 112.43L133.42 164L166.57 84.33L141.8 87.57L133.35 36Z" fill="#533BC6"/>
<path opacity="0.65" d="M133.99 36L100.85 115.67L125.61 112.43L134.06 164L167.21 84.33L142.45 87.57L133.99 36Z" fill="#533BC7"/>
<path opacity="0.65" d="M134.64 36L101.49 115.67L126.26 112.43L134.71 164L167.86 84.33L143.09 87.57L134.64 36Z" fill="#543CC8"/>
<path opacity="0.66" d="M135.29 36L102.14 115.67L126.9 112.43L135.36 164L168.5 84.33L143.74 87.57L135.29 36Z" fill="#543CC9"/>
<path opacity="0.66" d="M135.93 36L102.78 115.67L127.55 112.43L136 164L169.15 84.33L144.38 87.57L135.93 36Z" fill="#553DCA"/>
<path opacity="0.67" d="M136.58 36L103.43 115.67L128.19 112.43L136.65 164L169.79 84.33L145.03 87.57L136.58 36Z" fill="#553DCB"/>
<path opacity="0.68" d="M137.22 36L104.08 115.67L128.84 112.43L137.29 164L170.44 84.33L145.67 87.57L137.22 36Z" fill="#553DCC"/>
<path opacity="0.68" d="M137.87 36L104.72 115.67L129.49 112.43L137.94 164L171.08 84.33L146.32 87.57L137.87 36Z" fill="#563ECD"/>
<path opacity="0.69" d="M138.51 36L105.37 115.67L130.13 112.43L138.58 164L171.73 84.33L146.97 87.57L138.51 36Z" fill="#563ECE"/>
<path opacity="0.7" d="M139.16 36L106.01 115.67L130.78 112.43L139.23 164L172.38 84.33L147.61 87.57L139.16 36Z" fill="#573ECF"/>
<path opacity="0.7" d="M139.8 36L106.66 115.67L131.42 112.43L139.87 164L173.02 84.33L148.26 87.57L139.8 36Z" fill="#573FD0"/>
<path opacity="0.71" d="M140.45 36L107.3 115.67L132.07 112.43L140.52 164L173.67 84.33L148.9 87.57L140.45 36Z" fill="#573FD1"/>
<path opacity="0.72" d="M141.1 36L107.95 115.67L132.71 112.43L141.17 164L174.31 84.33L149.55 87.57L141.1 36Z" fill="#583FD2"/>
<path opacity="0.72" d="M141.74 36L108.59 115.67L133.36 112.43L141.81 164L174.96 84.33L150.19 87.57L141.74 36Z" fill="#5840D3"/>
<path opacity="0.73" d="M142.39 36L109.24 115.67L134 112.43L142.46 164L175.6 84.33L150.84 87.57L142.39 36Z" fill="#5940D4"/>
<path opacity="0.73" d="M143.03 36L109.89 115.67L134.65 112.43L143.1 164L176.25 84.33L151.48 87.57L143.03 36Z" fill="#5941D5"/>
<path opacity="0.74" d="M143.68 36L110.53 115.67L135.3 112.43L143.75 164L176.89 84.33L152.13 87.57L143.68 36Z" fill="#5A41D6"/>
<path opacity="0.75" d="M144.32 36L111.18 115.67L135.94 112.43L144.39 164L177.54 84.33L152.78 87.57L144.32 36Z" fill="#5A41D7"/>
<path opacity="0.75" d="M144.97 36L111.82 115.67L136.59 112.43L145.04 164L178.19 84.33L153.42 87.57L144.97 36Z" fill="#5A42D8"/>
<path opacity="0.76" d="M145.61 36L112.47 115.67L137.23 112.43L145.69 164L178.83 84.33L154.07 87.57L145.61 36Z" fill="#5B42D9"/>
<path opacity="0.77" d="M146.26 36L113.11 115.67L137.88 112.43L146.33 164L179.48 84.33L154.71 87.57L146.26 36Z" fill="#5B42DA"/>
<path opacity="0.77" d="M146.91 36L113.76 115.67L138.52 112.43L146.98 164L180.12 84.33L155.36 87.57L146.91 36Z" fill="#5C43DB"/>
<path opacity="0.78" d="M147.55 36L114.41 115.67L139.17 112.43L147.62 164L180.77 84.33L156 87.57L147.55 36Z" fill="#5C43DC"/>
<path opacity="0.78" d="M148.2 36L115.05 115.67L139.81 112.43L148.27 164L181.41 84.33L156.65 87.57L148.2 36Z" fill="#5D44DD"/>
<path opacity="0.79" d="M148.84 36L115.7 115.67L140.46 112.43L148.91 164L182.06 84.33L157.29 87.57L148.84 36Z" fill="#5D44DE"/>
<path opacity="0.8" d="M149.49 36L116.34 115.67L141.11 112.43L149.56 164L182.7 84.33L157.94 87.57L149.49 36Z" fill="#5D44DF"/>
<path opacity="0.8" d="M150.13 36L116.99 115.67L141.75 112.43L150.2 164L183.35 84.33L158.59 87.57L150.13 36Z" fill="#5E45E0"/>
<path opacity="0.81" d="M150.78 36L117.63 115.67L142.4 112.43L150.85 164L184 84.33L159.23 87.57L150.78 36Z" fill="#5E45E1"/>
<path opacity="0.82" d="M151.42 36L118.28 115.67L143.04 112.43L151.5 164L184.64 84.33L159.88 87.57L151.42 36Z" fill="#5F45E2"/>
<path opacity="0.82" d="M152.07 36L118.92 115.67L143.69 112.43L152.14 164L185.29 84.33L160.52 87.57L152.07 36Z" fill="#5F46E3"/>
<path opacity="0.83" d="M152.72 36L119.57 115.67L144.33 112.43L152.79 164L185.93 84.33L161.17 87.57L152.72 36Z" fill="#6046E4"/>
<path opacity="0.84" d="M153.36 36L120.22 115.67L144.98 112.43L153.43 164L186.58 84.33L161.81 87.57L153.36 36Z" fill="#6046E5"/>
<path opacity="0.84" d="M154.01 36L120.86 115.67L145.62 112.43L154.08 164L187.22 84.33L162.46 87.57L154.01 36Z" fill="#6047E6"/>
<path opacity="0.85" d="M154.65 36L121.51 115.67L146.27 112.43L154.72 164L187.87 84.33L163.1 87.57L154.65 36Z" fill="#6147E7"/>
<path opacity="0.85" d="M155.3 36L122.15 115.67L146.92 112.43L155.37 164L188.51 84.33L163.75 87.57L155.3 36Z" fill="#6148E8"/>
<path opacity="0.86" d="M155.94 36L122.8 115.67L147.56 112.43L156.01 164L189.16 84.33L164.4 87.57L155.94 36Z" fill="#6248E9"/>
<path opacity="0.87" d="M156.59 36L123.44 115.67L148.21 112.43L156.66 164L189.81 84.33L165.04 87.57L156.59 36Z" fill="#6248EA"/>
<path opacity="0.87" d="M157.23 36L124.09 115.67L148.85 112.43L157.31 164L190.45 84.33L165.69 87.57L157.23 36Z" fill="#6349EB"/>
<path opacity="0.88" d="M157.88 36L124.73 115.67L149.5 112.43L157.95 164L191.1 84.33L166.33 87.57L157.88 36Z" fill="#6349EC"/>
<path opacity="0.89" d="M158.53 36L125.38 115.67L150.14 112.43L158.6 164L191.74 84.33L166.98 87.57L158.53 36Z" fill="#6349ED"/>
<path opacity="0.89" d="M159.17 36L126.03 115.67L150.79 112.43L159.24 164L192.39 84.33L167.62 87.57L159.17 36Z" fill="#644AEE"/>
<path opacity="0.9" d="M159.82 36L126.67 115.67L151.44 112.43L159.89 164L193.03 84.33L168.27 87.57L159.82 36Z" fill="#644AEF"/>
<path opacity="0.91" d="M160.46 36L127.32 115.67L152.08 112.43L160.53 164L193.68 84.33L168.91 87.57L160.46 36Z" fill="#654AF0"/>
<path opacity="0.91" d="M161.11 36L127.96 115.67L152.73 112.43L161.18 164L194.32 84.33L169.56 87.57L161.11 36Z" fill="#654BF1"/>
<path opacity="0.92" d="M161.75 36L128.61 115.67L153.37 112.43L161.82 164L194.97 84.33L170.21 87.57L161.75 36Z" fill="#654BF2"/>
<path opacity="0.92" d="M162.4 36L129.25 115.67L154.02 112.43L162.47 164L195.62 84.33L170.85 87.57L162.4 36Z" fill="#664CF3"/>
<path opacity="0.93" d="M163.04 36L129.9 115.67L154.66 112.43L163.12 164L196.26 84.33L171.5 87.57L163.04 36Z" fill="#664CF4"/>
<path opacity="0.94" d="M163.69 36L130.54 115.67L155.31 112.43L163.76 164L196.91 84.33L172.14 87.57L163.69 36Z" fill="#674CF5"/>
<path opacity="0.94" d="M164.34 36L131.19 115.67L155.95 112.43L164.41 164L197.55 84.33L172.79 87.57L164.34 36Z" fill="#674DF6"/>
<path opacity="0.95" d="M164.98 36L131.84 115.67L156.6 112.43L165.05 164L198.2 84.33L173.43 87.57L164.98 36Z" fill="#684DF7"/>
<path opacity="0.96" d="M165.63 36L132.48 115.67L157.25 112.43L165.7 164L198.84 84.33L174.08 87.57L165.63 36Z" fill="#684DF8"/>
<path opacity="0.96" d="M166.27 36L133.13 115.67L157.89 112.43L166.34 164L199.49 84.33L174.72 87.57L166.27 36Z" fill="#684EF9"/>
<path opacity="0.97" d="M166.92 36L133.77 115.67L158.54 112.43L166.99 164L200.13 84.33L175.37 87.57L166.92 36Z" fill="#694EFA"/>
<path opacity="0.97" d="M167.56 36L134.42 115.67L159.18 112.43L167.63 164L200.78 84.33L176.02 87.57L167.56 36Z" fill="#694FFB"/>
<path opacity="0.98" d="M168.21 36L135.06 115.67L159.83 112.43L168.28 164L201.43 84.33L176.66 87.57L168.21 36Z" fill="#6A4FFC"/>
<path opacity="0.99" d="M168.85 36L135.71 115.67L160.47 112.43L168.93 164L202.07 84.33L177.31 87.57L168.85 36Z" fill="#6A4FFD"/>
<path opacity="0.99" d="M169.5 36L136.35 115.67L161.12 112.43L169.57 164L202.72 84.33L177.95 87.57L169.5 36Z" fill="#6B50FE"/>
<path d="M203.36 84.33L178.6 87.57L170.15 36L137 115.67L161.76 112.43L170.22 164L203.36 84.33Z" fill="#6B50FF"/>
<path d="M134.12 36H170.14" stroke="url(#paint1_linear_451_4563)" stroke-width="2" stroke-linecap="round" stroke-linejoin="round"/>
<path d="M134.12 164H170.14" stroke="url(#paint2_linear_451_4563)" stroke-width="2" stroke-linecap="round" stroke-linejoin="round"/>
<path d="M149.54 158.7H162.94" stroke="#8B7CFF" stroke-width="2" stroke-linecap="round" stroke-linejoin="round"/>
<path d="M133.34 158.7H139.67" stroke="#8B7CFF" stroke-width="2" stroke-linecap="round" stroke-linejoin="round"/>
<path d="M101.01 115.62H137.02" stroke="url(#paint3_linear_451_4563)" stroke-width="2" stroke-linecap="round" stroke-linejoin="round"/>
<path d="M121.02 109.43H135.33" stroke="#8B7CFF" stroke-width="2" stroke-linecap="round" stroke-linejoin="round"/>
<path d="M103.43 109.43H111.98" stroke="#8B7CFF" stroke-width="2" stroke-linecap="round" stroke-linejoin="round"/>
<path d="M132.529 81.33H145.529" stroke="#8B7CFF" stroke-width="2" stroke-linecap="round" stroke-linejoin="round"/>
<path d="M126.85 64.1H148.72" stroke="#8B7CFF" stroke-width="2" stroke-linecap="round" stroke-linejoin="round"/>
<path d="M109.83 64.1H115.5" stroke="#8B7CFF" stroke-width="2" stroke-linecap="round" stroke-linejoin="round"/>
<path d="M132.52 134.9H154.39" stroke="#8B7CFF" stroke-width="2" stroke-linecap="round" stroke-linejoin="round"/>
<path d="M115.5 134.9H121.17" stroke="#8B7CFF" stroke-width="2" stroke-linecap="round" stroke-linejoin="round"/>
<path d="M115.02 81.33H122.34" stroke="#8B7CFF" stroke-width="2" stroke-linecap="round" stroke-linejoin="round"/>
<path d="M112.729 87.57H148.739" stroke="url(#paint4_linear_451_4563)" stroke-width="2" stroke-linecap="round" stroke-linejoin="round"/>
<path d="M149.79 41.37H162.12" stroke="#8B7CFF" stroke-width="2" stroke-linecap="round" stroke-linejoin="round"/>
<path d="M131.84 41.37H139.67" stroke="#8B7CFF" stroke-width="2" stroke-linecap="round" stroke-linejoin="round"/>
<path d="M203.36 84.33L178.6 87.57L170.15 36L137 115.67L161.76 112.43L170.22 164L203.36 84.33Z" fill="#281661" stroke="url(#paint5_linear_451_4563)" stroke-width="2" stroke-linecap="round" stroke-linejoin="round"/>
<defs>
<radialGradient id="paint0_radial_451_4563" cx="0" cy="0" r="1" gradientUnits="userSpaceOnUse" gradientTransform="translate(58.5 100) scale(180.5 276.165)">
<stop stop-color="#2E1C70"/>
<stop offset="1" stop-color="#071338"/>
</radialGradient>
<linearGradient id="paint1_linear_451_4563" x1="nan" y1="nan" x2="nan" y2="nan" gradientUnits="userSpaceOnUse">
<stop stop-color="#8B7CFF"/>
<stop offset="1" stop-color="#C063F9"/>
</linearGradient>
<linearGradient id="paint2_linear_451_4563" x1="nan" y1="nan" x2="nan" y2="nan" gradientUnits="userSpaceOnUse">
<stop stop-color="#8B7CFF"/>
<stop offset="1" stop-color="#C063F9"/>
</linearGradient>
<linearGradient id="paint3_linear_451_4563" x1="nan" y1="nan" x2="nan" y2="nan" gradientUnits="userSpaceOnUse">
<stop stop-color="#8B7CFF"/>
<stop offset="1" stop-color="#C063F9"/>
</linearGradient>
<linearGradient id="paint4_linear_451_4563" x1="nan" y1="nan" x2="nan" y2="nan" gradientUnits="userSpaceOnUse">
<stop stop-color="#8B7CFF"/>
<stop offset="1" stop-color="#C063F9"/>
</linearGradient>
<linearGradient id="paint5_linear_451_4563" x1="136" y1="100" x2="204.36" y2="100" gradientUnits="userSpaceOnUse">
<stop stop-color="#C063F9"/>
<stop offset="0.36" stop-color="#BE65F9"/>
<stop offset="0.58" stop-color="#BB6EFA"/>
<stop offset="0.76" stop-color="#B47CFB"/>
<stop offset="0.93" stop-color="#AB91FD"/>
<stop offset="1" stop-color="#A69DFF"/>
</linearGradient>
</defs>
</svg>
