<svg width="306" height="200" viewBox="0 0 306 200" fill="none" xmlns="http://www.w3.org/2000/svg">
<rect x="2" y="2" width="302" height="196" rx="2" fill="url(#paint0_radial_451_6151)" stroke="#8B7CFF" stroke-width="4"/>
<path d="M214.17 144.6H91.83C90.26 144.6 89 143.33 89 141.77V67.23H217V141.76C217 143.33 215.73 144.59 214.17 144.59V144.6Z" fill="#6B50FF"/>
<path d="M216.76 67.38V141.62C216.76 143.19 215.49 144.45 213.93 144.45H92.08C90.51 144.45 89.25 143.18 89.25 141.62V67.38H216.76Z" fill="#6B50FE"/>
<path d="M216.51 67.53V141.47C216.51 143.04 215.24 144.3 213.68 144.3H92.3202C90.7502 144.3 89.4902 143.03 89.4902 141.47V67.53H216.51Z" fill="#6A4FFD"/>
<path d="M216.27 67.68V141.33C216.27 142.9 215 144.16 213.44 144.16H92.5702C91.0002 144.16 89.7402 142.89 89.7402 141.33V67.68H216.27Z" fill="#6A4FFC"/>
<path d="M216.02 67.82V141.17C216.02 142.74 214.75 144 213.19 144H92.8105C91.2405 144 89.9805 142.73 89.9805 141.17V67.82H216.02Z" fill="#694FFB"/>
<path d="M215.78 67.97V141.02C215.78 142.59 214.51 143.85 212.95 143.85H93.0605C91.4905 143.85 90.2305 142.58 90.2305 141.02V67.97H215.78Z" fill="#694EFA"/>
<path d="M215.53 68.12V140.88C215.53 142.45 214.26 143.71 212.7 143.71H93.2997C91.7297 143.71 90.4697 142.44 90.4697 140.88V68.12H215.53Z" fill="#684EF9"/>
<path d="M215.29 68.27V140.73C215.29 142.3 214.02 143.56 212.46 143.56H93.5497C91.9797 143.56 90.7197 142.29 90.7197 140.73V68.27H215.29Z" fill="#684DF8"/>
<path d="M215.04 68.42V140.59C215.04 142.16 213.77 143.42 212.21 143.42H93.79C92.22 143.42 90.96 142.15 90.96 140.59V68.42H215.05H215.04Z" fill="#684DF7"/>
<path d="M214.8 68.56V140.43C214.8 142 213.53 143.26 211.97 143.26H94.04C92.47 143.26 91.21 141.99 91.21 140.43V68.56H214.81H214.8Z" fill="#674DF6"/>
<path d="M214.55 68.71V140.28C214.55 141.85 213.28 143.11 211.72 143.11H94.2802C92.7102 143.11 91.4502 141.84 91.4502 140.28V68.71H214.56H214.55Z" fill="#674CF5"/>
<path d="M214.31 68.86V140.14C214.31 141.71 213.04 142.97 211.48 142.97H94.5302C92.9602 142.97 91.7002 141.7 91.7002 140.14V68.86H214.32H214.31Z" fill="#664CF4"/>
<path d="M214.06 69.01V139.99C214.06 141.56 212.79 142.82 211.23 142.82H94.7704C93.2004 142.82 91.9404 141.55 91.9404 139.99V69.01H214.07H214.06Z" fill="#664CF3"/>
<path d="M213.82 69.16V139.85C213.82 141.42 212.55 142.68 210.99 142.68H95.0204C93.4504 142.68 92.1904 141.41 92.1904 139.85V69.16H213.83H213.82Z" fill="#654BF2"/>
<path d="M213.57 69.3V139.69C213.57 141.26 212.3 142.52 210.74 142.52H95.2597C93.6897 142.52 92.4297 141.25 92.4297 139.69V69.3H213.58H213.57Z" fill="#654BF1"/>
<path d="M213.33 69.45V139.55C213.33 141.12 212.06 142.38 210.5 142.38H95.4999C93.9299 142.38 92.6699 141.11 92.6699 139.55V69.45H213.33Z" fill="#654AF0"/>
<path d="M213.09 69.6V139.4C213.09 140.97 211.82 142.23 210.26 142.23H95.7499C94.1799 142.23 92.9199 140.96 92.9199 139.4V69.6H213.09Z" fill="#644AEF"/>
<path d="M212.84 69.75V139.25C212.84 140.82 211.57 142.08 210.01 142.08H95.9902C94.4202 142.08 93.1602 140.81 93.1602 139.25V69.75H212.84Z" fill="#644AEE"/>
<path d="M212.6 69.89V139.1C212.6 140.67 211.33 141.93 209.77 141.93H96.2402C94.6702 141.93 93.4102 140.66 93.4102 139.1V69.89H212.6Z" fill="#6349ED"/>
<path d="M212.35 70.04V138.95C212.35 140.52 211.08 141.78 209.52 141.78H96.4804C94.9104 141.78 93.6504 140.51 93.6504 138.95V70.04H212.35Z" fill="#6349EC"/>
<path d="M212.11 70.19V138.81C212.11 140.38 210.84 141.64 209.28 141.64H96.7304C95.1604 141.64 93.9004 140.37 93.9004 138.81V70.19H212.11Z" fill="#6349EB"/>
<path d="M211.86 70.34V138.66C211.86 140.23 210.59 141.49 209.03 141.49H96.9696C95.3996 141.49 94.1396 140.22 94.1396 138.66V70.34H211.86Z" fill="#6248EA"/>
<path d="M211.62 70.49V138.52C211.62 140.09 210.35 141.35 208.79 141.35H97.2196C95.6496 141.35 94.3896 140.08 94.3896 138.52V70.49H211.62Z" fill="#6248E9"/>
<path d="M211.37 70.63V138.36C211.37 139.93 210.1 141.19 208.54 141.19H97.4599C95.8899 141.19 94.6299 139.92 94.6299 138.36V70.63H211.37Z" fill="#6148E8"/>
<path d="M211.13 70.78V138.21C211.13 139.78 209.86 141.04 208.3 141.04H97.7099C96.1399 141.04 94.8799 139.77 94.8799 138.21V70.78H211.14H211.13Z" fill="#6147E7"/>
<path d="M210.88 70.93V138.07C210.88 139.64 209.61 140.9 208.05 140.9H97.9501C96.3801 140.9 95.1201 139.63 95.1201 138.07V70.93H210.89H210.88Z" fill="#6047E6"/>
<path d="M210.64 71.08V137.92C210.64 139.49 209.37 140.75 207.81 140.75H98.2001C96.6301 140.75 95.3701 139.48 95.3701 137.92V71.08H210.65H210.64Z" fill="#6046E5"/>
<path d="M210.39 71.23V137.78C210.39 139.35 209.12 140.61 207.56 140.61H98.4404C96.8704 140.61 95.6104 139.34 95.6104 137.78V71.23H210.4H210.39Z" fill="#6046E4"/>
<path d="M210.15 71.37V137.62C210.15 139.19 208.88 140.45 207.32 140.45H98.6904C97.1204 140.45 95.8604 139.18 95.8604 137.62V71.37H210.16H210.15Z" fill="#5F46E3"/>
<path d="M209.9 71.52V137.47C209.9 139.04 208.63 140.3 207.07 140.3H98.9296C97.3596 140.3 96.0996 139.03 96.0996 137.47V71.52H209.91H209.9Z" fill="#5F45E2"/>
<path d="M209.66 71.67V137.33C209.66 138.9 208.39 140.16 206.83 140.16H99.1796C97.6096 140.16 96.3496 138.89 96.3496 137.33V71.67H209.67H209.66Z" fill="#5E45E1"/>
<path d="M209.41 71.82V137.18C209.41 138.75 208.14 140.01 206.58 140.01H99.4198C97.8498 140.01 96.5898 138.74 96.5898 137.18V71.82H209.42H209.41Z" fill="#5E45E0"/>
<path d="M209.17 71.97V137.04C209.17 138.61 207.9 139.87 206.34 139.87H99.6601C98.0901 139.87 96.8301 138.6 96.8301 137.04V71.97H209.17Z" fill="#5D44DF"/>
<path d="M208.93 72.11V136.88C208.93 138.45 207.66 139.71 206.1 139.71H99.9101C98.3401 139.71 97.0801 138.44 97.0801 136.88V72.11H208.93Z" fill="#5D44DE"/>
<path d="M208.68 72.26V136.74C208.68 138.31 207.41 139.57 205.85 139.57H100.15C98.5803 139.57 97.3203 138.3 97.3203 136.74V72.26H208.68Z" fill="#5D44DD"/>
<path d="M208.44 72.41V136.59C208.44 138.16 207.17 139.42 205.61 139.42H100.4C98.8303 139.42 97.5703 138.15 97.5703 136.59V72.41H208.44Z" fill="#5C43DC"/>
<path d="M208.19 72.56V136.44C208.19 138.01 206.92 139.27 205.36 139.27H100.64C99.0696 139.27 97.8096 138 97.8096 136.44V72.56H208.19Z" fill="#5C43DB"/>
<path d="M207.95 72.7V136.29C207.95 137.86 206.68 139.12 205.12 139.12H100.89C99.3196 139.12 98.0596 137.85 98.0596 136.29V72.7H207.95Z" fill="#5B42DA"/>
<path d="M207.7 72.85V136.14C207.7 137.71 206.43 138.97 204.87 138.97H101.13C99.5598 138.97 98.2998 137.7 98.2998 136.14V72.85H207.7Z" fill="#5B42D9"/>
<path d="M207.46 73V136C207.46 137.57 206.19 138.83 204.63 138.83H101.38C99.8098 138.83 98.5498 137.56 98.5498 136V73H207.46Z" fill="#5A42D8"/>
<path d="M207.21 73.15V135.85C207.21 137.42 205.94 138.68 204.38 138.68H101.62C100.05 138.68 98.79 137.41 98.79 135.85V73.15H207.22H207.21Z" fill="#5A41D7"/>
<path d="M206.97 73.3V135.71C206.97 137.28 205.7 138.54 204.14 138.54H101.87C100.3 138.54 99.04 137.27 99.04 135.71V73.3H206.98H206.97Z" fill="#5A41D6"/>
<path d="M206.72 73.44V135.55C206.72 137.12 205.45 138.38 203.89 138.38H102.11C100.54 138.38 99.2803 137.11 99.2803 135.55V73.44H206.73H206.72Z" fill="#5941D5"/>
<path d="M206.48 73.59V135.4C206.48 136.97 205.21 138.23 203.65 138.23H102.36C100.79 138.23 99.5303 136.96 99.5303 135.4V73.59H206.49H206.48Z" fill="#5940D4"/>
<path d="M206.23 73.74V135.26C206.23 136.83 204.96 138.09 203.4 138.09H102.6C101.03 138.09 99.7695 136.82 99.7695 135.26V73.74H206.24H206.23Z" fill="#5840D3"/>
<path d="M205.99 73.89V135.11C205.99 136.68 204.72 137.94 203.16 137.94H102.85C101.28 137.94 100.02 136.67 100.02 135.11V73.89H206H205.99Z" fill="#583FD2"/>
<path d="M205.74 74.04V134.97C205.74 136.54 204.47 137.8 202.91 137.8H103.09C101.52 137.8 100.26 136.53 100.26 134.97V74.04H205.75H205.74Z" fill="#573FD1"/>
<path d="M205.5 74.18V134.81C205.5 136.38 204.23 137.64 202.67 137.64H103.33C101.76 137.64 100.5 136.37 100.5 134.81V74.18H205.5Z" fill="#573FD0"/>
<path d="M205.26 74.33V134.66C205.26 136.23 203.99 137.49 202.43 137.49H103.58C102.01 137.49 100.75 136.22 100.75 134.66V74.33H205.26Z" fill="#573ECF"/>
<path d="M205.01 74.48V134.52C205.01 136.09 203.74 137.35 202.18 137.35H103.82C102.25 137.35 100.99 136.08 100.99 134.52V74.48H205.01Z" fill="#563ECE"/>
<path d="M204.77 74.63V134.37C204.77 135.94 203.5 137.2 201.94 137.2H104.07C102.5 137.2 101.24 135.93 101.24 134.37V74.63H204.77Z" fill="#563ECD"/>
<path d="M204.52 74.78V134.23C204.52 135.8 203.25 137.06 201.69 137.06H104.31C102.74 137.06 101.48 135.79 101.48 134.23V74.78H204.52Z" fill="#553DCC"/>
<path d="M204.28 74.92V134.07C204.28 135.64 203.01 136.9 201.45 136.9H104.56C102.99 136.9 101.73 135.63 101.73 134.07V74.92H204.28Z" fill="#553DCB"/>
<path d="M204.03 75.07V133.93C204.03 135.5 202.76 136.76 201.2 136.76H104.8C103.23 136.76 101.97 135.49 101.97 133.93V75.07H204.03Z" fill="#553DCA"/>
<path d="M203.79 75.22V133.78C203.79 135.35 202.52 136.61 200.96 136.61H105.05C103.48 136.61 102.22 135.34 102.22 133.78V75.22H203.79Z" fill="#543CC9"/>
<path d="M203.54 75.37V133.63C203.54 135.2 202.27 136.46 200.71 136.46H105.29C103.72 136.46 102.46 135.19 102.46 133.63V75.37H203.54Z" fill="#543CC8"/>
<path d="M203.3 75.51V133.48C203.3 135.05 202.03 136.31 200.47 136.31H105.54C103.97 136.31 102.71 135.04 102.71 133.48V75.51H203.31H203.3Z" fill="#533BC7"/>
<path d="M203.05 75.66V133.33C203.05 134.9 201.78 136.16 200.22 136.16H105.78C104.21 136.16 102.95 134.89 102.95 133.33V75.66H203.06H203.05Z" fill="#533BC6"/>
<path d="M202.81 75.81V133.19C202.81 134.76 201.54 136.02 199.98 136.02H106.03C104.46 136.02 103.2 134.75 103.2 133.19V75.81H202.82H202.81Z" fill="#523BC5"/>
<path d="M202.56 75.96V133.04C202.56 134.61 201.29 135.87 199.73 135.87H106.27C104.7 135.87 103.44 134.6 103.44 133.04V75.96H202.57H202.56Z" fill="#523AC4"/>
<path d="M202.32 76.11V132.9C202.32 134.47 201.05 135.73 199.49 135.73H106.52C104.95 135.73 103.69 134.46 103.69 132.9V76.11H202.33H202.32Z" fill="#523AC3"/>
<path d="M202.07 76.25V132.74C202.07 134.31 200.8 135.57 199.24 135.57H106.76C105.19 135.57 103.93 134.3 103.93 132.74V76.25H202.08H202.07Z" fill="#513AC2"/>
<path d="M201.83 76.4V132.59C201.83 134.16 200.56 135.42 199 135.42H107.01C105.44 135.42 104.18 134.15 104.18 132.59V76.4H201.84H201.83Z" fill="#5139C1"/>
<path d="M201.58 76.55V132.45C201.58 134.02 200.31 135.28 198.75 135.28H107.25C105.68 135.28 104.42 134.01 104.42 132.45V76.55H201.59H201.58Z" fill="#5039C0"/>
<path d="M201.34 76.7V132.3C201.34 133.87 200.07 135.13 198.51 135.13H107.49C105.92 135.13 104.66 133.86 104.66 132.3V76.7H201.34Z" fill="#5039BF"/>
<path d="M201.1 76.85V132.16C201.1 133.73 199.83 134.99 198.27 134.99H107.74C106.17 134.99 104.91 133.72 104.91 132.16V76.85H201.1Z" fill="#4F38BE"/>
<path d="M200.85 76.99V132C200.85 133.57 199.58 134.83 198.02 134.83H107.98C106.41 134.83 105.15 133.56 105.15 132V76.99H200.85Z" fill="#4F38BD"/>
<path d="M200.61 77.14V131.85C200.61 133.42 199.34 134.68 197.78 134.68H108.23C106.66 134.68 105.4 133.41 105.4 131.85V77.14H200.61Z" fill="#4F37BC"/>
<path d="M200.36 77.29V131.71C200.36 133.28 199.09 134.54 197.53 134.54H108.47C106.9 134.54 105.64 133.27 105.64 131.71V77.29H200.36Z" fill="#4E37BB"/>
<path d="M200.12 77.44V131.56C200.12 133.13 198.85 134.39 197.29 134.39H108.72C107.15 134.39 105.89 133.12 105.89 131.56V77.44H200.12Z" fill="#4E37BA"/>
<path d="M199.87 77.59V131.42C199.87 132.99 198.6 134.25 197.04 134.25H108.96C107.39 134.25 106.13 132.98 106.13 131.42V77.59H199.87Z" fill="#4D36B9"/>
<path d="M199.63 77.73V131.26C199.63 132.83 198.36 134.09 196.8 134.09H109.21C107.64 134.09 106.38 132.82 106.38 131.26V77.73H199.63Z" fill="#4D36B8"/>
<path d="M199.38 77.88V131.12C199.38 132.69 198.11 133.95 196.55 133.95H109.45C107.88 133.95 106.62 132.68 106.62 131.12V77.88H199.39H199.38Z" fill="#4C36B7"/>
<path d="M199.14 78.03V130.97C199.14 132.54 197.87 133.8 196.31 133.8H109.7C108.13 133.8 106.87 132.53 106.87 130.97V78.03H199.15H199.14Z" fill="#4C35B6"/>
<path d="M198.89 78.18V130.82C198.89 132.39 197.62 133.65 196.06 133.65H109.94C108.37 133.65 107.11 132.38 107.11 130.82V78.18H198.9H198.89Z" fill="#4C35B5"/>
<path d="M198.65 78.32V130.67C198.65 132.24 197.38 133.5 195.82 133.5H110.19C108.62 133.5 107.36 132.23 107.36 130.67V78.32H198.66H198.65Z" fill="#4B34B4"/>
<path d="M198.4 78.47V130.52C198.4 132.09 197.13 133.35 195.57 133.35H110.43C108.86 133.35 107.6 132.08 107.6 130.52V78.47H198.41H198.4Z" fill="#4B34B3"/>
<path d="M198.16 78.62V130.38C198.16 131.95 196.89 133.21 195.33 133.21H110.68C109.11 133.21 107.85 131.94 107.85 130.38V78.62H198.17H198.16Z" fill="#4A34B2"/>
<path d="M197.91 78.77V130.23C197.91 131.8 196.64 133.06 195.08 133.06H110.92C109.35 133.06 108.09 131.79 108.09 130.23V78.77H197.92H197.91Z" fill="#4A33B1"/>
<path d="M197.67 78.92V130.09C197.67 131.66 196.4 132.92 194.84 132.92H111.16C109.59 132.92 108.33 131.65 108.33 130.09V78.92H197.67Z" fill="#4A33B0"/>
<path d="M197.43 79.06V129.93C197.43 131.5 196.16 132.76 194.6 132.76H111.41C109.84 132.76 108.58 131.49 108.58 129.93V79.06H197.43Z" fill="#4933AF"/>
<path d="M197.18 79.21V129.78C197.18 131.35 195.91 132.61 194.35 132.61H111.65C110.08 132.61 108.82 131.34 108.82 129.78V79.21H197.18Z" fill="#4932AE"/>
<path d="M196.94 79.36V129.64C196.94 131.21 195.67 132.47 194.11 132.47H111.9C110.33 132.47 109.07 131.2 109.07 129.64V79.36H196.94Z" fill="#4832AD"/>
<path d="M196.69 79.51V129.49C196.69 131.06 195.42 132.32 193.86 132.32H112.14C110.57 132.32 109.31 131.05 109.31 129.49V79.51H196.69Z" fill="#4832AC"/>
<path d="M196.45 79.66V129.35C196.45 130.92 195.18 132.18 193.62 132.18H112.39C110.82 132.18 109.56 130.91 109.56 129.35V79.66H196.45Z" fill="#4731AB"/>
<path d="M196.2 79.8V129.19C196.2 130.76 194.93 132.02 193.37 132.02H112.63C111.06 132.02 109.8 130.75 109.8 129.19V79.8H196.2Z" fill="#4731AA"/>
<path d="M195.96 79.95V129.04C195.96 130.61 194.69 131.87 193.13 131.87H112.88C111.31 131.87 110.05 130.6 110.05 129.04V79.95H195.96Z" fill="#4730A9"/>
<path d="M195.71 80.1V128.9C195.71 130.47 194.44 131.73 192.88 131.73H113.12C111.55 131.73 110.29 130.46 110.29 128.9V80.1H195.72H195.71Z" fill="#4630A8"/>
<path d="M195.47 80.25V128.75C195.47 130.32 194.2 131.58 192.64 131.58H113.37C111.8 131.58 110.54 130.31 110.54 128.75V80.25H195.48H195.47Z" fill="#4630A7"/>
<path d="M195.22 80.4V128.61C195.22 130.18 193.95 131.44 192.39 131.44H113.61C112.04 131.44 110.78 130.17 110.78 128.61V80.4H195.23H195.22Z" fill="#452FA6"/>
<path d="M194.98 80.54V128.45C194.98 130.02 193.71 131.28 192.15 131.28H113.86C112.29 131.28 111.03 130.01 111.03 128.45V80.54H194.99H194.98Z" fill="#452FA5"/>
<path d="M194.73 80.69V128.31C194.73 129.88 193.46 131.14 191.9 131.14H114.1C112.53 131.14 111.27 129.87 111.27 128.31V80.69H194.74H194.73Z" fill="#442FA4"/>
<path d="M194.49 80.84V128.16C194.49 129.73 193.22 130.99 191.66 130.99H114.35C112.78 130.99 111.52 129.72 111.52 128.16V80.84H194.5H194.49Z" fill="#442EA3"/>
<path d="M194.24 80.99V128.01C194.24 129.58 192.97 130.84 191.41 130.84H114.59C113.02 130.84 111.76 129.57 111.76 128.01V80.99H194.25H194.24Z" fill="#442EA2"/>
<path d="M194 81.13V127.86C194 129.43 192.73 130.69 191.17 130.69H114.83C113.26 130.69 112 129.42 112 127.86V81.13H194Z" fill="#432DA1"/>
<path d="M193.76 81.28V127.71C193.76 129.28 192.49 130.54 190.93 130.54H115.08C113.51 130.54 112.25 129.27 112.25 127.71V81.28H193.76Z" fill="#432DA0"/>
<path d="M193.51 81.43V127.57C193.51 129.14 192.24 130.4 190.68 130.4H115.32C113.75 130.4 112.49 129.13 112.49 127.57V81.43H193.51Z" fill="#422D9F"/>
<path d="M193.27 81.58V127.42C193.27 128.99 192 130.25 190.44 130.25H115.57C114 130.25 112.74 128.98 112.74 127.42V81.58H193.27Z" fill="#422C9E"/>
<path d="M193.02 81.73V127.28C193.02 128.85 191.75 130.11 190.19 130.11H115.81C114.24 130.11 112.98 128.84 112.98 127.28V81.73H193.02Z" fill="#412C9D"/>
<path d="M192.78 81.87V127.12C192.78 128.69 191.51 129.95 189.95 129.95H116.06C114.49 129.95 113.23 128.68 113.23 127.12V81.87H192.78Z" fill="#412C9C"/>
<path d="M192.53 82.02V126.97C192.53 128.54 191.26 129.8 189.7 129.8H116.3C114.73 129.8 113.47 128.53 113.47 126.97V82.02H192.53Z" fill="#412B9B"/>
<path d="M192.29 82.17V126.83C192.29 128.4 191.02 129.66 189.46 129.66H116.55C114.98 129.66 113.72 128.39 113.72 126.83V82.17H192.29Z" fill="#402B9A"/>
<path d="M192.04 82.32V126.68C192.04 128.25 190.77 129.51 189.21 129.51H116.79C115.22 129.51 113.96 128.24 113.96 126.68V82.32H192.04Z" fill="#402B99"/>
<path d="M191.8 82.47V126.54C191.8 128.11 190.53 129.37 188.97 129.37H117.04C115.47 129.37 114.21 128.1 114.21 126.54V82.47H191.81H191.8Z" fill="#3F2A98"/>
<path d="M191.55 82.61V126.38C191.55 127.95 190.28 129.21 188.72 129.21H117.28C115.71 129.21 114.45 127.94 114.45 126.38V82.61H191.56H191.55Z" fill="#3F2A97"/>
<path d="M191.31 82.76V126.23C191.31 127.8 190.04 129.06 188.48 129.06H117.53C115.96 129.06 114.7 127.79 114.7 126.23V82.76H191.32H191.31Z" fill="#3E2996"/>
<path d="M191.06 82.91V126.09C191.06 127.66 189.79 128.92 188.23 128.92H117.77C116.2 128.92 114.94 127.65 114.94 126.09V82.91H191.07H191.06Z" fill="#3E2995"/>
<path d="M190.82 83.06V125.94C190.82 127.51 189.55 128.77 187.99 128.77H118.02C116.45 128.77 115.19 127.5 115.19 125.94V83.06H190.83H190.82Z" fill="#3E2994"/>
<path d="M190.57 83.21V125.8C190.57 127.37 189.3 128.63 187.74 128.63H118.26C116.69 128.63 115.43 127.36 115.43 125.8V83.21H190.58H190.57Z" fill="#3D2893"/>
<path d="M190.33 83.35V125.64C190.33 127.21 189.06 128.47 187.5 128.47H118.51C116.94 128.47 115.68 127.2 115.68 125.64V83.35H190.34H190.33Z" fill="#3D2892"/>
<path d="M190.08 83.5V125.5C190.08 127.07 188.81 128.33 187.25 128.33H118.75C117.18 128.33 115.92 127.06 115.92 125.5V83.5H190.09H190.08Z" fill="#3C2891"/>
<path d="M189.84 83.65V125.35C189.84 126.92 188.57 128.18 187.01 128.18H118.99C117.42 128.18 116.16 126.91 116.16 125.35V83.65H189.84Z" fill="#3C2790"/>
<path d="M189.6 83.8V125.2C189.6 126.77 188.33 128.03 186.77 128.03H119.24C117.67 128.03 116.41 126.76 116.41 125.2V83.8H189.6Z" fill="#3C278F"/>
<path d="M189.35 83.94V125.05C189.35 126.62 188.08 127.88 186.52 127.88H119.48C117.91 127.88 116.65 126.61 116.65 125.05V83.94H189.35Z" fill="#3B278E"/>
<path d="M189.11 84.09V124.9C189.11 126.47 187.84 127.73 186.28 127.73H119.73C118.16 127.73 116.9 126.46 116.9 124.9V84.09H189.11Z" fill="#3B268D"/>
<path d="M188.86 84.24V124.76C188.86 126.33 187.59 127.59 186.03 127.59H119.97C118.4 127.59 117.14 126.32 117.14 124.76V84.24H188.86Z" fill="#3A268C"/>
<path d="M188.62 84.39V124.61C188.62 126.18 187.35 127.44 185.79 127.44H120.22C118.65 127.44 117.39 126.17 117.39 124.61V84.39H188.62Z" fill="#3A258B"/>
<path d="M188.37 84.54V124.47C188.37 126.04 187.1 127.3 185.54 127.3H120.46C118.89 127.3 117.63 126.03 117.63 124.47V84.54H188.37Z" fill="#39258A"/>
<path d="M188.13 84.68V124.31C188.13 125.88 186.86 127.14 185.3 127.14H120.71C119.14 127.14 117.88 125.87 117.88 124.31V84.68H188.13Z" fill="#392589"/>
<path d="M187.88 84.83V124.16C187.88 125.73 186.61 126.99 185.05 126.99H120.95C119.38 126.99 118.12 125.72 118.12 124.16V84.83H187.89H187.88Z" fill="#392488"/>
<path d="M187.64 84.98V124.02C187.64 125.59 186.37 126.85 184.81 126.85H121.2C119.63 126.85 118.37 125.58 118.37 124.02V84.98H187.65H187.64Z" fill="#382487"/>
<path d="M187.39 85.13V123.87C187.39 125.44 186.12 126.7 184.56 126.7H121.44C119.87 126.7 118.61 125.43 118.61 123.87V85.13H187.4H187.39Z" fill="#382486"/>
<path d="M187.15 85.28V123.73C187.15 125.3 185.88 126.56 184.32 126.56H121.69C120.12 126.56 118.86 125.29 118.86 123.73V85.28H187.16H187.15Z" fill="#372385"/>
<path d="M186.9 85.42V123.57C186.9 125.14 185.63 126.4 184.07 126.4H121.93C120.36 126.4 119.1 125.13 119.1 123.57V85.42H186.91H186.9Z" fill="#372384"/>
<path d="M186.66 85.57V123.42C186.66 124.99 185.39 126.25 183.83 126.25H122.18C120.61 126.25 119.35 124.98 119.35 123.42V85.57H186.67H186.66Z" fill="#362283"/>
<path d="M186.41 85.72V123.28C186.41 124.85 185.14 126.11 183.58 126.11H122.42C120.85 126.11 119.59 124.84 119.59 123.28V85.72H186.42H186.41Z" fill="#362282"/>
<path d="M186.17 85.87V123.13C186.17 124.7 184.9 125.96 183.34 125.96H122.67C121.1 125.96 119.84 124.69 119.84 123.13V85.87H186.18H186.17Z" fill="#362281"/>
<path d="M185.93 86.02V122.99C185.93 124.56 184.66 125.82 183.1 125.82H122.92C121.35 125.82 120.09 124.55 120.09 122.99V86.02H185.94H185.93Z" fill="#352180"/>
<path d="M185.68 86.16V122.83C185.68 124.4 184.41 125.66 182.85 125.66H123.16C121.59 125.66 120.33 124.39 120.33 122.83V86.16H185.69H185.68Z" fill="#35217F"/>
<path d="M185.44 86.31V122.69C185.44 124.26 184.17 125.52 182.61 125.52H123.41C121.84 125.52 120.58 124.25 120.58 122.69V86.31H185.45H185.44Z" fill="#34217E"/>
<path d="M185.19 86.46V122.54C185.19 124.11 183.92 125.37 182.36 125.37H123.65C122.08 125.37 120.82 124.1 120.82 122.54V86.46H185.2H185.19Z" fill="#34207D"/>
<path d="M184.95 86.61V122.39C184.95 123.96 183.68 125.22 182.12 125.22H123.9C122.33 125.22 121.07 123.95 121.07 122.39V86.61H184.96H184.95Z" fill="#33207C"/>
<path d="M184.7 86.75V122.24C184.7 123.81 183.43 125.07 181.87 125.07H124.14C122.57 125.07 121.31 123.8 121.31 122.24V86.75H184.71H184.7Z" fill="#33207B"/>
<path d="M184.46 86.9V122.09C184.46 123.66 183.19 124.92 181.63 124.92H124.39C122.82 124.92 121.56 123.65 121.56 122.09V86.9H184.47H184.46Z" fill="#331F7A"/>
<path d="M184.21 87.05V121.95C184.21 123.52 182.94 124.78 181.38 124.78H124.62C123.05 124.78 121.79 123.51 121.79 121.95V87.05H184.21Z" fill="#321F79"/>
<path d="M183.97 87.2V121.8C183.97 123.37 182.7 124.63 181.14 124.63H124.87C123.3 124.63 122.04 123.36 122.04 121.8V87.2H183.98H183.97Z" fill="#321E78"/>
<path d="M183.72 87.35V121.66C183.72 123.23 182.45 124.49 180.89 124.49H125.11C123.54 124.49 122.28 123.22 122.28 121.66V87.35H183.73H183.72Z" fill="#311E77"/>
<path d="M183.48 87.49V121.5C183.48 123.07 182.21 124.33 180.65 124.33H125.36C123.79 124.33 122.53 123.06 122.53 121.5V87.49H183.49H183.48Z" fill="#311E76"/>
<path d="M183.23 87.64V121.35C183.23 122.92 181.96 124.18 180.4 124.18H125.6C124.03 124.18 122.77 122.91 122.77 121.35V87.64H183.24H183.23Z" fill="#301D75"/>
<path d="M182.99 87.79V121.21C182.99 122.78 181.72 124.04 180.16 124.04H125.85C124.28 124.04 123.02 122.77 123.02 121.21V87.79H183H182.99Z" fill="#301D74"/>
<path d="M182.74 87.94V121.06C182.74 122.63 181.47 123.89 179.91 123.89H126.09C124.52 123.89 123.26 122.62 123.26 121.06V87.94H182.75H182.74Z" fill="#301D73"/>
<path d="M182.5 88.09V120.92C182.5 122.49 181.23 123.75 179.67 123.75H126.34C124.77 123.75 123.51 122.48 123.51 120.92V88.09H182.51H182.5Z" fill="#2F1C72"/>
<path d="M182.25 88.23V120.76C182.25 122.33 180.98 123.59 179.42 123.59H126.58C125.01 123.59 123.75 122.32 123.75 120.76V88.23H182.26H182.25Z" fill="#2F1C71"/>
<path d="M182.01 88.38V120.61C182.01 122.18 180.74 123.44 179.18 123.44H126.83C125.26 123.44 124 122.17 124 120.61V88.38H182.02H182.01Z" fill="#2E1C70"/>
<path d="M181.77 88.53V120.47C181.77 122.04 180.5 123.3 178.94 123.3H127.08C125.51 123.3 124.25 122.03 124.25 120.47V88.53H181.78H181.77Z" fill="#2E1B6F"/>
<path d="M181.52 88.68V120.32C181.52 121.89 180.25 123.15 178.69 123.15H127.32C125.75 123.15 124.49 121.88 124.49 120.32V88.68H181.53H181.52Z" fill="#2E1B6E"/>
<path d="M181.28 88.83V120.18C181.28 121.75 180.01 123.01 178.45 123.01H127.57C126 123.01 124.74 121.74 124.74 120.18V88.83H181.29H181.28Z" fill="#2D1A6D"/>
<path d="M181.03 88.97V120.02C181.03 121.59 179.76 122.85 178.2 122.85H127.81C126.24 122.85 124.98 121.58 124.98 120.02V88.97H181.04H181.03Z" fill="#2D1A6C"/>
<path d="M180.79 89.12V119.88C180.79 121.45 179.52 122.71 177.96 122.71H128.06C126.49 122.71 125.23 121.44 125.23 119.88V89.12H180.8H180.79Z" fill="#2C1A6B"/>
<path d="M180.54 89.27V119.73C180.54 121.3 179.27 122.56 177.71 122.56H128.3C126.73 122.56 125.47 121.29 125.47 119.73V89.27H180.55H180.54Z" fill="#2C196A"/>
<path d="M180.3 89.42V119.58C180.3 121.15 179.03 122.41 177.47 122.41H128.54C126.97 122.41 125.71 121.14 125.71 119.58V89.42H180.3Z" fill="#2B1969"/>
<path d="M180.05 89.56V119.43C180.05 121 178.78 122.26 177.22 122.26H128.78C127.21 122.26 125.95 120.99 125.95 119.43V89.56H180.06H180.05Z" fill="#2B1968"/>
<path d="M179.81 89.71V119.28C179.81 120.85 178.54 122.11 176.98 122.11H129.03C127.46 122.11 126.2 120.84 126.2 119.28V89.71H179.82H179.81Z" fill="#2B1867"/>
<path d="M179.56 89.86V119.14C179.56 120.71 178.29 121.97 176.73 121.97H129.27C127.7 121.97 126.44 120.7 126.44 119.14V89.86H179.57H179.56Z" fill="#2A1866"/>
<path d="M179.32 90.01V118.99C179.32 120.56 178.05 121.82 176.49 121.82H129.52C127.95 121.82 126.69 120.55 126.69 118.99V90.01H179.33H179.32Z" fill="#2A1765"/>
<path d="M179.07 90.16V118.85C179.07 120.42 177.8 121.68 176.24 121.68H129.76C128.19 121.68 126.93 120.41 126.93 118.85V90.16H179.08H179.07Z" fill="#291764"/>
<path d="M178.83 90.3V118.69C178.83 120.26 177.56 121.52 176 121.52H130.01C128.44 121.52 127.18 120.25 127.18 118.69V90.3H178.84H178.83Z" fill="#291763"/>
<path d="M178.58 90.45V118.54C178.58 120.11 177.31 121.37 175.75 121.37H130.25C128.68 121.37 127.42 120.1 127.42 118.54V90.45H178.59H178.58Z" fill="#281662"/>
<path d="M175.51 121.23H130.5C128.93 121.23 127.67 119.96 127.67 118.4V90.6H178.35V118.4C178.35 119.97 177.08 121.23 175.52 121.23H175.51Z" fill="#281661"/>
<path d="M89 67.23H217V141.76C217 143.32 215.73 144.59 214.17 144.59H91.83C90.27 144.59 89 143.32 89 141.76V67.23Z" stroke="url(#paint1_linear_451_6151)" stroke-width="2" stroke-linecap="round" stroke-linejoin="round"/>
<path d="M91.83 55H214.16C215.72 55 216.99 56.27 216.99 57.83V67.8H89V57.83C89 56.27 90.27 55 91.83 55Z" stroke="url(#paint2_linear_451_6151)" stroke-width="2" stroke-linecap="round" stroke-linejoin="round"/>
<path d="M93.9503 61.87L97.1603 64.01C97.5403 64.26 98.0403 63.99 98.0403 63.54V59.26C98.0403 58.81 97.5403 58.54 97.1603 58.79L93.9503 60.93C93.6103 61.15 93.6103 61.65 93.9503 61.87Z" fill="#6B50FF"/>
<path d="M103.73 61.87L100.52 64.01C100.14 64.26 99.6396 63.99 99.6396 63.54V59.26C99.6396 58.81 100.14 58.54 100.52 58.79L103.73 60.93C104.07 61.15 104.07 61.65 103.73 61.87Z" fill="#6B50FF"/>
<path d="M159.05 100.9V90.28H159.01L159.05 90.2H147.67C141.78 90.2 137 94.98 137 100.87C137 106.76 141.4 111.13 146.95 111.5V122.2H158.33C164.22 122.2 169 117.42 169 111.53C169 105.64 164.6 101.27 159.05 100.9ZM138.42 100.86C138.42 95.76 142.57 91.6 147.68 91.6H156.78L147.53 110.11C142.5 110.03 138.43 105.91 138.43 100.86H138.42ZM148.37 111.53H148.38L157.64 93.02V100.86H157.63L148.37 119.37V111.53ZM158.34 120.79H149.24L158.49 102.28C163.52 102.36 167.59 106.48 167.59 111.53C167.59 116.58 163.44 120.79 158.33 120.79H158.34Z" fill="url(#paint3_linear_451_6151)"/>
<path d="M110.73 63.86L109.34 58.93H110.3L111.19 62.55H111.24L112.19 58.93H113.06L114.01 62.55H114.05L114.94 58.93H115.9L114.51 63.86H113.63L112.64 60.4H112.6L111.61 63.86H110.73Z" fill="#C063F9"/>
<path d="M117.55 63.86L116.16 58.93H117.12L118.01 62.55H118.06L119.01 58.93H119.88L120.83 62.55H120.87L121.76 58.93H122.72L121.33 63.86H120.45L119.46 60.4H119.42L118.43 63.86H117.55Z" fill="#C063F9"/>
<path d="M124.369 63.86L122.979 58.93H123.939L124.829 62.55H124.879L125.829 58.93H126.699L127.649 62.55H127.689L128.579 58.93H129.539L128.149 63.86H127.269L126.279 60.4H126.239L125.249 63.86H124.369Z" fill="#C063F9"/>
<path d="M129.99 63.91C129.84 63.91 129.72 63.86 129.62 63.76C129.52 63.66 129.46 63.53 129.47 63.38C129.47 63.24 129.52 63.11 129.62 63.01C129.72 62.91 129.85 62.86 129.99 62.86C130.13 62.86 130.25 62.91 130.36 63.01C130.47 63.11 130.52 63.24 130.52 63.38C130.52 63.48 130.49 63.57 130.45 63.65C130.4 63.73 130.34 63.79 130.26 63.84C130.18 63.89 130.09 63.91 130 63.91H129.99Z" fill="#C063F9"/>
<path d="M134.14 60.29C134.12 60.08 134.02 59.92 133.86 59.8C133.69 59.68 133.48 59.62 133.21 59.62C133.02 59.62 132.86 59.65 132.73 59.7C132.6 59.76 132.5 59.83 132.42 59.93C132.35 60.03 132.31 60.14 132.31 60.26C132.31 60.36 132.33 60.45 132.38 60.53C132.43 60.61 132.49 60.67 132.57 60.72C132.65 60.77 132.74 60.82 132.84 60.85C132.94 60.89 133.04 60.92 133.14 60.94L133.6 61.06C133.79 61.1 133.96 61.16 134.14 61.24C134.31 61.31 134.47 61.41 134.6 61.52C134.74 61.63 134.85 61.77 134.93 61.93C135.01 62.09 135.05 62.27 135.05 62.49C135.05 62.78 134.98 63.03 134.83 63.25C134.68 63.47 134.47 63.64 134.19 63.76C133.91 63.88 133.58 63.94 133.18 63.94C132.78 63.94 132.46 63.88 132.18 63.76C131.9 63.64 131.68 63.47 131.52 63.24C131.36 63.01 131.28 62.73 131.26 62.41H132.14C132.15 62.58 132.21 62.72 132.3 62.84C132.39 62.95 132.51 63.04 132.66 63.09C132.81 63.14 132.98 63.17 133.16 63.17C133.34 63.17 133.52 63.14 133.67 63.08C133.82 63.02 133.93 62.94 134.02 62.83C134.1 62.72 134.15 62.6 134.15 62.46C134.15 62.33 134.11 62.23 134.04 62.14C133.97 62.06 133.86 61.99 133.73 61.93C133.6 61.87 133.44 61.82 133.27 61.78L132.71 61.64C132.3 61.54 131.98 61.38 131.75 61.16C131.52 60.95 131.4 60.67 131.4 60.31C131.4 60.02 131.48 59.77 131.64 59.55C131.8 59.33 132.01 59.16 132.29 59.04C132.56 58.92 132.87 58.86 133.22 58.86C133.57 58.86 133.88 58.92 134.14 59.04C134.4 59.16 134.61 59.33 134.76 59.54C134.91 59.75 134.99 60 134.99 60.28H134.13L134.14 60.29Z" fill="#C063F9"/>
<path d="M136.749 58.93V63.86H135.859V58.93H136.749Z" fill="#C063F9"/>
<path d="M137.72 58.93H138.81L140.27 62.5H140.33L141.79 58.93H142.88V63.86H142.02V60.48H141.97L140.61 63.85H139.97L138.61 60.47H138.56V63.86H137.7V58.93H137.72Z" fill="#C063F9"/>
<path d="M143.859 63.86V58.93H144.749V63.11H146.919V63.86H143.859Z" fill="#C063F9"/>
<path d="M148.19 63.91C148.04 63.91 147.92 63.86 147.82 63.76C147.72 63.66 147.66 63.53 147.67 63.38C147.67 63.24 147.72 63.11 147.82 63.01C147.92 62.91 148.05 62.86 148.19 62.86C148.33 62.86 148.45 62.91 148.56 63.01C148.67 63.11 148.72 63.24 148.72 63.38C148.72 63.48 148.69 63.57 148.65 63.65C148.6 63.73 148.54 63.79 148.46 63.84C148.38 63.89 148.29 63.91 148.2 63.91H148.19Z" fill="#C063F9"/>
<path d="M150.3 63.86H149.35L151.08 58.93H152.18L153.92 63.86H152.97L151.65 59.94H151.61L150.3 63.86ZM150.33 61.93H152.93V62.65H150.33V61.93Z" fill="#C063F9"/>
<path d="M155.46 58.93V63.86H154.57V58.93H155.46Z" fill="#C063F9"/>
<defs>
<radialGradient id="paint0_radial_451_6151" cx="0" cy="0" r="1" gradientUnits="userSpaceOnUse" gradientTransform="translate(58.5 100) scale(180.5 276.165)">
<stop stop-color="#2E1C70"/>
<stop offset="1" stop-color="#071338"/>
</radialGradient>
<linearGradient id="paint1_linear_451_6151" x1="88" y1="105.92" x2="218" y2="105.92" gradientUnits="userSpaceOnUse">
<stop stop-color="#C063F9"/>
<stop offset="1" stop-color="#A69DFF"/>
</linearGradient>
<linearGradient id="paint2_linear_451_6151" x1="88" y1="61.4" x2="89" y2="61.4" gradientUnits="userSpaceOnUse">
<stop stop-color="#C063F9"/>
<stop offset="1" stop-color="#A69DFF"/>
</linearGradient>
<linearGradient id="paint3_linear_451_6151" x1="139" y1="94.5" x2="168" y2="117" gradientUnits="userSpaceOnUse">
<stop stop-color="#C063F9"/>
<stop offset="1" stop-color="#A69DFF"/>
</linearGradient>
</defs>
</svg>
