<svg width="120" height="24" viewBox="0 0 120 24" fill="none" xmlns="http://www.w3.org/2000/svg">
<path d="M15.6901 7.85009L7.84009 23.5401H15.6901C20.0201 23.5401 23.5401 20.0301 23.5401 15.6901C23.5401 11.3501 20.0301 7.84009 15.6901 7.84009V7.85009Z" fill="url(#paint0_linear_183_6665)"/>
<path d="M15.6901 7.85009L7.84009 23.5401H15.6901C20.0201 23.5401 23.5401 20.0301 23.5401 15.6901C23.5401 11.3501 20.0301 7.84009 15.6901 7.84009V7.85009Z" fill="url(#paint1_radial_183_6665)"/>
<path d="M15.6901 7.85009L7.84009 23.5401H15.6901C20.0201 23.5401 23.5401 20.0301 23.5401 15.6901C23.5401 11.3501 20.0301 7.84009 15.6901 7.84009V7.85009Z" fill="url(#paint2_radial_183_6665)"/>
<path d="M15.69 0H7.84C3.51 0 0 3.51 0 7.85C0 12.19 3.51 15.7 7.85 15.7L15.69 0Z" fill="url(#paint3_linear_183_6665)"/>
<path d="M15.69 0H7.84C3.51 0 0 3.51 0 7.85C0 12.19 3.51 15.7 7.85 15.7L15.69 0Z" fill="url(#paint4_radial_183_6665)"/>
<path d="M7.8501 23.54L15.6901 7.85V0L7.8501 15.69V23.54Z" fill="#6B50FF"/>
<path d="M7.8501 23.54L15.6901 7.85V0L7.8501 15.69V23.54Z" fill="url(#paint5_linear_183_6665)"/>
<path d="M50.82 7.37988H45.45V23.5499H50.82V7.37988Z" fill="#F3F2FF"/>
<path d="M119.58 7.37988H114.21V23.5499H119.58V7.37988Z" fill="#F3F2FF"/>
<path d="M77.4601 13.6499V23.5399H72.0601V14.2599C72.0601 12.7399 71.3801 11.9999 70.0601 11.9999C68.6101 11.9999 67.8301 13.0299 67.8301 14.7199V23.5499H62.4601V14.2699C62.4601 12.7499 61.7801 12.0099 60.4201 12.0099C58.9701 12.0099 58.1901 13.0399 58.1901 14.7299V23.5599H52.8201V7.37993H58.1901V8.89993C59.1901 7.56993 60.6501 6.92993 62.5601 6.92993C64.4701 6.92993 65.7901 7.60993 66.7001 8.99993C67.8301 7.60993 69.3801 6.92993 71.3901 6.92993C75.1401 6.92993 77.4701 9.47993 77.4701 13.6499H77.4601Z" fill="#F3F2FF"/>
<path d="M45.93 5.26C44.73 4 44.73 2.09 45.93 0.9C47.19 -0.3 49.1 -0.3 50.29 0.9C51.55 2.1 51.55 4 50.29 5.26C49.09 6.46 47.19 6.46 45.93 5.26Z" fill="#F3F2FF"/>
<path d="M114.69 5.26C113.49 4 113.49 2.09 114.69 0.9C115.95 -0.3 117.86 -0.3 119.05 0.9C120.31 2.1 120.31 4 119.05 5.26C117.85 6.46 115.95 6.46 114.69 5.26Z" fill="#F3F2FF"/>
<path d="M106.85 7.37993H112.22V23.5499H106.85V22.0599C105.75 23.3499 104.23 23.9999 102.26 23.9999C100.09 23.9999 98.2799 23.1899 96.8299 21.5799C95.3799 19.9299 94.6599 17.8899 94.6599 15.4699C94.6599 13.0499 95.3699 11.0099 96.8299 9.38993C98.2799 7.73993 100.1 6.92993 102.26 6.92993C104.23 6.92993 105.75 7.57993 106.85 8.86993V7.37993ZM103.46 18.9899C104.46 18.9899 105.3 18.6699 105.92 18.0199C106.53 17.3699 106.86 16.5299 106.86 15.4699C106.86 14.4099 106.54 13.5599 105.92 12.9199C105.31 12.2699 104.47 11.9499 103.46 11.9499C102.45 11.9499 101.62 12.2699 101 12.9199C100.39 13.5699 100.06 14.4099 100.06 15.4699C100.06 16.5299 100.38 17.3799 101 18.0199C101.61 18.6699 102.45 18.9899 103.46 18.9899Z" fill="#F3F2FF"/>
<path d="M79.7 23.5501V0.0600586H85.04V23.5501H79.7Z" fill="#F3F2FF"/>
<path d="M86.9299 20.65C86.9299 18.82 88.4699 17.3 90.3099 17.3C92.1499 17.3 93.6599 18.81 93.6599 20.65C93.6599 22.49 92.1499 24 90.3099 24C88.4699 24 86.9299 22.49 86.9299 20.65Z" fill="#F3F2FF"/>
<path d="M38.4299 13.3899C36.8799 13.0299 35.6199 12.7099 35.6199 12.0999C35.6199 11.5799 36.0099 11.3199 36.8199 11.3199C37.6899 11.3199 39.4599 11.8699 40.3599 12.2999L42.1299 8.74992C40.1499 7.33992 38.7599 6.91992 36.6899 6.91992C34.9099 6.91992 33.3599 7.39992 32.0999 8.33992C30.8399 9.27992 30.1899 10.6399 30.1899 12.3499C30.1599 15.6799 33.0699 16.8799 35.2999 17.3599C36.8499 17.7499 38.0799 18.0699 38.0799 18.6899C38.0799 19.2699 37.5999 19.5599 36.6299 19.5599C35.3799 19.5599 33.6099 18.5599 32.4799 17.8999L30.4499 21.9599C32.7299 23.6599 34.6099 23.9899 36.6699 23.9899C38.5799 23.9899 40.1899 23.5399 41.5799 22.6599C42.9699 21.7899 43.6499 20.3999 43.6499 18.5499C43.6799 14.9599 40.7399 13.7999 38.4399 13.3799L38.4299 13.3899Z" fill="#F3F2FF"/>
<defs>
<linearGradient id="paint0_linear_183_6665" x1="13.1401" y1="15.9201" x2="21.2701" y2="19.8801" gradientUnits="userSpaceOnUse">
<stop stop-color="#8B66FF"/>
<stop offset="0.5" stop-color="#BF66FF"/>
<stop offset="1" stop-color="#E399FA"/>
</linearGradient>
<radialGradient id="paint1_radial_183_6665" cx="0" cy="0" r="1" gradientUnits="userSpaceOnUse" gradientTransform="translate(7.79009 23.4901) scale(10.94)">
<stop stop-color="#42148C"/>
<stop offset="1" stop-color="#8B66FF" stop-opacity="0"/>
</radialGradient>
<radialGradient id="paint2_radial_183_6665" cx="0" cy="0" r="1" gradientUnits="userSpaceOnUse" gradientTransform="translate(15.8001 7.83009) scale(11.66)">
<stop stop-color="#FFE1F7" stop-opacity="0.6"/>
<stop offset="1" stop-color="#8B66FF" stop-opacity="0"/>
</radialGradient>
<linearGradient id="paint3_linear_183_6665" x1="3.27" y1="2.13" x2="11.01" y2="8.34" gradientUnits="userSpaceOnUse">
<stop stop-color="#008AFF"/>
<stop offset="1" stop-color="#8B66FF"/>
</linearGradient>
<radialGradient id="paint4_radial_183_6665" cx="0" cy="0" r="1" gradientUnits="userSpaceOnUse" gradientTransform="translate(15.66 -0.12) scale(16.2)">
<stop stop-color="#A9E8FF"/>
<stop offset="1" stop-color="#8B66FF" stop-opacity="0"/>
</radialGradient>
<linearGradient id="paint5_linear_183_6665" x1="9.4901" y1="16.17" x2="15.5101" y2="4.54" gradientUnits="userSpaceOnUse">
<stop stop-color="#281661"/>
<stop offset="1" stop-color="#8B66FF" stop-opacity="0"/>
</linearGradient>
</defs>
</svg>
