<svg width="21" height="22" viewBox="0 0 21 22" fill="none" xmlns="http://www.w3.org/2000/svg">
<path d="M0 0.5H21V21.5H0V0.5ZM17.4375 5.46875V5.23438H13.5469L10.7812 12.1719L7.59375 5.23438H3.51562V5.46875L4.82812 7.0625C4.96875 7.20312 5.01562 7.34375 5.01562 7.53125V13.7656C5.01562 14 4.96875 14.1875 4.82812 14.375L3.32812 16.1562V16.3906H7.54688V16.1562L6.04688 14.375C5.85938 14.1875 5.8125 14 5.85938 13.7656V8.375L9.5625 16.3906H9.98438L13.125 8.375V14.7969C13.125 14.9375 13.0781 15.0312 13.0312 15.0781L11.9062 16.2031V16.4375H17.4375V16.2031L16.3125 15.125C16.2188 15.0312 16.1719 14.9375 16.1719 14.7969V6.875C16.1719 6.78125 16.2188 6.64062 16.3125 6.54688L17.4375 5.46875Z" fill="#EBEDFA"/>
</svg>
