<svg width="359" height="52" viewBox="0 0 359 52" fill="none" xmlns="http://www.w3.org/2000/svg">
<path d="M33.6399 15H31.3331L34.848 4.81818H37.6222L41.1321 15H38.8253L36.2749 7.14489H36.1953L33.6399 15ZM33.4957 10.9979H38.9446V12.6783H33.4957V10.9979ZM44.5957 4.81818V15H42.4778V4.81818H44.5957ZM46.4523 17.8636V7.36364H48.5403V8.64631H48.6348C48.7276 8.44081 48.8618 8.23201 49.0375 8.01989C49.2165 7.80445 49.4485 7.62547 49.7335 7.48295C50.0219 7.33712 50.3798 7.2642 50.8074 7.2642C51.3642 7.2642 51.8779 7.41004 52.3486 7.7017C52.8192 7.99006 53.1954 8.4259 53.4771 9.00923C53.7589 9.58925 53.8997 10.3168 53.8997 11.1918C53.8997 12.0436 53.7622 12.7628 53.4871 13.3494C53.2153 13.9328 52.8441 14.3752 52.3734 14.6768C51.9061 14.9751 51.3824 15.1243 50.8024 15.1243C50.3914 15.1243 50.0418 15.0563 49.7534 14.9205C49.4684 14.7846 49.2347 14.6139 49.0524 14.4084C48.8701 14.1996 48.7309 13.9891 48.6348 13.777H48.5702V17.8636H46.4523ZM48.5254 11.1818C48.5254 11.6359 48.5884 12.032 48.7144 12.37C48.8403 12.7081 49.0226 12.9716 49.2612 13.1605C49.4999 13.3461 49.7899 13.4389 50.1313 13.4389C50.476 13.4389 50.7676 13.3445 51.0063 13.1555C51.2449 12.9633 51.4255 12.6982 51.5482 12.3601C51.6741 12.0187 51.7371 11.6259 51.7371 11.1818C51.7371 10.741 51.6758 10.3532 51.5531 10.0185C51.4305 9.68371 51.2499 9.42187 51.0112 9.23295C50.7726 9.04403 50.4793 8.94957 50.1313 8.94957C49.7866 8.94957 49.4949 9.04072 49.2563 9.22301C49.0209 9.4053 48.8403 9.66383 48.7144 9.99858C48.5884 10.3333 48.5254 10.7277 48.5254 11.1818ZM57.5896 10.5852V15H55.4717V4.81818H57.5299V8.71094H57.6194C57.7917 8.26018 58.0701 7.9072 58.4546 7.65199C58.8391 7.39347 59.3213 7.2642 59.9013 7.2642C60.4316 7.2642 60.894 7.38021 61.2884 7.61222C61.6861 7.84091 61.9944 8.17069 62.2131 8.60156C62.4352 9.02912 62.5446 9.54119 62.5413 10.1378V15H60.4234V10.5156C60.4267 10.045 60.3074 9.67874 60.0654 9.4169C59.8268 9.15507 59.492 9.02415 59.0611 9.02415C58.7728 9.02415 58.5176 9.08546 58.2955 9.2081C58.0768 9.33073 57.9044 9.50971 57.7785 9.74503C57.6558 9.97704 57.5929 10.2571 57.5896 10.5852ZM66.5455 15.1442C66.0583 15.1442 65.6241 15.0597 65.243 14.8906C64.8618 14.7183 64.5602 14.4647 64.3382 14.13C64.1194 13.7919 64.01 13.371 64.01 12.8672C64.01 12.4429 64.0879 12.0866 64.2437 11.7983C64.3995 11.5099 64.6116 11.2779 64.8801 11.1023C65.1485 10.9266 65.4534 10.794 65.7948 10.7045C66.1395 10.6151 66.5008 10.5521 66.8786 10.5156C67.3228 10.4692 67.6807 10.4261 67.9525 10.3864C68.2243 10.3433 68.4215 10.2803 68.5441 10.1974C68.6668 10.1146 68.7281 9.99195 68.7281 9.82955V9.79972C68.7281 9.48485 68.6286 9.24124 68.4298 9.06889C68.2342 8.89654 67.9558 8.81037 67.5945 8.81037C67.2134 8.81037 66.9101 8.89489 66.6847 9.06392C66.4594 9.22964 66.3102 9.43845 66.2373 9.69034L64.2785 9.53125C64.3779 9.06723 64.5735 8.66619 64.8651 8.32812C65.1568 7.98674 65.533 7.7249 65.9937 7.54261C66.4577 7.35701 66.9946 7.2642 67.6045 7.2642C68.0287 7.2642 68.4347 7.31392 68.8225 7.41335C69.2136 7.51278 69.56 7.6669 69.8616 7.87571C70.1665 8.08452 70.4068 8.35298 70.5825 8.68111C70.7581 9.00592 70.846 9.39536 70.846 9.84943V15H68.8374V13.9411H68.7778C68.6552 14.1797 68.4911 14.3902 68.2856 14.5724C68.0801 14.7514 67.8332 14.8923 67.5448 14.995C67.2565 15.0945 66.9234 15.1442 66.5455 15.1442ZM67.1521 13.6825C67.4636 13.6825 67.7387 13.6212 67.9774 13.4986C68.216 13.3726 68.4033 13.2036 68.5391 12.9915C68.675 12.7794 68.743 12.5391 68.743 12.2706V11.4602C68.6767 11.5033 68.5855 11.5431 68.4695 11.5795C68.3569 11.6127 68.2293 11.6442 68.0867 11.674C67.9442 11.7005 67.8017 11.7254 67.6592 11.7486C67.5167 11.7685 67.3874 11.7867 67.2714 11.8033C67.0228 11.8397 66.8057 11.8977 66.6201 11.9773C66.4345 12.0568 66.2903 12.1645 66.1876 12.3004C66.0848 12.433 66.0335 12.5987 66.0335 12.7976C66.0335 13.0859 66.1379 13.3063 66.3467 13.4588C66.5588 13.608 66.8273 13.6825 67.1521 13.6825ZM83.1686 7.36364L80.4989 15H78.1125L75.4428 7.36364H77.68L79.2659 12.8274H79.3455L80.9264 7.36364H83.1686ZM87.6465 15.1491C86.8609 15.1491 86.1848 14.9901 85.618 14.6719C85.0546 14.3504 84.6204 13.8963 84.3155 13.3097C84.0106 12.7197 83.8581 12.022 83.8581 11.2166C83.8581 10.4311 84.0106 9.74171 84.3155 9.14844C84.6204 8.55516 85.0496 8.0928 85.6031 7.76136C86.1599 7.42992 86.8129 7.2642 87.5619 7.2642C88.0657 7.2642 88.5347 7.34541 88.9689 7.50781C89.4064 7.6669 89.7876 7.9072 90.1124 8.22869C90.4405 8.55019 90.6957 8.95455 90.878 9.44176C91.0603 9.92566 91.1514 10.4924 91.1514 11.142V11.7237H84.7033V10.4112H89.1578C89.1578 10.1063 89.0915 9.83617 88.959 9.60085C88.8264 9.36553 88.6424 9.18158 88.4071 9.04901C88.1751 8.91312 87.905 8.84517 87.5967 8.84517C87.2752 8.84517 86.9902 8.91974 86.7416 9.06889C86.4964 9.21473 86.3041 9.41193 86.1649 9.66051C86.0257 9.90578 85.9545 10.1792 85.9511 10.4808V11.7287C85.9511 12.1065 86.0207 12.433 86.1599 12.7081C86.3025 12.9832 86.503 13.1953 86.7615 13.3445C87.02 13.4936 87.3266 13.5682 87.6813 13.5682C87.9166 13.5682 88.132 13.535 88.3276 13.4688C88.5231 13.4025 88.6905 13.303 88.8297 13.1705C88.9689 13.0379 89.075 12.8755 89.1479 12.6832L91.1067 12.8125C91.0073 13.2831 90.8034 13.6941 90.4952 14.0455C90.1903 14.3935 89.7958 14.6652 89.3119 14.8608C88.8314 15.053 88.2762 15.1491 87.6465 15.1491ZM92.6935 15V7.36364H94.7468V8.69602H94.8263C94.9655 8.22206 95.1992 7.86411 95.5273 7.62216C95.8555 7.37689 96.2333 7.25426 96.6609 7.25426C96.7669 7.25426 96.8813 7.26089 97.0039 7.27415C97.1265 7.28741 97.2342 7.30563 97.3271 7.32883V9.2081C97.2276 9.17827 97.0901 9.15175 96.9144 9.12855C96.7387 9.10535 96.578 9.09375 96.4322 9.09375C96.1206 9.09375 95.8422 9.1617 95.5969 9.29759C95.355 9.43016 95.1628 9.61577 95.0202 9.8544C94.881 10.093 94.8114 10.3681 94.8114 10.6797V15H92.6935ZM104.936 9.54119L102.997 9.66051C102.964 9.49479 102.892 9.34564 102.783 9.21307C102.674 9.07718 102.529 8.96946 102.351 8.88991C102.175 8.80705 101.964 8.76562 101.719 8.76562C101.391 8.76562 101.114 8.83523 100.889 8.97443C100.663 9.11032 100.551 9.29261 100.551 9.52131C100.551 9.7036 100.624 9.85772 100.77 9.98366C100.915 10.1096 101.166 10.2107 101.52 10.2869L102.902 10.5653C103.645 10.7178 104.198 10.9631 104.563 11.3011C104.927 11.6392 105.11 12.0833 105.11 12.6335C105.11 13.134 104.962 13.5732 104.667 13.951C104.376 14.3288 103.975 14.6238 103.464 14.8359C102.957 15.0447 102.372 15.1491 101.709 15.1491C100.698 15.1491 99.8929 14.9387 99.293 14.5178C98.6964 14.0935 98.3467 13.5168 98.244 12.7876L100.327 12.6783C100.39 12.9865 100.543 13.2218 100.784 13.3842C101.026 13.5433 101.336 13.6229 101.714 13.6229C102.085 13.6229 102.384 13.5516 102.609 13.4091C102.838 13.2633 102.954 13.076 102.957 12.8473C102.954 12.6551 102.873 12.4976 102.713 12.375C102.554 12.2491 102.309 12.1529 101.978 12.0866L100.655 11.8232C99.9095 11.674 99.3543 11.4155 98.9897 11.0476C98.6284 10.6797 98.4478 10.2107 98.4478 9.64062C98.4478 9.15009 98.5804 8.72751 98.8455 8.37287C99.114 8.01823 99.4902 7.74479 99.9741 7.55256C100.461 7.36032 101.031 7.2642 101.684 7.2642C102.649 7.2642 103.408 7.46804 103.961 7.87571C104.518 8.28338 104.843 8.83854 104.936 9.54119ZM106.603 15V7.36364H108.721V15H106.603ZM107.667 6.37926C107.352 6.37926 107.082 6.27486 106.857 6.06605C106.635 5.85393 106.524 5.60038 106.524 5.3054C106.524 5.01373 106.635 4.76349 106.857 4.55469C107.082 4.34257 107.352 4.23651 107.667 4.23651C107.982 4.23651 108.251 4.34257 108.473 4.55469C108.698 4.76349 108.811 5.01373 108.811 5.3054C108.811 5.60038 108.698 5.85393 108.473 6.06605C108.251 6.27486 107.982 6.37926 107.667 6.37926ZM114.028 15.1491C113.256 15.1491 112.588 14.9851 112.025 14.657C111.464 14.3255 111.032 13.8648 110.727 13.2749C110.422 12.6816 110.27 11.9938 110.27 11.2116C110.27 10.4228 110.422 9.73343 110.727 9.14347C111.032 8.55019 111.464 8.08949 112.025 7.76136C112.588 7.42992 113.256 7.2642 114.028 7.2642C114.8 7.2642 115.467 7.42992 116.027 7.76136C116.59 8.08949 117.024 8.55019 117.329 9.14347C117.634 9.73343 117.787 10.4228 117.787 11.2116C117.787 11.9938 117.634 12.6816 117.329 13.2749C117.024 13.8648 116.59 14.3255 116.027 14.657C115.467 14.9851 114.8 15.1491 114.028 15.1491ZM114.038 13.5085C114.389 13.5085 114.683 13.4091 114.918 13.2102C115.153 13.008 115.331 12.733 115.45 12.3849C115.573 12.0369 115.634 11.6409 115.634 11.1967C115.634 10.7526 115.573 10.3565 115.45 10.0085C115.331 9.66051 115.153 9.38542 114.918 9.18324C114.683 8.98106 114.389 8.87997 114.038 8.87997C113.683 8.87997 113.385 8.98106 113.143 9.18324C112.905 9.38542 112.724 9.66051 112.601 10.0085C112.482 10.3565 112.422 10.7526 112.422 11.1967C112.422 11.6409 112.482 12.0369 112.601 12.3849C112.724 12.733 112.905 13.008 113.143 13.2102C113.385 13.4091 113.683 13.5085 114.038 13.5085ZM121.442 10.5852V15H119.324V7.36364H121.342V8.71094H121.432C121.601 8.26681 121.884 7.91548 122.282 7.65696C122.68 7.39512 123.162 7.2642 123.729 7.2642C124.259 7.2642 124.721 7.38021 125.116 7.61222C125.51 7.84422 125.817 8.17566 126.035 8.60653C126.254 9.03409 126.364 9.54451 126.364 10.1378V15H124.246V10.5156C124.249 10.0483 124.13 9.68371 123.888 9.42188C123.646 9.15672 123.313 9.02415 122.888 9.02415C122.603 9.02415 122.351 9.08546 122.133 9.2081C121.917 9.33073 121.748 9.50971 121.626 9.74503C121.506 9.97704 121.445 10.2571 121.442 10.5852ZM133.771 15.1442C133.283 15.1442 132.849 15.0597 132.468 14.8906C132.087 14.7183 131.785 14.4647 131.563 14.13C131.344 13.7919 131.235 13.371 131.235 12.8672C131.235 12.4429 131.313 12.0866 131.469 11.7983C131.624 11.5099 131.837 11.2779 132.105 11.1023C132.374 10.9266 132.678 10.794 133.02 10.7045C133.365 10.6151 133.726 10.5521 134.104 10.5156C134.548 10.4692 134.906 10.4261 135.177 10.3864C135.449 10.3433 135.646 10.2803 135.769 10.1974C135.892 10.1146 135.953 9.99195 135.953 9.82955V9.79972C135.953 9.48485 135.854 9.24124 135.655 9.06889C135.459 8.89654 135.181 8.81037 134.82 8.81037C134.438 8.81037 134.135 8.89489 133.91 9.06392C133.684 9.22964 133.535 9.43845 133.462 9.69034L131.503 9.53125C131.603 9.06723 131.798 8.66619 132.09 8.32812C132.382 7.98674 132.758 7.7249 133.219 7.54261C133.683 7.35701 134.22 7.2642 134.829 7.2642C135.254 7.2642 135.66 7.31392 136.048 7.41335C136.439 7.51278 136.785 7.6669 137.087 7.87571C137.392 8.08452 137.632 8.35298 137.807 8.68111C137.983 9.00592 138.071 9.39536 138.071 9.84943V15H136.062V13.9411H136.003C135.88 14.1797 135.716 14.3902 135.511 14.5724C135.305 14.7514 135.058 14.8923 134.77 14.995C134.481 15.0945 134.148 15.1442 133.771 15.1442ZM134.377 13.6825C134.689 13.6825 134.964 13.6212 135.202 13.4986C135.441 13.3726 135.628 13.2036 135.764 12.9915C135.9 12.7794 135.968 12.5391 135.968 12.2706V11.4602C135.902 11.5033 135.811 11.5431 135.695 11.5795C135.582 11.6127 135.454 11.6442 135.312 11.674C135.169 11.7005 135.027 11.7254 134.884 11.7486C134.742 11.7685 134.612 11.7867 134.496 11.8033C134.248 11.8397 134.031 11.8977 133.845 11.9773C133.66 12.0568 133.515 12.1645 133.413 12.3004C133.31 12.433 133.258 12.5987 133.258 12.7976C133.258 13.0859 133.363 13.3063 133.572 13.4588C133.784 13.608 134.052 13.6825 134.377 13.6825ZM146.72 7.36364L144.05 15H141.664L138.994 7.36364H141.231L142.817 12.8274H142.897L144.478 7.36364H146.72ZM149.936 15.1442C149.449 15.1442 149.015 15.0597 148.634 14.8906C148.253 14.7183 147.951 14.4647 147.729 14.13C147.51 13.7919 147.401 13.371 147.401 12.8672C147.401 12.4429 147.479 12.0866 147.634 11.7983C147.79 11.5099 148.002 11.2779 148.271 11.1023C148.539 10.9266 148.844 10.794 149.186 10.7045C149.53 10.6151 149.891 10.5521 150.269 10.5156C150.713 10.4692 151.071 10.4261 151.343 10.3864C151.615 10.3433 151.812 10.2803 151.935 10.1974C152.057 10.1146 152.119 9.99195 152.119 9.82955V9.79972C152.119 9.48485 152.019 9.24124 151.82 9.06889C151.625 8.89654 151.347 8.81037 150.985 8.81037C150.604 8.81037 150.301 8.89489 150.075 9.06392C149.85 9.22964 149.701 9.43845 149.628 9.69034L147.669 9.53125C147.769 9.06723 147.964 8.66619 148.256 8.32812C148.548 7.98674 148.924 7.7249 149.384 7.54261C149.848 7.35701 150.385 7.2642 150.995 7.2642C151.419 7.2642 151.825 7.31392 152.213 7.41335C152.604 7.51278 152.951 7.6669 153.252 7.87571C153.557 8.08452 153.798 8.35298 153.973 8.68111C154.149 9.00592 154.237 9.39536 154.237 9.84943V15H152.228V13.9411H152.168C152.046 14.1797 151.882 14.3902 151.676 14.5724C151.471 14.7514 151.224 14.8923 150.936 14.995C150.647 15.0945 150.314 15.1442 149.936 15.1442ZM150.543 13.6825C150.854 13.6825 151.129 13.6212 151.368 13.4986C151.607 13.3726 151.794 13.2036 151.93 12.9915C152.066 12.7794 152.134 12.5391 152.134 12.2706V11.4602C152.067 11.5033 151.976 11.5431 151.86 11.5795C151.748 11.6127 151.62 11.6442 151.477 11.674C151.335 11.7005 151.192 11.7254 151.05 11.7486C150.907 11.7685 150.778 11.7867 150.662 11.8033C150.414 11.8397 150.196 11.8977 150.011 11.9773C149.825 12.0568 149.681 12.1645 149.578 12.3004C149.476 12.433 149.424 12.5987 149.424 12.7976C149.424 13.0859 149.529 13.3063 149.737 13.4588C149.949 13.608 150.218 13.6825 150.543 13.6825ZM156.04 15V7.36364H158.158V15H156.04ZM157.104 6.37926C156.789 6.37926 156.519 6.27486 156.293 6.06605C156.071 5.85393 155.96 5.60038 155.96 5.3054C155.96 5.01373 156.071 4.76349 156.293 4.55469C156.519 4.34257 156.789 4.23651 157.104 4.23651C157.419 4.23651 157.687 4.34257 157.909 4.55469C158.134 4.76349 158.247 5.01373 158.247 5.3054C158.247 5.60038 158.134 5.85393 157.909 6.06605C157.687 6.27486 157.419 6.37926 157.104 6.37926ZM162.132 4.81818V15H160.014V4.81818H162.132ZM166.166 15.1442C165.679 15.1442 165.245 15.0597 164.864 14.8906C164.483 14.7183 164.181 14.4647 163.959 14.13C163.74 13.7919 163.631 13.371 163.631 12.8672C163.631 12.4429 163.709 12.0866 163.864 11.7983C164.02 11.5099 164.232 11.2779 164.501 11.1023C164.769 10.9266 165.074 10.794 165.416 10.7045C165.76 10.6151 166.121 10.5521 166.499 10.5156C166.943 10.4692 167.301 10.4261 167.573 10.3864C167.845 10.3433 168.042 10.2803 168.165 10.1974C168.287 10.1146 168.349 9.99195 168.349 9.82955V9.79972C168.349 9.48485 168.249 9.24124 168.05 9.06889C167.855 8.89654 167.577 8.81037 167.215 8.81037C166.834 8.81037 166.531 8.89489 166.305 9.06392C166.08 9.22964 165.931 9.43845 165.858 9.69034L163.899 9.53125C163.999 9.06723 164.194 8.66619 164.486 8.32812C164.778 7.98674 165.154 7.7249 165.614 7.54261C166.078 7.35701 166.615 7.2642 167.225 7.2642C167.649 7.2642 168.055 7.31392 168.443 7.41335C168.834 7.51278 169.181 7.6669 169.482 7.87571C169.787 8.08452 170.028 8.35298 170.203 8.68111C170.379 9.00592 170.467 9.39536 170.467 9.84943V15H168.458V13.9411H168.398C168.276 14.1797 168.112 14.3902 167.906 14.5724C167.701 14.7514 167.454 14.8923 167.166 14.995C166.877 15.0945 166.544 15.1442 166.166 15.1442ZM166.773 13.6825C167.084 13.6825 167.359 13.6212 167.598 13.4986C167.837 13.3726 168.024 13.2036 168.16 12.9915C168.296 12.7794 168.364 12.5391 168.364 12.2706V11.4602C168.297 11.5033 168.206 11.5431 168.09 11.5795C167.978 11.6127 167.85 11.6442 167.707 11.674C167.565 11.7005 167.422 11.7254 167.28 11.7486C167.137 11.7685 167.008 11.7867 166.892 11.8033C166.644 11.8397 166.426 11.8977 166.241 11.9773C166.055 12.0568 165.911 12.1645 165.808 12.3004C165.706 12.433 165.654 12.5987 165.654 12.7976C165.654 13.0859 165.759 13.3063 165.967 13.4588C166.179 13.608 166.448 13.6825 166.773 13.6825ZM172.31 15V4.81818H174.427V8.64631H174.492C174.585 8.44081 174.719 8.23201 174.895 8.01989C175.074 7.80445 175.306 7.62547 175.591 7.48295C175.879 7.33712 176.237 7.2642 176.665 7.2642C177.221 7.2642 177.735 7.41004 178.206 7.7017C178.677 7.99006 179.053 8.4259 179.334 9.00923C179.616 9.58925 179.757 10.3168 179.757 11.1918C179.757 12.0436 179.619 12.7628 179.344 13.3494C179.073 13.9328 178.701 14.3752 178.231 14.6768C177.763 14.9751 177.24 15.1243 176.66 15.1243C176.249 15.1243 175.899 15.0563 175.611 14.9205C175.326 14.7846 175.092 14.6139 174.91 14.4084C174.727 14.1996 174.588 13.9891 174.492 13.777H174.398V15H172.31ZM174.383 11.1818C174.383 11.6359 174.446 12.032 174.572 12.37C174.698 12.7081 174.88 12.9716 175.118 13.1605C175.357 13.3461 175.647 13.4389 175.989 13.4389C176.333 13.4389 176.625 13.3445 176.864 13.1555C177.102 12.9633 177.283 12.6982 177.405 12.3601C177.531 12.0187 177.594 11.6259 177.594 11.1818C177.594 10.741 177.533 10.3532 177.41 10.0185C177.288 9.68371 177.107 9.42187 176.868 9.23295C176.63 9.04403 176.337 8.94957 175.989 8.94957C175.644 8.94957 175.352 9.04072 175.114 9.22301C174.878 9.4053 174.698 9.66383 174.572 9.99858C174.446 10.3333 174.383 10.7277 174.383 11.1818ZM183.448 4.81818V15H181.33V4.81818H183.448ZM188.785 15.1491C187.999 15.1491 187.323 14.9901 186.756 14.6719C186.193 14.3504 185.759 13.8963 185.454 13.3097C185.149 12.7197 184.996 12.022 184.996 11.2166C184.996 10.4311 185.149 9.74171 185.454 9.14844C185.759 8.55516 186.188 8.0928 186.741 7.76136C187.298 7.42992 187.951 7.2642 188.7 7.2642C189.204 7.2642 189.673 7.34541 190.107 7.50781C190.545 7.6669 190.926 7.9072 191.251 8.22869C191.579 8.55019 191.834 8.95455 192.016 9.44176C192.199 9.92566 192.29 10.4924 192.29 11.142V11.7237H185.842V10.4112H190.296C190.296 10.1063 190.23 9.83617 190.097 9.60085C189.965 9.36553 189.781 9.18158 189.545 9.04901C189.313 8.91312 189.043 8.84517 188.735 8.84517C188.414 8.84517 188.128 8.91974 187.88 9.06889C187.635 9.21473 187.442 9.41193 187.303 9.66051C187.164 9.90578 187.093 10.1792 187.089 10.4808V11.7287C187.089 12.1065 187.159 12.433 187.298 12.7081C187.441 12.9832 187.641 13.1953 187.9 13.3445C188.158 13.4936 188.465 13.5682 188.82 13.5682C189.055 13.5682 189.27 13.535 189.466 13.4688C189.661 13.4025 189.829 13.303 189.968 13.1705C190.107 13.0379 190.213 12.8755 190.286 12.6832L192.245 12.8125C192.146 13.2831 191.942 13.6941 191.633 14.0455C191.329 14.3935 190.934 14.6652 190.45 14.8608C189.97 15.053 189.414 15.1491 188.785 15.1491ZM201.339 7.36364V8.95455H196.626V7.36364H201.339ZM197.704 15V6.81179C197.704 6.25829 197.812 5.79924 198.027 5.43466C198.246 5.07008 198.545 4.79664 198.922 4.61435C199.3 4.43205 199.729 4.34091 200.21 4.34091C200.535 4.34091 200.831 4.36577 201.1 4.41548C201.372 4.4652 201.574 4.50994 201.706 4.54972L201.329 6.14062C201.246 6.11411 201.143 6.08925 201.02 6.06605C200.901 6.04285 200.778 6.03125 200.652 6.03125C200.341 6.03125 200.124 6.10417 200.001 6.25C199.879 6.39252 199.817 6.59304 199.817 6.85156V15H197.704ZM205.969 15.1491C205.197 15.1491 204.529 14.9851 203.966 14.657C203.406 14.3255 202.973 13.8648 202.668 13.2749C202.363 12.6816 202.211 11.9938 202.211 11.2116C202.211 10.4228 202.363 9.73343 202.668 9.14347C202.973 8.55019 203.406 8.08949 203.966 7.76136C204.529 7.42992 205.197 7.2642 205.969 7.2642C206.742 7.2642 207.408 7.42992 207.968 7.76136C208.531 8.08949 208.965 8.55019 209.27 9.14347C209.575 9.73343 209.728 10.4228 209.728 11.2116C209.728 11.9938 209.575 12.6816 209.27 13.2749C208.965 13.8648 208.531 14.3255 207.968 14.657C207.408 14.9851 206.742 15.1491 205.969 15.1491ZM205.979 13.5085C206.331 13.5085 206.624 13.4091 206.859 13.2102C207.095 13.008 207.272 12.733 207.391 12.3849C207.514 12.0369 207.575 11.6409 207.575 11.1967C207.575 10.7526 207.514 10.3565 207.391 10.0085C207.272 9.66051 207.095 9.38542 206.859 9.18324C206.624 8.98106 206.331 8.87997 205.979 8.87997C205.625 8.87997 205.326 8.98106 205.084 9.18324C204.846 9.38542 204.665 9.66051 204.542 10.0085C204.423 10.3565 204.363 10.7526 204.363 11.1967C204.363 11.6409 204.423 12.0369 204.542 12.3849C204.665 12.733 204.846 13.008 205.084 13.2102C205.326 13.4091 205.625 13.5085 205.979 13.5085ZM211.265 15V7.36364H213.318V8.69602H213.398C213.537 8.22206 213.771 7.86411 214.099 7.62216C214.427 7.37689 214.805 7.25426 215.232 7.25426C215.338 7.25426 215.453 7.26089 215.575 7.27415C215.698 7.28741 215.806 7.30563 215.898 7.32883V9.2081C215.799 9.17827 215.661 9.15175 215.486 9.12855C215.31 9.10535 215.149 9.09375 215.004 9.09375C214.692 9.09375 214.414 9.1617 214.168 9.29759C213.926 9.43016 213.734 9.61577 213.592 9.8544C213.452 10.093 213.383 10.3681 213.383 10.6797V15H211.265ZM224.034 15.1491C223.248 15.1491 222.572 14.9901 222.005 14.6719C221.442 14.3504 221.008 13.8963 220.703 13.3097C220.398 12.7197 220.245 12.022 220.245 11.2166C220.245 10.4311 220.398 9.74171 220.703 9.14844C221.008 8.55516 221.437 8.0928 221.99 7.76136C222.547 7.42992 223.2 7.2642 223.949 7.2642C224.453 7.2642 224.922 7.34541 225.356 7.50781C225.794 7.6669 226.175 7.9072 226.5 8.22869C226.828 8.55019 227.083 8.95455 227.265 9.44176C227.448 9.92566 227.539 10.4924 227.539 11.142V11.7237H221.091V10.4112H225.545C225.545 10.1063 225.479 9.83617 225.346 9.60085C225.214 9.36553 225.03 9.18158 224.794 9.04901C224.562 8.91312 224.292 8.84517 223.984 8.84517C223.663 8.84517 223.378 8.91974 223.129 9.06889C222.884 9.21473 222.691 9.41193 222.552 9.66051C222.413 9.90578 222.342 10.1792 222.338 10.4808V11.7287C222.338 12.1065 222.408 12.433 222.547 12.7081C222.69 12.9832 222.89 13.1953 223.149 13.3445C223.407 13.4936 223.714 13.5682 224.069 13.5682C224.304 13.5682 224.519 13.535 224.715 13.4688C224.91 13.4025 225.078 13.303 225.217 13.1705C225.356 13.0379 225.462 12.8755 225.535 12.6832L227.494 12.8125C227.395 13.2831 227.191 13.6941 226.883 14.0455C226.578 14.3935 226.183 14.6652 225.699 14.8608C225.219 15.053 224.664 15.1491 224.034 15.1491ZM231.258 15.1442C230.771 15.1442 230.337 15.0597 229.956 14.8906C229.575 14.7183 229.273 14.4647 229.051 14.13C228.832 13.7919 228.723 13.371 228.723 12.8672C228.723 12.4429 228.801 12.0866 228.957 11.7983C229.112 11.5099 229.324 11.2779 229.593 11.1023C229.861 10.9266 230.166 10.794 230.508 10.7045C230.852 10.6151 231.214 10.5521 231.592 10.5156C232.036 10.4692 232.394 10.4261 232.665 10.3864C232.937 10.3433 233.134 10.2803 233.257 10.1974C233.38 10.1146 233.441 9.99195 233.441 9.82955V9.79972C233.441 9.48485 233.342 9.24124 233.143 9.06889C232.947 8.89654 232.669 8.81037 232.307 8.81037C231.926 8.81037 231.623 8.89489 231.398 9.06392C231.172 9.22964 231.023 9.43845 230.95 9.69034L228.991 9.53125C229.091 9.06723 229.286 8.66619 229.578 8.32812C229.87 7.98674 230.246 7.7249 230.707 7.54261C231.171 7.35701 231.708 7.2642 232.317 7.2642C232.742 7.2642 233.148 7.31392 233.535 7.41335C233.927 7.51278 234.273 7.6669 234.574 7.87571C234.879 8.08452 235.12 8.35298 235.295 8.68111C235.471 9.00592 235.559 9.39536 235.559 9.84943V15H233.55V13.9411H233.491C233.368 14.1797 233.204 14.3902 232.998 14.5724C232.793 14.7514 232.546 14.8923 232.258 14.995C231.969 15.0945 231.636 15.1442 231.258 15.1442ZM231.865 13.6825C232.177 13.6825 232.452 13.6212 232.69 13.4986C232.929 13.3726 233.116 13.2036 233.252 12.9915C233.388 12.7794 233.456 12.5391 233.456 12.2706V11.4602C233.39 11.5033 233.298 11.5431 233.182 11.5795C233.07 11.6127 232.942 11.6442 232.8 11.674C232.657 11.7005 232.515 11.7254 232.372 11.7486C232.23 11.7685 232.1 11.7867 231.984 11.8033C231.736 11.8397 231.519 11.8977 231.333 11.9773C231.147 12.0568 231.003 12.1645 230.9 12.3004C230.798 12.433 230.746 12.5987 230.746 12.7976C230.746 13.0859 230.851 13.3063 231.06 13.4588C231.272 13.608 231.54 13.6825 231.865 13.6825ZM237.362 15V7.36364H239.415V8.69602H239.495C239.634 8.22206 239.868 7.86411 240.196 7.62216C240.524 7.37689 240.902 7.25426 241.329 7.25426C241.435 7.25426 241.55 7.26089 241.672 7.27415C241.795 7.28741 241.903 7.30563 241.995 7.32883V9.2081C241.896 9.17827 241.759 9.15175 241.583 9.12855C241.407 9.10535 241.246 9.09375 241.101 9.09375C240.789 9.09375 240.511 9.1617 240.265 9.29759C240.023 9.43016 239.831 9.61577 239.689 9.8544C239.549 10.093 239.48 10.3681 239.48 10.6797V15H237.362ZM245.368 4.81818V15H243.25V4.81818H245.368ZM248.532 17.8636C248.264 17.8636 248.012 17.8421 247.777 17.799C247.545 17.7592 247.353 17.7079 247.2 17.6449L247.677 16.0639C247.926 16.1402 248.15 16.1816 248.349 16.1882C248.551 16.1948 248.725 16.1484 248.871 16.049C249.02 15.9496 249.141 15.7805 249.233 15.5419L249.358 15.2188L246.618 7.36364H248.846L250.427 12.9716H250.506L252.102 7.36364H254.344L251.376 15.8253C251.234 16.2363 251.04 16.5942 250.795 16.8991C250.553 17.2074 250.246 17.4444 249.875 17.6101C249.504 17.7791 249.056 17.8636 248.532 17.8636ZM261.166 15.1442C260.679 15.1442 260.244 15.0597 259.863 14.8906C259.482 14.7183 259.181 14.4647 258.958 14.13C258.74 13.7919 258.63 13.371 258.63 12.8672C258.63 12.4429 258.708 12.0866 258.864 11.7983C259.02 11.5099 259.232 11.2779 259.5 11.1023C259.769 10.9266 260.074 10.794 260.415 10.7045C260.76 10.6151 261.121 10.5521 261.499 10.5156C261.943 10.4692 262.301 10.4261 262.573 10.3864C262.845 10.3433 263.042 10.2803 263.164 10.1974C263.287 10.1146 263.348 9.99195 263.348 9.82955V9.79972C263.348 9.48485 263.249 9.24124 263.05 9.06889C262.855 8.89654 262.576 8.81037 262.215 8.81037C261.834 8.81037 261.53 8.89489 261.305 9.06392C261.08 9.22964 260.931 9.43845 260.858 9.69034L258.899 9.53125C258.998 9.06723 259.194 8.66619 259.485 8.32812C259.777 7.98674 260.153 7.7249 260.614 7.54261C261.078 7.35701 261.615 7.2642 262.225 7.2642C262.649 7.2642 263.055 7.31392 263.443 7.41335C263.834 7.51278 264.18 7.6669 264.482 7.87571C264.787 8.08452 265.027 8.35298 265.203 8.68111C265.378 9.00592 265.466 9.39536 265.466 9.84943V15H263.458V13.9411H263.398C263.275 14.1797 263.111 14.3902 262.906 14.5724C262.7 14.7514 262.453 14.8923 262.165 14.995C261.877 15.0945 261.544 15.1442 261.166 15.1442ZM261.772 13.6825C262.084 13.6825 262.359 13.6212 262.598 13.4986C262.836 13.3726 263.024 13.2036 263.159 12.9915C263.295 12.7794 263.363 12.5391 263.363 12.2706V11.4602C263.297 11.5033 263.206 11.5431 263.09 11.5795C262.977 11.6127 262.85 11.6442 262.707 11.674C262.565 11.7005 262.422 11.7254 262.279 11.7486C262.137 11.7685 262.008 11.7867 261.892 11.8033C261.643 11.8397 261.426 11.8977 261.24 11.9773C261.055 12.0568 260.911 12.1645 260.808 12.3004C260.705 12.433 260.654 12.5987 260.654 12.7976C260.654 13.0859 260.758 13.3063 260.967 13.4588C261.179 13.608 261.448 13.6825 261.772 13.6825ZM270.083 15.1243C269.503 15.1243 268.978 14.9751 268.507 14.6768C268.04 14.3752 267.669 13.9328 267.394 13.3494C267.122 12.7628 266.986 12.0436 266.986 11.1918C266.986 10.3168 267.127 9.58925 267.409 9.00923C267.69 8.4259 268.065 7.99006 268.532 7.7017C269.003 7.41004 269.518 7.2642 270.078 7.2642C270.506 7.2642 270.862 7.33712 271.147 7.48295C271.436 7.62547 271.668 7.80445 271.843 8.01989C272.022 8.23201 272.158 8.44081 272.251 8.64631H272.316V4.81818H274.428V15H272.34V13.777H272.251C272.151 13.9891 272.011 14.1996 271.828 14.4084C271.649 14.6139 271.416 14.7846 271.127 14.9205C270.842 15.0563 270.494 15.1243 270.083 15.1243ZM270.754 13.4389C271.096 13.4389 271.384 13.3461 271.62 13.1605C271.858 12.9716 272.04 12.7081 272.166 12.37C272.296 12.032 272.36 11.6359 272.36 11.1818C272.36 10.7277 272.297 10.3333 272.171 9.99858C272.045 9.66383 271.863 9.4053 271.625 9.22301C271.386 9.04072 271.096 8.94957 270.754 8.94957C270.406 8.94957 270.113 9.04403 269.875 9.23295C269.636 9.42187 269.455 9.68371 269.333 10.0185C269.21 10.3532 269.149 10.741 269.149 11.1818C269.149 11.6259 269.21 12.0187 269.333 12.3601C269.459 12.6982 269.639 12.9633 269.875 13.1555C270.113 13.3445 270.406 13.4389 270.754 13.4389ZM279.78 15.1491C279.008 15.1491 278.34 14.9851 277.777 14.657C277.216 14.3255 276.784 13.8648 276.479 13.2749C276.174 12.6816 276.022 11.9938 276.022 11.2116C276.022 10.4228 276.174 9.73343 276.479 9.14347C276.784 8.55019 277.216 8.08949 277.777 7.76136C278.34 7.42992 279.008 7.2642 279.78 7.2642C280.552 7.2642 281.219 7.42992 281.779 7.76136C282.342 8.08949 282.776 8.55019 283.081 9.14347C283.386 9.73343 283.539 10.4228 283.539 11.2116C283.539 11.9938 283.386 12.6816 283.081 13.2749C282.776 13.8648 282.342 14.3255 281.779 14.657C281.219 14.9851 280.552 15.1491 279.78 15.1491ZM279.79 13.5085C280.141 13.5085 280.435 13.4091 280.67 13.2102C280.905 13.008 281.083 12.733 281.202 12.3849C281.325 12.0369 281.386 11.6409 281.386 11.1967C281.386 10.7526 281.325 10.3565 281.202 10.0085C281.083 9.66051 280.905 9.38542 280.67 9.18324C280.435 8.98106 280.141 8.87997 279.79 8.87997C279.435 8.87997 279.137 8.98106 278.895 9.18324C278.656 9.38542 278.476 9.66051 278.353 10.0085C278.234 10.3565 278.174 10.7526 278.174 11.1967C278.174 11.6409 278.234 12.0369 278.353 12.3849C278.476 12.733 278.656 13.008 278.895 13.2102C279.137 13.4091 279.435 13.5085 279.79 13.5085ZM285.076 17.8636V7.36364H287.164V8.64631H287.258C287.351 8.44081 287.485 8.23201 287.661 8.01989C287.84 7.80445 288.072 7.62547 288.357 7.48295C288.645 7.33712 289.003 7.2642 289.431 7.2642C289.988 7.2642 290.501 7.41004 290.972 7.7017C291.443 7.99006 291.819 8.4259 292.101 9.00923C292.382 9.58925 292.523 10.3168 292.523 11.1918C292.523 12.0436 292.386 12.7628 292.111 13.3494C291.839 13.9328 291.468 14.3752 290.997 14.6768C290.53 14.9751 290.006 15.1243 289.426 15.1243C289.015 15.1243 288.665 15.0563 288.377 14.9205C288.092 14.7846 287.858 14.6139 287.676 14.4084C287.494 14.1996 287.354 13.9891 287.258 13.777H287.194V17.8636H285.076ZM287.149 11.1818C287.149 11.6359 287.212 12.032 287.338 12.37C287.464 12.7081 287.646 12.9716 287.885 13.1605C288.123 13.3461 288.413 13.4389 288.755 13.4389C289.099 13.4389 289.391 13.3445 289.63 13.1555C289.868 12.9633 290.049 12.6982 290.172 12.3601C290.298 12.0187 290.361 11.6259 290.361 11.1818C290.361 10.741 290.299 10.3532 290.177 10.0185C290.054 9.68371 289.873 9.42187 289.635 9.23295C289.396 9.04403 289.103 8.94957 288.755 8.94957C288.41 8.94957 288.118 9.04072 287.88 9.22301C287.644 9.4053 287.464 9.66383 287.338 9.99858C287.212 10.3333 287.149 10.7277 287.149 11.1818ZM298.157 7.36364V8.95455H293.558V7.36364H298.157ZM294.602 5.53409H296.72V12.6534C296.72 12.849 296.75 13.0014 296.81 13.1108C296.869 13.2169 296.952 13.2914 297.058 13.3345C297.168 13.3776 297.293 13.3991 297.436 13.3991C297.535 13.3991 297.635 13.3909 297.734 13.3743C297.834 13.3544 297.91 13.3395 297.963 13.3295L298.296 14.9055C298.19 14.9387 298.041 14.9768 297.849 15.0199C297.656 15.0663 297.423 15.0945 297.148 15.1044C296.637 15.1243 296.19 15.0563 295.805 14.9006C295.424 14.7448 295.128 14.5028 294.915 14.1747C294.703 13.8466 294.599 13.4323 294.602 12.9318V5.53409ZM303.095 15.1491C302.309 15.1491 301.633 14.9901 301.066 14.6719C300.503 14.3504 300.069 13.8963 299.764 13.3097C299.459 12.7197 299.306 12.022 299.306 11.2166C299.306 10.4311 299.459 9.74171 299.764 9.14844C300.069 8.55516 300.498 8.0928 301.051 7.76136C301.608 7.42992 302.261 7.2642 303.01 7.2642C303.514 7.2642 303.983 7.34541 304.417 7.50781C304.855 7.6669 305.236 7.9072 305.56 8.22869C305.889 8.55019 306.144 8.95455 306.326 9.44176C306.508 9.92566 306.6 10.4924 306.6 11.142V11.7237H300.151V10.4112H304.606C304.606 10.1063 304.54 9.83617 304.407 9.60085C304.274 9.36553 304.091 9.18158 303.855 9.04901C303.623 8.91312 303.353 8.84517 303.045 8.84517C302.723 8.84517 302.438 8.91974 302.19 9.06889C301.944 9.21473 301.752 9.41193 301.613 9.66051C301.474 9.90578 301.403 10.1792 301.399 10.4808V11.7287C301.399 12.1065 301.469 12.433 301.608 12.7081C301.751 12.9832 301.951 13.1953 302.21 13.3445C302.468 13.4936 302.775 13.5682 303.129 13.5682C303.365 13.5682 303.58 13.535 303.776 13.4688C303.971 13.4025 304.139 13.303 304.278 13.1705C304.417 13.0379 304.523 12.8755 304.596 12.6832L306.555 12.8125C306.455 13.2831 306.252 13.6941 305.943 14.0455C305.638 14.3935 305.244 14.6652 304.76 14.8608C304.279 15.053 303.724 15.1491 303.095 15.1491ZM308.142 15V7.36364H310.195V8.69602H310.274C310.414 8.22206 310.647 7.86411 310.975 7.62216C311.304 7.37689 311.681 7.25426 312.109 7.25426C312.215 7.25426 312.329 7.26089 312.452 7.27415C312.575 7.28741 312.682 7.30563 312.775 7.32883V9.2081C312.676 9.17827 312.538 9.15175 312.363 9.12855C312.187 9.10535 312.026 9.09375 311.88 9.09375C311.569 9.09375 311.29 9.1617 311.045 9.29759C310.803 9.43016 310.611 9.61577 310.468 9.8544C310.329 10.093 310.26 10.3681 310.26 10.6797V15H308.142ZM320.384 9.54119L318.445 9.66051C318.412 9.49479 318.341 9.34564 318.231 9.21307C318.122 9.07718 317.978 8.96946 317.799 8.88991C317.623 8.80705 317.413 8.76562 317.167 8.76562C316.839 8.76562 316.562 8.83523 316.337 8.97443C316.112 9.11032 315.999 9.29261 315.999 9.52131C315.999 9.7036 316.072 9.85772 316.218 9.98366C316.364 10.1096 316.614 10.2107 316.968 10.2869L318.35 10.5653C319.093 10.7178 319.646 10.9631 320.011 11.3011C320.376 11.6392 320.558 12.0833 320.558 12.6335C320.558 13.134 320.41 13.5732 320.115 13.951C319.824 14.3288 319.423 14.6238 318.912 14.8359C318.405 15.0447 317.82 15.1491 317.157 15.1491C316.146 15.1491 315.341 14.9387 314.741 14.5178C314.145 14.0935 313.795 13.5168 313.692 12.7876L315.775 12.6783C315.838 12.9865 315.991 13.2218 316.233 13.3842C316.475 13.5433 316.784 13.6229 317.162 13.6229C317.533 13.6229 317.832 13.5516 318.057 13.4091C318.286 13.2633 318.402 13.076 318.405 12.8473C318.402 12.6551 318.321 12.4976 318.162 12.375C318.002 12.2491 317.757 12.1529 317.426 12.0866L316.103 11.8232C315.358 11.674 314.802 11.4155 314.438 11.0476C314.077 10.6797 313.896 10.2107 313.896 9.64062C313.896 9.15009 314.029 8.72751 314.294 8.37287C314.562 8.01823 314.938 7.74479 315.422 7.55256C315.909 7.36032 316.48 7.2642 317.132 7.2642C318.097 7.2642 318.856 7.46804 319.409 7.87571C319.966 8.28338 320.291 8.83854 320.384 9.54119ZM324.582 4.81818L324.388 11.9474H322.569L322.37 4.81818H324.582ZM323.478 15.1293C323.15 15.1293 322.868 15.0133 322.633 14.7812C322.398 14.5459 322.282 14.2642 322.285 13.9361C322.282 13.6113 322.398 13.3329 322.633 13.1009C322.868 12.8688 323.15 12.7528 323.478 12.7528C323.793 12.7528 324.07 12.8688 324.309 13.1009C324.547 13.3329 324.668 13.6113 324.672 13.9361C324.668 14.1548 324.61 14.3554 324.498 14.5376C324.388 14.7166 324.244 14.8608 324.065 14.9702C323.886 15.0762 323.69 15.1293 323.478 15.1293ZM34.1768 33L31.2635 22.8182H33.6151L35.3004 29.8928H35.3849L37.2443 22.8182H39.2578L41.1122 29.9077H41.2017L42.8871 22.8182H45.2386L42.3253 33H40.2273L38.2884 26.343H38.2088L36.2749 33H34.1768ZM49.1708 33.1491C48.3853 33.1491 47.7092 32.9901 47.1424 32.6719C46.579 32.3504 46.1448 31.8963 45.8399 31.3097C45.5349 30.7197 45.3825 30.022 45.3825 29.2166C45.3825 28.4311 45.5349 27.7417 45.8399 27.1484C46.1448 26.5552 46.574 26.0928 47.1275 25.7614C47.6843 25.4299 48.3373 25.2642 49.0863 25.2642C49.5901 25.2642 50.0591 25.3454 50.4933 25.5078C50.9308 25.6669 51.3119 25.9072 51.6367 26.2287C51.9649 26.5502 52.2201 26.9545 52.4024 27.4418C52.5847 27.9257 52.6758 28.4924 52.6758 29.142V29.7237H46.2276V28.4112H50.6822C50.6822 28.1063 50.6159 27.8362 50.4833 27.6009C50.3508 27.3655 50.1668 27.1816 49.9315 27.049C49.6995 26.9131 49.4294 26.8452 49.1211 26.8452C48.7996 26.8452 48.5146 26.9197 48.266 27.0689C48.0207 27.2147 47.8285 27.4119 47.6893 27.6605C47.5501 27.9058 47.4788 28.1792 47.4755 28.4808V29.7287C47.4755 30.1065 47.5451 30.433 47.6843 30.7081C47.8268 30.9832 48.0274 31.1953 48.2859 31.3445C48.5444 31.4936 48.851 31.5682 49.2056 31.5682C49.441 31.5682 49.6564 31.535 49.8519 31.4688C50.0475 31.4025 50.2149 31.303 50.3541 31.1705C50.4933 31.0379 50.5993 30.8755 50.6723 30.6832L52.6311 30.8125C52.5316 31.2831 52.3278 31.6941 52.0196 32.0455C51.7146 32.3935 51.3202 32.6652 50.8363 32.8608C50.3557 33.053 49.8006 33.1491 49.1708 33.1491ZM55.5801 22.8182V26.6861H54.0688V22.8182H55.5801ZM57.3037 33V25.3636H59.357V26.696H59.4365C59.5757 26.2221 59.8094 25.8641 60.1375 25.6222C60.4656 25.3769 60.8435 25.2543 61.271 25.2543C61.3771 25.2543 61.4914 25.2609 61.6141 25.2741C61.7367 25.2874 61.8444 25.3056 61.9372 25.3288V27.2081C61.8378 27.1783 61.7002 27.1518 61.5246 27.1286C61.3489 27.1054 61.1882 27.0938 61.0423 27.0938C60.7308 27.0938 60.4524 27.1617 60.2071 27.2976C59.9651 27.4302 59.7729 27.6158 59.6304 27.8544C59.4912 28.093 59.4216 28.3681 59.4216 28.6797V33H57.3037ZM66.3168 33.1491C65.5313 33.1491 64.8552 32.9901 64.2884 32.6719C63.725 32.3504 63.2908 31.8963 62.9859 31.3097C62.681 30.7197 62.5285 30.022 62.5285 29.2166C62.5285 28.4311 62.681 27.7417 62.9859 27.1484C63.2908 26.5552 63.72 26.0928 64.2735 25.7614C64.8303 25.4299 65.4833 25.2642 66.2323 25.2642C66.7361 25.2642 67.2051 25.3454 67.6393 25.5078C68.0768 25.6669 68.4579 25.9072 68.7828 26.2287C69.1109 26.5502 69.3661 26.9545 69.5484 27.4418C69.7307 27.9257 69.8218 28.4924 69.8218 29.142V29.7237H63.3737V28.4112H67.8282C67.8282 28.1063 67.7619 27.8362 67.6293 27.6009C67.4968 27.3655 67.3128 27.1816 67.0775 27.049C66.8455 26.9131 66.5754 26.8452 66.2671 26.8452C65.9456 26.8452 65.6606 26.9197 65.412 27.0689C65.1668 27.2147 64.9745 27.4119 64.8353 27.6605C64.6961 27.9058 64.6248 28.1792 64.6215 28.4808V29.7287C64.6215 30.1065 64.6911 30.433 64.8303 30.7081C64.9729 30.9832 65.1734 31.1953 65.4319 31.3445C65.6904 31.4936 65.997 31.5682 66.3516 31.5682C66.587 31.5682 66.8024 31.535 66.998 31.4688C67.1935 31.4025 67.3609 31.303 67.5001 31.1705C67.6393 31.0379 67.7453 30.8755 67.8183 30.6832L69.7771 30.8125C69.6776 31.2831 69.4738 31.6941 69.1656 32.0455C68.8606 32.3935 68.4662 32.6652 67.9823 32.8608C67.5017 33.053 66.9466 33.1491 66.3168 33.1491ZM78.2045 36.0227C77.5184 36.0227 76.9301 35.9283 76.4396 35.7393C75.9524 35.5537 75.5646 35.3002 75.2762 34.9787C74.9879 34.6572 74.8006 34.2959 74.7144 33.8949L76.6732 33.6314C76.7329 33.7839 76.8274 33.9264 76.9566 34.0589C77.0859 34.1915 77.2566 34.2976 77.4687 34.3771C77.6841 34.46 77.946 34.5014 78.2542 34.5014C78.7149 34.5014 79.0944 34.3887 79.3927 34.1634C79.6943 33.9413 79.8451 33.5684 79.8451 33.0447V31.6477H79.7556C79.6628 31.8598 79.5236 32.0604 79.338 32.2493C79.1524 32.4382 78.9138 32.5923 78.6221 32.7116C78.3304 32.831 77.9824 32.8906 77.5781 32.8906C77.0047 32.8906 76.4827 32.758 76.012 32.4929C75.5447 32.2244 75.1718 31.8151 74.8934 31.2649C74.6183 30.7114 74.4808 30.0121 74.4808 29.1669C74.4808 28.3018 74.6216 27.5793 74.9034 26.9993C75.1851 26.4193 75.5596 25.9851 76.0269 25.6967C76.4976 25.4084 77.013 25.2642 77.5731 25.2642C78.0007 25.2642 78.3586 25.3371 78.647 25.483C78.9353 25.6255 79.1673 25.8045 79.343 26.0199C79.522 26.232 79.6595 26.4408 79.7556 26.6463H79.8352V25.3636H81.9382V33.0746C81.9382 33.7242 81.7791 34.2678 81.4609 34.7053C81.1427 35.1428 80.7019 35.4709 80.1384 35.6896C79.5783 35.9117 78.9337 36.0227 78.2045 36.0227ZM78.2492 31.2997C78.5906 31.2997 78.879 31.2152 79.1143 31.0462C79.3529 30.8738 79.5352 30.6286 79.6612 30.3104C79.7904 29.9889 79.8551 29.6044 79.8551 29.157C79.8551 28.7095 79.7921 28.3217 79.6661 27.9936C79.5402 27.6622 79.3579 27.4053 79.1193 27.223C78.8806 27.0407 78.5906 26.9496 78.2492 26.9496C77.9012 26.9496 77.6079 27.044 77.3693 27.233C77.1306 27.4186 76.95 27.6771 76.8274 28.0085C76.7047 28.34 76.6434 28.7228 76.6434 29.157C76.6434 29.5978 76.7047 29.9789 76.8274 30.3004C76.9533 30.6186 77.1339 30.8655 77.3693 31.0412C77.6079 31.2135 77.9012 31.2997 78.2492 31.2997ZM83.7835 33V25.3636H85.9014V33H83.7835ZM84.8474 24.3793C84.5326 24.3793 84.2625 24.2749 84.0371 24.0661C83.815 23.8539 83.704 23.6004 83.704 23.3054C83.704 23.0137 83.815 22.7635 84.0371 22.5547C84.2625 22.3426 84.5326 22.2365 84.8474 22.2365C85.1623 22.2365 85.4308 22.3426 85.6528 22.5547C85.8782 22.7635 85.9909 23.0137 85.9909 23.3054C85.9909 23.6004 85.8782 23.8539 85.6528 24.0661C85.4308 24.2749 85.1623 24.3793 84.8474 24.3793ZM94.8773 25.3636L92.2076 33H89.8212L87.1514 25.3636H89.3887L90.9746 30.8274H91.0541L92.6351 25.3636H94.8773ZM96.1211 33V25.3636H98.239V33H96.1211ZM97.185 24.3793C96.8702 24.3793 96.6 24.2749 96.3747 24.0661C96.1526 23.8539 96.0416 23.6004 96.0416 23.3054C96.0416 23.0137 96.1526 22.7635 96.3747 22.5547C96.6 22.3426 96.8702 22.2365 97.185 22.2365C97.4999 22.2365 97.7684 22.3426 97.9904 22.5547C98.2158 22.7635 98.3285 23.0137 98.3285 23.3054C98.3285 23.6004 98.2158 23.8539 97.9904 24.0661C97.7684 24.2749 97.4999 24.3793 97.185 24.3793ZM102.213 28.5852V33H100.096V25.3636H102.114V26.7109H102.204C102.373 26.2668 102.656 25.9155 103.054 25.657C103.451 25.3951 103.934 25.2642 104.5 25.2642C105.031 25.2642 105.493 25.3802 105.887 25.6122C106.282 25.8442 106.588 26.1757 106.807 26.6065C107.026 27.0341 107.135 27.5445 107.135 28.1378V33H105.017V28.5156C105.021 28.0483 104.901 27.6837 104.659 27.4219C104.418 27.1567 104.084 27.0241 103.66 27.0241C103.375 27.0241 103.123 27.0855 102.905 27.2081C102.689 27.3307 102.52 27.5097 102.397 27.745C102.278 27.977 102.217 28.2571 102.213 28.5852ZM112.405 36.0227C111.719 36.0227 111.131 35.9283 110.64 35.7393C110.153 35.5537 109.765 35.3002 109.477 34.9787C109.188 34.6572 109.001 34.2959 108.915 33.8949L110.874 33.6314C110.933 33.7839 111.028 33.9264 111.157 34.0589C111.286 34.1915 111.457 34.2976 111.669 34.3771C111.885 34.46 112.146 34.5014 112.455 34.5014C112.915 34.5014 113.295 34.3887 113.593 34.1634C113.895 33.9413 114.046 33.5684 114.046 33.0447V31.6477H113.956C113.863 31.8598 113.724 32.0604 113.538 32.2493C113.353 32.4382 113.114 32.5923 112.823 32.7116C112.531 32.831 112.183 32.8906 111.778 32.8906C111.205 32.8906 110.683 32.758 110.212 32.4929C109.745 32.2244 109.372 31.8151 109.094 31.2649C108.819 30.7114 108.681 30.0121 108.681 29.1669C108.681 28.3018 108.822 27.5793 109.104 26.9993C109.385 26.4193 109.76 25.9851 110.227 25.6967C110.698 25.4084 111.213 25.2642 111.773 25.2642C112.201 25.2642 112.559 25.3371 112.847 25.483C113.136 25.6255 113.368 25.8045 113.543 26.0199C113.722 26.232 113.86 26.4408 113.956 26.6463H114.036V25.3636H116.139V33.0746C116.139 33.7242 115.979 34.2678 115.661 34.7053C115.343 35.1428 114.902 35.4709 114.339 35.6896C113.779 35.9117 113.134 36.0227 112.405 36.0227ZM112.45 31.2997C112.791 31.2997 113.079 31.2152 113.315 31.0462C113.553 30.8738 113.736 30.6286 113.862 30.3104C113.991 29.9889 114.055 29.6044 114.055 29.157C114.055 28.7095 113.992 28.3217 113.867 27.9936C113.741 27.6622 113.558 27.4053 113.32 27.223C113.081 27.0407 112.791 26.9496 112.45 26.9496C112.102 26.9496 111.808 27.044 111.57 27.233C111.331 27.4186 111.15 27.6771 111.028 28.0085C110.905 28.34 110.844 28.7228 110.844 29.157C110.844 29.5978 110.905 29.9789 111.028 30.3004C111.154 30.6186 111.334 30.8655 111.57 31.0412C111.808 31.2135 112.102 31.2997 112.45 31.2997ZM123.562 33.1442C123.074 33.1442 122.64 33.0597 122.259 32.8906C121.878 32.7183 121.576 32.4647 121.354 32.13C121.136 31.7919 121.026 31.371 121.026 30.8672C121.026 30.4429 121.104 30.0866 121.26 29.7983C121.416 29.5099 121.628 29.2779 121.896 29.1023C122.165 28.9266 122.47 28.794 122.811 28.7045C123.156 28.6151 123.517 28.5521 123.895 28.5156C124.339 28.4692 124.697 28.4261 124.969 28.3864C125.24 28.3433 125.438 28.2803 125.56 28.1974C125.683 28.1146 125.744 27.992 125.744 27.8295V27.7997C125.744 27.4848 125.645 27.2412 125.446 27.0689C125.25 26.8965 124.972 26.8104 124.611 26.8104C124.23 26.8104 123.926 26.8949 123.701 27.0639C123.476 27.2296 123.326 27.4384 123.253 27.6903L121.295 27.5312C121.394 27.0672 121.59 26.6662 121.881 26.3281C122.173 25.9867 122.549 25.7249 123.01 25.5426C123.474 25.357 124.011 25.2642 124.621 25.2642C125.045 25.2642 125.451 25.3139 125.839 25.4134C126.23 25.5128 126.576 25.6669 126.878 25.8757C127.183 26.0845 127.423 26.353 127.599 26.6811C127.774 27.0059 127.862 27.3954 127.862 27.8494V33H125.854V31.9411H125.794C125.671 32.1797 125.507 32.3902 125.302 32.5724C125.096 32.7514 124.849 32.8923 124.561 32.995C124.273 33.0945 123.94 33.1442 123.562 33.1442ZM124.168 31.6825C124.48 31.6825 124.755 31.6212 124.994 31.4986C125.232 31.3726 125.419 31.2036 125.555 30.9915C125.691 30.7794 125.759 30.5391 125.759 30.2706V29.4602C125.693 29.5033 125.602 29.5431 125.486 29.5795C125.373 29.6127 125.245 29.6442 125.103 29.674C124.96 29.7005 124.818 29.7254 124.675 29.7486C124.533 29.7685 124.404 29.7867 124.288 29.8033C124.039 29.8397 123.822 29.8977 123.636 29.9773C123.451 30.0568 123.307 30.1645 123.204 30.3004C123.101 30.433 123.05 30.5987 123.05 30.7976C123.05 31.0859 123.154 31.3063 123.363 31.4588C123.575 31.608 123.843 31.6825 124.168 31.6825ZM133.116 33.1491C132.333 33.1491 131.661 32.9834 131.097 32.652C130.537 32.3172 130.106 31.8532 129.804 31.2599C129.506 30.6667 129.357 29.9839 129.357 29.2116C129.357 28.4295 129.508 27.7434 129.809 27.1534C130.114 26.5601 130.547 26.0978 131.107 25.7663C131.667 25.4316 132.333 25.2642 133.106 25.2642C133.772 25.2642 134.355 25.3852 134.856 25.6271C135.356 25.8691 135.752 26.2088 136.044 26.6463C136.335 27.0838 136.496 27.5975 136.526 28.1875H134.527C134.471 27.8063 134.322 27.4998 134.08 27.2678C133.841 27.0324 133.528 26.9148 133.14 26.9148C132.812 26.9148 132.526 27.0043 132.28 27.1832C132.038 27.3589 131.849 27.6158 131.714 27.9538C131.578 28.2919 131.51 28.7012 131.51 29.1818C131.51 29.669 131.576 30.0833 131.709 30.4247C131.844 30.7661 132.035 31.0263 132.28 31.2053C132.526 31.3842 132.812 31.4737 133.14 31.4737C133.382 31.4737 133.599 31.424 133.792 31.3246C133.987 31.2251 134.148 31.081 134.274 30.892C134.403 30.6998 134.488 30.4695 134.527 30.201H136.526C136.493 30.7843 136.334 31.2981 136.049 31.7422C135.767 32.183 135.378 32.5277 134.88 32.7763C134.383 33.0249 133.795 33.1491 133.116 33.1491ZM141.492 33.1491C140.71 33.1491 140.037 32.9834 139.474 32.652C138.914 32.3172 138.483 31.8532 138.181 31.2599C137.883 30.6667 137.734 29.9839 137.734 29.2116C137.734 28.4295 137.885 27.7434 138.186 27.1534C138.491 26.5601 138.924 26.0978 139.484 25.7663C140.044 25.4316 140.71 25.2642 141.482 25.2642C142.149 25.2642 142.732 25.3852 143.232 25.6271C143.733 25.8691 144.129 26.2088 144.421 26.6463C144.712 27.0838 144.873 27.5975 144.903 28.1875H142.904C142.848 27.8063 142.699 27.4998 142.457 27.2678C142.218 27.0324 141.905 26.9148 141.517 26.9148C141.189 26.9148 140.902 27.0043 140.657 27.1832C140.415 27.3589 140.226 27.6158 140.09 27.9538C139.954 28.2919 139.887 28.7012 139.887 29.1818C139.887 29.669 139.953 30.0833 140.085 30.4247C140.221 30.7661 140.412 31.0263 140.657 31.2053C140.902 31.3842 141.189 31.4737 141.517 31.4737C141.759 31.4737 141.976 31.424 142.168 31.3246C142.364 31.2251 142.525 31.081 142.651 30.892C142.78 30.6998 142.864 30.4695 142.904 30.201H144.903C144.87 30.7843 144.711 31.2981 144.426 31.7422C144.144 32.183 143.754 32.5277 143.257 32.7763C142.76 33.0249 142.172 33.1491 141.492 33.1491ZM149.899 33.1491C149.113 33.1491 148.437 32.9901 147.871 32.6719C147.307 32.3504 146.873 31.8963 146.568 31.3097C146.263 30.7197 146.111 30.022 146.111 29.2166C146.111 28.4311 146.263 27.7417 146.568 27.1484C146.873 26.5552 147.302 26.0928 147.856 25.7614C148.412 25.4299 149.065 25.2642 149.814 25.2642C150.318 25.2642 150.787 25.3454 151.221 25.5078C151.659 25.6669 152.04 25.9072 152.365 26.2287C152.693 26.5502 152.948 26.9545 153.13 27.4418C153.313 27.9257 153.404 28.4924 153.404 29.142V29.7237H146.956V28.4112H151.41C151.41 28.1063 151.344 27.8362 151.211 27.6009C151.079 27.3655 150.895 27.1816 150.66 27.049C150.428 26.9131 150.157 26.8452 149.849 26.8452C149.528 26.8452 149.243 26.9197 148.994 27.0689C148.749 27.2147 148.557 27.4119 148.417 27.6605C148.278 27.9058 148.207 28.1792 148.204 28.4808V29.7287C148.204 30.1065 148.273 30.433 148.412 30.7081C148.555 30.9832 148.755 31.1953 149.014 31.3445C149.273 31.4936 149.579 31.5682 149.934 31.5682C150.169 31.5682 150.385 31.535 150.58 31.4688C150.776 31.4025 150.943 31.303 151.082 31.1705C151.221 31.0379 151.327 30.8755 151.4 30.6832L153.359 30.8125C153.26 31.2831 153.056 31.6941 152.748 32.0455C152.443 32.3935 152.048 32.6652 151.564 32.8608C151.084 33.053 150.529 33.1491 149.899 33.1491ZM161.3 27.5412L159.361 27.6605C159.328 27.4948 159.256 27.3456 159.147 27.2131C159.038 27.0772 158.893 26.9695 158.714 26.8899C158.539 26.8071 158.328 26.7656 158.083 26.7656C157.755 26.7656 157.478 26.8352 157.253 26.9744C157.027 27.1103 156.915 27.2926 156.915 27.5213C156.915 27.7036 156.988 27.8577 157.134 27.9837C157.279 28.1096 157.53 28.2107 157.884 28.2869L159.266 28.5653C160.009 28.7178 160.562 28.9631 160.927 29.3011C161.291 29.6392 161.474 30.0833 161.474 30.6335C161.474 31.134 161.326 31.5732 161.031 31.951C160.74 32.3288 160.339 32.6238 159.828 32.8359C159.321 33.0447 158.736 33.1491 158.073 33.1491C157.062 33.1491 156.257 32.9387 155.657 32.5178C155.06 32.0935 154.711 31.5168 154.608 30.7876L156.691 30.6783C156.754 30.9865 156.906 31.2218 157.148 31.3842C157.39 31.5433 157.7 31.6229 158.078 31.6229C158.449 31.6229 158.748 31.5516 158.973 31.4091C159.202 31.2633 159.318 31.076 159.321 30.8473C159.318 30.6551 159.237 30.4976 159.077 30.375C158.918 30.2491 158.673 30.1529 158.342 30.0866L157.019 29.8232C156.273 29.674 155.718 29.4155 155.354 29.0476C154.992 28.6797 154.812 28.2107 154.812 27.6406C154.812 27.1501 154.944 26.7275 155.21 26.3729C155.478 26.0182 155.854 25.7448 156.338 25.5526C156.825 25.3603 157.395 25.2642 158.048 25.2642C159.013 25.2642 159.772 25.468 160.325 25.8757C160.882 26.2834 161.207 26.8385 161.3 27.5412ZM169.321 27.5412L167.382 27.6605C167.349 27.4948 167.278 27.3456 167.168 27.2131C167.059 27.0772 166.915 26.9695 166.736 26.8899C166.56 26.8071 166.35 26.7656 166.104 26.7656C165.776 26.7656 165.5 26.8352 165.274 26.9744C165.049 27.1103 164.936 27.2926 164.936 27.5213C164.936 27.7036 165.009 27.8577 165.155 27.9837C165.301 28.1096 165.551 28.2107 165.906 28.2869L167.288 28.5653C168.03 28.7178 168.584 28.9631 168.948 29.3011C169.313 29.6392 169.495 30.0833 169.495 30.6335C169.495 31.134 169.348 31.5732 169.053 31.951C168.761 32.3288 168.36 32.6238 167.849 32.8359C167.342 33.0447 166.757 33.1491 166.094 33.1491C165.084 33.1491 164.278 32.9387 163.678 32.5178C163.082 32.0935 162.732 31.5168 162.629 30.7876L164.712 30.6783C164.775 30.9865 164.928 31.2218 165.17 31.3842C165.412 31.5433 165.722 31.6229 166.099 31.6229C166.471 31.6229 166.769 31.5516 166.994 31.4091C167.223 31.2633 167.339 31.076 167.342 30.8473C167.339 30.6551 167.258 30.4976 167.099 30.375C166.94 30.2491 166.694 30.1529 166.363 30.0866L165.041 29.8232C164.295 29.674 163.74 29.4155 163.375 29.0476C163.014 28.6797 162.833 28.2107 162.833 27.6406C162.833 27.1501 162.966 26.7275 163.231 26.3729C163.499 26.0182 163.876 25.7448 164.359 25.5526C164.847 25.3603 165.417 25.2642 166.07 25.2642C167.034 25.2642 167.793 25.468 168.347 25.8757C168.903 26.2834 169.228 26.8385 169.321 27.5412ZM177.839 33.1491C177.067 33.1491 176.399 32.9851 175.836 32.657C175.276 32.3255 174.843 31.8648 174.538 31.2749C174.233 30.6816 174.081 29.9938 174.081 29.2116C174.081 28.4228 174.233 27.7334 174.538 27.1435C174.843 26.5502 175.276 26.0895 175.836 25.7614C176.399 25.4299 177.067 25.2642 177.839 25.2642C178.611 25.2642 179.278 25.4299 179.838 25.7614C180.401 26.0895 180.835 26.5502 181.14 27.1435C181.445 27.7334 181.598 28.4228 181.598 29.2116C181.598 29.9938 181.445 30.6816 181.14 31.2749C180.835 31.8648 180.401 32.3255 179.838 32.657C179.278 32.9851 178.611 33.1491 177.839 33.1491ZM177.849 31.5085C178.2 31.5085 178.494 31.4091 178.729 31.2102C178.964 31.008 179.142 30.733 179.261 30.3849C179.384 30.0369 179.445 29.6409 179.445 29.1967C179.445 28.7526 179.384 28.3565 179.261 28.0085C179.142 27.6605 178.964 27.3854 178.729 27.1832C178.494 26.9811 178.2 26.88 177.849 26.88C177.495 26.88 177.196 26.9811 176.954 27.1832C176.716 27.3854 176.535 27.6605 176.412 28.0085C176.293 28.3565 176.233 28.7526 176.233 29.1967C176.233 29.6409 176.293 30.0369 176.412 30.3849C176.535 30.733 176.716 31.008 176.954 31.2102C177.196 31.4091 177.495 31.5085 177.849 31.5085ZM185.253 28.5852V33H183.135V25.3636H185.153V26.7109H185.243C185.412 26.2668 185.695 25.9155 186.093 25.657C186.491 25.3951 186.973 25.2642 187.54 25.2642C188.07 25.2642 188.532 25.3802 188.927 25.6122C189.321 25.8442 189.628 26.1757 189.847 26.6065C190.065 27.0341 190.175 27.5445 190.175 28.1378V33H188.057V28.5156C188.06 28.0483 187.941 27.6837 187.699 27.4219C187.457 27.1567 187.124 27.0241 186.699 27.0241C186.414 27.0241 186.163 27.0855 185.944 27.2081C185.728 27.3307 185.559 27.5097 185.437 27.745C185.317 27.977 185.256 28.2571 185.253 28.5852ZM195.404 33V25.3636H197.457V26.696H197.537C197.676 26.2221 197.91 25.8641 198.238 25.6222C198.566 25.3769 198.944 25.2543 199.371 25.2543C199.477 25.2543 199.592 25.2609 199.714 25.2741C199.837 25.2874 199.945 25.3056 200.038 25.3288V27.2081C199.938 27.1783 199.801 27.1518 199.625 27.1286C199.449 27.1054 199.289 27.0938 199.143 27.0938C198.831 27.0938 198.553 27.1617 198.307 27.2976C198.066 27.4302 197.873 27.6158 197.731 27.8544C197.592 28.093 197.522 28.3681 197.522 28.6797V33H195.404ZM204.387 33.1491C203.615 33.1491 202.947 32.9851 202.384 32.657C201.824 32.3255 201.391 31.8648 201.086 31.2749C200.781 30.6816 200.629 29.9938 200.629 29.2116C200.629 28.4228 200.781 27.7334 201.086 27.1435C201.391 26.5502 201.824 26.0895 202.384 25.7614C202.947 25.4299 203.615 25.2642 204.387 25.2642C205.16 25.2642 205.826 25.4299 206.386 25.7614C206.949 26.0895 207.384 26.5502 207.689 27.1435C207.993 27.7334 208.146 28.4228 208.146 29.2116C208.146 29.9938 207.993 30.6816 207.689 31.2749C207.384 31.8648 206.949 32.3255 206.386 32.657C205.826 32.9851 205.16 33.1491 204.387 33.1491ZM204.397 31.5085C204.749 31.5085 205.042 31.4091 205.277 31.2102C205.513 31.008 205.69 30.733 205.809 30.3849C205.932 30.0369 205.993 29.6409 205.993 29.1967C205.993 28.7526 205.932 28.3565 205.809 28.0085C205.69 27.6605 205.513 27.3854 205.277 27.1832C205.042 26.9811 204.749 26.88 204.397 26.88C204.043 26.88 203.744 26.9811 203.502 27.1832C203.264 27.3854 203.083 27.6605 202.961 28.0085C202.841 28.3565 202.782 28.7526 202.782 29.1967C202.782 29.6409 202.841 30.0369 202.961 30.3849C203.083 30.733 203.264 31.008 203.502 31.2102C203.744 31.4091 204.043 31.5085 204.397 31.5085ZM211.801 22.8182V33H209.683V22.8182H211.801ZM215.775 22.8182V33H213.658V22.8182H215.775ZM217.632 33V25.3636H219.75V33H217.632ZM218.696 24.3793C218.381 24.3793 218.111 24.2749 217.886 24.0661C217.663 23.8539 217.552 23.6004 217.552 23.3054C217.552 23.0137 217.663 22.7635 217.886 22.5547C218.111 22.3426 218.381 22.2365 218.696 22.2365C219.011 22.2365 219.279 22.3426 219.501 22.5547C219.727 22.7635 219.839 23.0137 219.839 23.3054C219.839 23.6004 219.727 23.8539 219.501 24.0661C219.279 24.2749 219.011 24.3793 218.696 24.3793ZM223.724 28.5852V33H221.606V25.3636H223.625V26.7109H223.714C223.883 26.2668 224.167 25.9155 224.565 25.657C224.962 25.3951 225.444 25.2642 226.011 25.2642C226.542 25.2642 227.004 25.3802 227.398 25.6122C227.793 25.8442 228.099 26.1757 228.318 26.6065C228.537 27.0341 228.646 27.5445 228.646 28.1378V33H226.528V28.5156C226.532 28.0483 226.412 27.6837 226.17 27.4219C225.928 27.1567 225.595 27.0241 225.171 27.0241C224.886 27.0241 224.634 27.0855 224.415 27.2081C224.2 27.3307 224.031 27.5097 223.908 27.745C223.789 27.977 223.728 28.2571 223.724 28.5852ZM233.916 36.0227C233.23 36.0227 232.641 35.9283 232.151 35.7393C231.664 35.5537 231.276 35.3002 230.987 34.9787C230.699 34.6572 230.512 34.2959 230.426 33.8949L232.384 33.6314C232.444 33.7839 232.539 33.9264 232.668 34.0589C232.797 34.1915 232.968 34.2976 233.18 34.3771C233.395 34.46 233.657 34.5014 233.965 34.5014C234.426 34.5014 234.806 34.3887 235.104 34.1634C235.406 33.9413 235.556 33.5684 235.556 33.0447V31.6477H235.467C235.374 31.8598 235.235 32.0604 235.049 32.2493C234.864 32.4382 234.625 32.5923 234.333 32.7116C234.042 32.831 233.694 32.8906 233.289 32.8906C232.716 32.8906 232.194 32.758 231.723 32.4929C231.256 32.2244 230.883 31.8151 230.605 31.2649C230.33 30.7114 230.192 30.0121 230.192 29.1669C230.192 28.3018 230.333 27.5793 230.615 26.9993C230.896 26.4193 231.271 25.9851 231.738 25.6967C232.209 25.4084 232.724 25.2642 233.284 25.2642C233.712 25.2642 234.07 25.3371 234.358 25.483C234.647 25.6255 234.879 25.8045 235.054 26.0199C235.233 26.232 235.371 26.4408 235.467 26.6463H235.546V25.3636H237.649V33.0746C237.649 33.7242 237.49 34.2678 237.172 34.7053C236.854 35.1428 236.413 35.4709 235.85 35.6896C235.29 35.9117 234.645 36.0227 233.916 36.0227ZM233.96 31.2997C234.302 31.2997 234.59 31.2152 234.826 31.0462C235.064 30.8738 235.246 30.6286 235.372 30.3104C235.502 29.9889 235.566 29.6044 235.566 29.157C235.566 28.7095 235.503 28.3217 235.377 27.9936C235.251 27.6622 235.069 27.4053 234.831 27.223C234.592 27.0407 234.302 26.9496 233.96 26.9496C233.612 26.9496 233.319 27.044 233.081 27.233C232.842 27.4186 232.661 27.6771 232.539 28.0085C232.416 28.34 232.355 28.7228 232.355 29.157C232.355 29.5978 232.416 29.9789 232.539 30.3004C232.665 30.6186 232.845 30.8655 233.081 31.0412C233.319 31.2135 233.612 31.2997 233.96 31.2997ZM242.935 33V22.8182H245.053V26.6463H245.117C245.21 26.4408 245.344 26.232 245.52 26.0199C245.699 25.8045 245.931 25.6255 246.216 25.483C246.504 25.3371 246.862 25.2642 247.29 25.2642C247.847 25.2642 248.36 25.41 248.831 25.7017C249.302 25.9901 249.678 26.4259 249.96 27.0092C250.241 27.5893 250.382 28.3168 250.382 29.1918C250.382 30.0436 250.245 30.7628 249.97 31.3494C249.698 31.9328 249.327 32.3752 248.856 32.6768C248.389 32.9751 247.865 33.1243 247.285 33.1243C246.874 33.1243 246.524 33.0563 246.236 32.9205C245.951 32.7846 245.717 32.6139 245.535 32.4084C245.353 32.1996 245.213 31.9891 245.117 31.777H245.023V33H242.935ZM245.008 29.1818C245.008 29.6359 245.071 30.032 245.197 30.37C245.323 30.7081 245.505 30.9716 245.744 31.1605C245.982 31.3461 246.272 31.4389 246.614 31.4389C246.958 31.4389 247.25 31.3445 247.489 31.1555C247.727 30.9633 247.908 30.6982 248.031 30.3601C248.157 30.0187 248.22 29.6259 248.22 29.1818C248.22 28.741 248.158 28.3532 248.036 28.0185C247.913 27.6837 247.732 27.4219 247.494 27.233C247.255 27.044 246.962 26.9496 246.614 26.9496C246.269 26.9496 245.977 27.0407 245.739 27.223C245.503 27.4053 245.323 27.6638 245.197 27.9986C245.071 28.3333 245.008 28.7277 245.008 29.1818ZM254.133 33.1442C253.646 33.1442 253.212 33.0597 252.83 32.8906C252.449 32.7183 252.148 32.4647 251.926 32.13C251.707 31.7919 251.597 31.371 251.597 30.8672C251.597 30.4429 251.675 30.0866 251.831 29.7983C251.987 29.5099 252.199 29.2779 252.467 29.1023C252.736 28.9266 253.041 28.794 253.382 28.7045C253.727 28.6151 254.088 28.5521 254.466 28.5156C254.91 28.4692 255.268 28.4261 255.54 28.3864C255.812 28.3433 256.009 28.2803 256.132 28.1974C256.254 28.1146 256.315 27.992 256.315 27.8295V27.7997C256.315 27.4848 256.216 27.2412 256.017 27.0689C255.822 26.8965 255.543 26.8104 255.182 26.8104C254.801 26.8104 254.498 26.8949 254.272 27.0639C254.047 27.2296 253.898 27.4384 253.825 27.6903L251.866 27.5312C251.965 27.0672 252.161 26.6662 252.453 26.3281C252.744 25.9867 253.12 25.7249 253.581 25.5426C254.045 25.357 254.582 25.2642 255.192 25.2642C255.616 25.2642 256.022 25.3139 256.41 25.4134C256.801 25.5128 257.147 25.6669 257.449 25.8757C257.754 26.0845 257.994 26.353 258.17 26.6811C258.346 27.0059 258.433 27.3954 258.433 27.8494V33H256.425V31.9411H256.365C256.243 32.1797 256.079 32.3902 255.873 32.5724C255.668 32.7514 255.421 32.8923 255.132 32.995C254.844 33.0945 254.511 33.1442 254.133 33.1442ZM254.739 31.6825C255.051 31.6825 255.326 31.6212 255.565 31.4986C255.803 31.3726 255.991 31.2036 256.127 30.9915C256.262 30.7794 256.33 30.5391 256.33 30.2706V29.4602C256.264 29.5033 256.173 29.5431 256.057 29.5795C255.944 29.6127 255.817 29.6442 255.674 29.674C255.532 29.7005 255.389 29.7254 255.247 29.7486C255.104 29.7685 254.975 29.7867 254.859 29.8033C254.61 29.8397 254.393 29.8977 254.208 29.9773C254.022 30.0568 253.878 30.1645 253.775 30.3004C253.672 30.433 253.621 30.5987 253.621 30.7976C253.621 31.0859 253.725 31.3063 253.934 31.4588C254.146 31.608 254.415 31.6825 254.739 31.6825ZM266.59 27.5412L264.651 27.6605C264.618 27.4948 264.547 27.3456 264.437 27.2131C264.328 27.0772 264.184 26.9695 264.005 26.8899C263.829 26.8071 263.619 26.7656 263.374 26.7656C263.045 26.7656 262.769 26.8352 262.543 26.9744C262.318 27.1103 262.205 27.2926 262.205 27.5213C262.205 27.7036 262.278 27.8577 262.424 27.9837C262.57 28.1096 262.82 28.2107 263.175 28.2869L264.557 28.5653C265.299 28.7178 265.853 28.9631 266.217 29.3011C266.582 29.6392 266.764 30.0833 266.764 30.6335C266.764 31.134 266.617 31.5732 266.322 31.951C266.03 32.3288 265.629 32.6238 265.119 32.8359C264.611 33.0447 264.027 33.1491 263.364 33.1491C262.353 33.1491 261.547 32.9387 260.947 32.5178C260.351 32.0935 260.001 31.5168 259.898 30.7876L261.982 30.6783C262.044 30.9865 262.197 31.2218 262.439 31.3842C262.681 31.5433 262.991 31.6229 263.369 31.6229C263.74 31.6229 264.038 31.5516 264.263 31.4091C264.492 31.2633 264.608 31.076 264.611 30.8473C264.608 30.6551 264.527 30.4976 264.368 30.375C264.209 30.2491 263.964 30.1529 263.632 30.0866L262.31 29.8232C261.564 29.674 261.009 29.4155 260.644 29.0476C260.283 28.6797 260.102 28.2107 260.102 27.6406C260.102 27.1501 260.235 26.7275 260.5 26.3729C260.768 26.0182 261.145 25.7448 261.629 25.5526C262.116 25.3603 262.686 25.2642 263.339 25.2642C264.303 25.2642 265.062 25.468 265.616 25.8757C266.173 26.2834 266.497 26.8385 266.59 27.5412ZM268.258 33V25.3636H270.376V33H268.258ZM269.322 24.3793C269.007 24.3793 268.737 24.2749 268.511 24.0661C268.289 23.8539 268.178 23.6004 268.178 23.3054C268.178 23.0137 268.289 22.7635 268.511 22.5547C268.737 22.3426 269.007 22.2365 269.322 22.2365C269.637 22.2365 269.905 22.3426 270.127 22.5547C270.353 22.7635 270.465 23.0137 270.465 23.3054C270.465 23.6004 270.353 23.8539 270.127 24.0661C269.905 24.2749 269.637 24.3793 269.322 24.3793ZM278.586 27.5412L276.647 27.6605C276.614 27.4948 276.543 27.3456 276.433 27.2131C276.324 27.0772 276.18 26.9695 276.001 26.8899C275.825 26.8071 275.615 26.7656 275.369 26.7656C275.041 26.7656 274.764 26.8352 274.539 26.9744C274.314 27.1103 274.201 27.2926 274.201 27.5213C274.201 27.7036 274.274 27.8577 274.42 27.9837C274.566 28.1096 274.816 28.2107 275.17 28.2869L276.553 28.5653C277.295 28.7178 277.849 28.9631 278.213 29.3011C278.578 29.6392 278.76 30.0833 278.76 30.6335C278.76 31.134 278.612 31.5732 278.318 31.951C278.026 32.3288 277.625 32.6238 277.114 32.8359C276.607 33.0447 276.022 33.1491 275.359 33.1491C274.349 33.1491 273.543 32.9387 272.943 32.5178C272.347 32.0935 271.997 31.5168 271.894 30.7876L273.977 30.6783C274.04 30.9865 274.193 31.2218 274.435 31.3842C274.677 31.5433 274.987 31.6229 275.364 31.6229C275.736 31.6229 276.034 31.5516 276.259 31.4091C276.488 31.2633 276.604 31.076 276.607 30.8473C276.604 30.6551 276.523 30.4976 276.364 30.375C276.205 30.2491 275.959 30.1529 275.628 30.0866L274.305 29.8232C273.56 29.674 273.005 29.4155 272.64 29.0476C272.279 28.6797 272.098 28.2107 272.098 27.6406C272.098 27.1501 272.231 26.7275 272.496 26.3729C272.764 26.0182 273.14 25.7448 273.624 25.5526C274.112 25.3603 274.682 25.2642 275.335 25.2642C276.299 25.2642 277.058 25.468 277.612 25.8757C278.168 26.2834 278.493 26.8385 278.586 27.5412ZM287.716 25.3636V26.9545H283.117V25.3636H287.716ZM284.161 23.5341H286.279V30.6534C286.279 30.849 286.309 31.0014 286.368 31.1108C286.428 31.2169 286.511 31.2914 286.617 31.3345C286.726 31.3776 286.852 31.3991 286.995 31.3991C287.094 31.3991 287.194 31.3909 287.293 31.3743C287.392 31.3544 287.469 31.3395 287.522 31.3295L287.855 32.9055C287.749 32.9387 287.6 32.9768 287.407 33.0199C287.215 33.0663 286.981 33.0945 286.706 33.1044C286.196 33.1243 285.749 33.0563 285.364 32.9006C284.983 32.7448 284.686 32.5028 284.474 32.1747C284.262 31.8466 284.158 31.4323 284.161 30.9318V23.5341ZM291.537 28.5852V33H289.419V22.8182H291.478V26.7109H291.567C291.739 26.2602 292.018 25.9072 292.402 25.652C292.787 25.3935 293.269 25.2642 293.849 25.2642C294.379 25.2642 294.842 25.3802 295.236 25.6122C295.634 25.8409 295.942 26.1707 296.161 26.6016C296.383 27.0291 296.492 27.5412 296.489 28.1378V33H294.371V28.5156C294.374 28.045 294.255 27.6787 294.013 27.4169C293.774 27.1551 293.44 27.0241 293.009 27.0241C292.72 27.0241 292.465 27.0855 292.243 27.2081C292.024 27.3307 291.852 27.5097 291.726 27.745C291.603 27.977 291.541 28.2571 291.537 28.5852ZM298.316 33V25.3636H300.369V26.696H300.448C300.588 26.2221 300.821 25.8641 301.149 25.6222C301.478 25.3769 301.855 25.2543 302.283 25.2543C302.389 25.2543 302.503 25.2609 302.626 25.2741C302.749 25.2874 302.856 25.3056 302.949 25.3288V27.2081C302.85 27.1783 302.712 27.1518 302.537 27.1286C302.361 27.1054 302.2 27.0938 302.054 27.0938C301.743 27.0938 301.464 27.1617 301.219 27.2976C300.977 27.4302 300.785 27.6158 300.642 27.8544C300.503 28.093 300.434 28.3681 300.434 28.6797V33H298.316ZM307.299 33.1491C306.527 33.1491 305.859 32.9851 305.295 32.657C304.735 32.3255 304.303 31.8648 303.998 31.2749C303.693 30.6816 303.54 29.9938 303.54 29.2116C303.54 28.4228 303.693 27.7334 303.998 27.1435C304.303 26.5502 304.735 26.0895 305.295 25.7614C305.859 25.4299 306.527 25.2642 307.299 25.2642C308.071 25.2642 308.737 25.4299 309.298 25.7614C309.861 26.0895 310.295 26.5502 310.6 27.1435C310.905 27.7334 311.057 28.4228 311.057 29.2116C311.057 29.9938 310.905 30.6816 310.6 31.2749C310.295 31.8648 309.861 32.3255 309.298 32.657C308.737 32.9851 308.071 33.1491 307.299 33.1491ZM307.309 31.5085C307.66 31.5085 307.954 31.4091 308.189 31.2102C308.424 31.008 308.602 30.733 308.721 30.3849C308.843 30.0369 308.905 29.6409 308.905 29.1967C308.905 28.7526 308.843 28.3565 308.721 28.0085C308.602 27.6605 308.424 27.3854 308.189 27.1832C307.954 26.9811 307.66 26.88 307.309 26.88C306.954 26.88 306.656 26.9811 306.414 27.1832C306.175 27.3854 305.995 27.6605 305.872 28.0085C305.753 28.3565 305.693 28.7526 305.693 29.1967C305.693 29.6409 305.753 30.0369 305.872 30.3849C305.995 30.733 306.175 31.008 306.414 31.2102C306.656 31.4091 306.954 31.5085 307.309 31.5085ZM317.492 29.7486V25.3636H319.61V33H317.576V31.6129H317.497C317.324 32.0604 317.038 32.42 316.637 32.6918C316.239 32.9635 315.753 33.0994 315.18 33.0994C314.669 33.0994 314.22 32.9834 313.833 32.7514C313.445 32.5194 313.141 32.1896 312.923 31.7621C312.707 31.3345 312.598 30.8224 312.595 30.2259V25.3636H314.713V29.848C314.716 30.2988 314.837 30.6551 315.075 30.9169C315.314 31.1787 315.634 31.3097 316.035 31.3097C316.29 31.3097 316.529 31.2517 316.751 31.1357C316.973 31.0163 317.152 30.8407 317.288 30.6087C317.427 30.3767 317.495 30.09 317.492 29.7486ZM324.904 36.0227C324.218 36.0227 323.63 35.9283 323.139 35.7393C322.652 35.5537 322.264 35.3002 321.976 34.9787C321.687 34.6572 321.5 34.2959 321.414 33.8949L323.373 33.6314C323.432 33.7839 323.527 33.9264 323.656 34.0589C323.785 34.1915 323.956 34.2976 324.168 34.3771C324.384 34.46 324.645 34.5014 324.954 34.5014C325.414 34.5014 325.794 34.3887 326.092 34.1634C326.394 33.9413 326.545 33.5684 326.545 33.0447V31.6477H326.455C326.362 31.8598 326.223 32.0604 326.037 32.2493C325.852 32.4382 325.613 32.5923 325.322 32.7116C325.03 32.831 324.682 32.8906 324.278 32.8906C323.704 32.8906 323.182 32.758 322.711 32.4929C322.244 32.2244 321.871 31.8151 321.593 31.2649C321.318 30.7114 321.18 30.0121 321.18 29.1669C321.18 28.3018 321.321 27.5793 321.603 26.9993C321.885 26.4193 322.259 25.9851 322.726 25.6967C323.197 25.4084 323.712 25.2642 324.273 25.2642C324.7 25.2642 325.058 25.3371 325.346 25.483C325.635 25.6255 325.867 25.8045 326.042 26.0199C326.221 26.232 326.359 26.4408 326.455 26.6463H326.535V25.3636H328.638V33.0746C328.638 33.7242 328.479 34.2678 328.16 34.7053C327.842 35.1428 327.401 35.4709 326.838 35.6896C326.278 35.9117 325.633 36.0227 324.904 36.0227ZM324.949 31.2997C325.29 31.2997 325.578 31.2152 325.814 31.0462C326.052 30.8738 326.235 30.6286 326.361 30.3104C326.49 29.9889 326.555 29.6044 326.555 29.157C326.555 28.7095 326.492 28.3217 326.366 27.9936C326.24 27.6622 326.057 27.4053 325.819 27.223C325.58 27.0407 325.29 26.9496 324.949 26.9496C324.601 26.9496 324.307 27.044 324.069 27.233C323.83 27.4186 323.649 27.6771 323.527 28.0085C323.404 28.34 323.343 28.7228 323.343 29.157C323.343 29.5978 323.404 29.9789 323.527 30.3004C323.653 30.6186 323.833 30.8655 324.069 31.0412C324.307 31.2135 324.601 31.2997 324.949 31.2997ZM332.601 28.5852V33H330.483V22.8182H332.541V26.7109H332.631C332.803 26.2602 333.081 25.9072 333.466 25.652C333.85 25.3935 334.333 25.2642 334.913 25.2642C335.443 25.2642 335.905 25.3802 336.3 25.6122C336.697 25.8409 337.006 26.1707 337.224 26.6016C337.447 27.0291 337.556 27.5412 337.553 28.1378V33H335.435V28.5156C335.438 28.045 335.319 27.6787 335.077 27.4169C334.838 27.1551 334.503 27.0241 334.072 27.0241C333.784 27.0241 333.529 27.0855 333.307 27.2081C333.088 27.3307 332.916 27.5097 332.79 27.745C332.667 27.977 332.604 28.2571 332.601 28.5852ZM35.2955 51.1491C34.5232 51.1491 33.8554 50.9851 33.2919 50.657C32.7318 50.3255 32.2992 49.8648 31.9943 49.2749C31.6894 48.6816 31.5369 47.9938 31.5369 47.2116C31.5369 46.4228 31.6894 45.7334 31.9943 45.1435C32.2992 44.5502 32.7318 44.0895 33.2919 43.7614C33.8554 43.4299 34.5232 43.2642 35.2955 43.2642C36.0677 43.2642 36.7339 43.4299 37.294 43.7614C37.8575 44.0895 38.2917 44.5502 38.5966 45.1435C38.9015 45.7334 39.054 46.4228 39.054 47.2116C39.054 47.9938 38.9015 48.6816 38.5966 49.2749C38.2917 49.8648 37.8575 50.3255 37.294 50.657C36.7339 50.9851 36.0677 51.1491 35.2955 51.1491ZM35.3054 49.5085C35.6567 49.5085 35.95 49.4091 36.1854 49.2102C36.4207 49.008 36.598 48.733 36.7173 48.3849C36.84 48.0369 36.9013 47.6409 36.9013 47.1967C36.9013 46.7526 36.84 46.3565 36.7173 46.0085C36.598 45.6605 36.4207 45.3854 36.1854 45.1832C35.95 44.9811 35.6567 44.88 35.3054 44.88C34.9508 44.88 34.6525 44.9811 34.4105 45.1832C34.1719 45.3854 33.9912 45.6605 33.8686 46.0085C33.7493 46.3565 33.6896 46.7526 33.6896 47.1967C33.6896 47.6409 33.7493 48.0369 33.8686 48.3849C33.9912 48.733 34.1719 49.008 34.4105 49.2102C34.6525 49.4091 34.9508 49.5085 35.3054 49.5085ZM45.4881 47.7486V43.3636H47.606V51H45.5726V49.6129H45.4931C45.3207 50.0604 45.0341 50.42 44.633 50.6918C44.2353 50.9635 43.7497 51.0994 43.1763 51.0994C42.6659 51.0994 42.2168 50.9834 41.829 50.7514C41.4412 50.5194 41.138 50.1896 40.9192 49.7621C40.7038 49.3345 40.5944 48.8224 40.5911 48.2259V43.3636H42.709V47.848C42.7123 48.2988 42.8333 48.6551 43.0719 48.9169C43.3106 49.1787 43.6304 49.3097 44.0314 49.3097C44.2867 49.3097 44.5253 49.2517 44.7474 49.1357C44.9694 49.0163 45.1484 48.8407 45.2843 48.6087C45.4235 48.3767 45.4914 48.09 45.4881 47.7486ZM49.4601 51V43.3636H51.5134V44.696H51.5929C51.7321 44.2221 51.9658 43.8641 52.2939 43.6222C52.622 43.3769 52.9999 43.2543 53.4274 43.2543C53.5335 43.2543 53.6478 43.2609 53.7705 43.2741C53.8931 43.2874 54.0008 43.3056 54.0936 43.3288V45.2081C53.9942 45.1783 53.8566 45.1518 53.681 45.1286C53.5053 45.1054 53.3446 45.0938 53.1987 45.0938C52.8872 45.0938 52.6088 45.1617 52.3635 45.2976C52.1216 45.4302 51.9293 45.6158 51.7868 45.8544C51.6476 46.093 51.578 46.3681 51.578 46.6797V51H49.4601ZM111.648 51.1293C111.32 51.1293 111.038 51.0133 110.802 50.7812C110.57 50.5459 110.454 50.2642 110.454 49.9361C110.454 49.6113 110.57 49.3329 110.802 49.1009C111.038 48.8688 111.32 48.7528 111.648 48.7528C111.966 48.7528 112.244 48.8688 112.483 49.1009C112.721 49.3329 112.841 49.6113 112.841 49.9361C112.841 50.1548 112.784 50.3554 112.672 50.5376C112.562 50.7166 112.418 50.8608 112.239 50.9702C112.06 51.0762 111.863 51.1293 111.648 51.1293Z" fill="#EBEDFA"/>
<path d="M60.2552 51L58.1771 43.3636H60.3199L61.5031 48.4943H61.5727L62.8057 43.3636H64.9086L66.1615 48.4645H66.2261L67.3895 43.3636H69.5273L67.4541 51H65.2119L63.8994 46.1974H63.8049L62.4924 51H60.2552ZM72.9946 51.1442C72.5074 51.1442 72.0732 51.0597 71.692 50.8906C71.3109 50.7183 71.0093 50.4647 70.7872 50.13C70.5685 49.7919 70.4591 49.371 70.4591 48.8672C70.4591 48.4429 70.537 48.0866 70.6928 47.7983C70.8485 47.5099 71.0607 47.2779 71.3291 47.1023C71.5976 46.9266 71.9025 46.794 72.2439 46.7045C72.5886 46.6151 72.9499 46.5521 73.3277 46.5156C73.7718 46.4692 74.1298 46.4261 74.4016 46.3864C74.6733 46.3433 74.8705 46.2803 74.9932 46.1974C75.1158 46.1146 75.1771 45.992 75.1771 45.8295V45.7997C75.1771 45.4848 75.0777 45.2412 74.8788 45.0689C74.6833 44.8965 74.4049 44.8104 74.0436 44.8104C73.6625 44.8104 73.3592 44.8949 73.1338 45.0639C72.9084 45.2296 72.7593 45.4384 72.6864 45.6903L70.7276 45.5312C70.827 45.0672 71.0225 44.6662 71.3142 44.3281C71.6059 43.9867 71.9821 43.7249 72.4428 43.5426C72.9068 43.357 73.4437 43.2642 74.0536 43.2642C74.4778 43.2642 74.8838 43.3139 75.2716 43.4134C75.6627 43.5128 76.009 43.6669 76.3107 43.8757C76.6156 44.0845 76.8559 44.353 77.0315 44.6811C77.2072 45.0059 77.295 45.3954 77.295 45.8494V51H75.2865V49.9411H75.2268C75.1042 50.1797 74.9402 50.3902 74.7347 50.5724C74.5292 50.7514 74.2822 50.8923 73.9939 50.995C73.7055 51.0945 73.3724 51.1442 72.9946 51.1442ZM73.6011 49.6825C73.9127 49.6825 74.1878 49.6212 74.4264 49.4986C74.6651 49.3726 74.8523 49.2036 74.9882 48.9915C75.1241 48.7794 75.192 48.5391 75.192 48.2706V47.4602C75.1258 47.5033 75.0346 47.5431 74.9186 47.5795C74.8059 47.6127 74.6783 47.6442 74.5358 47.674C74.3933 47.7005 74.2508 47.7254 74.1082 47.7486C73.9657 47.7685 73.8365 47.7867 73.7205 47.8033C73.4719 47.8397 73.2548 47.8977 73.0692 47.9773C72.8836 48.0568 72.7394 48.1645 72.6366 48.3004C72.5339 48.433 72.4825 48.5987 72.4825 48.7976C72.4825 49.0859 72.5869 49.3063 72.7957 49.4588C73.0079 49.608 73.2763 49.6825 73.6011 49.6825ZM79.0981 51V43.3636H81.216V51H79.0981ZM80.1621 42.3793C79.8472 42.3793 79.5771 42.2749 79.3517 42.0661C79.1296 41.8539 79.0186 41.6004 79.0186 41.3054C79.0186 41.0137 79.1296 40.7635 79.3517 40.5547C79.5771 40.3426 79.8472 40.2365 80.1621 40.2365C80.4769 40.2365 80.7454 40.3426 80.9675 40.5547C81.1928 40.7635 81.3055 41.0137 81.3055 41.3054C81.3055 41.6004 81.1928 41.8539 80.9675 42.0661C80.7454 42.2749 80.4769 42.3793 80.1621 42.3793ZM87.1344 43.3636V44.9545H82.5357V43.3636H87.1344ZM83.5797 41.5341H85.6976V48.6534C85.6976 48.849 85.7274 49.0014 85.7871 49.1108C85.8467 49.2169 85.9296 49.2914 86.0357 49.3345C86.145 49.3776 86.271 49.3991 86.4135 49.3991C86.5129 49.3991 86.6124 49.3909 86.7118 49.3743C86.8112 49.3544 86.8875 49.3395 86.9405 49.3295L87.2736 50.9055C87.1675 50.9387 87.0184 50.9768 86.8261 51.0199C86.6339 51.0663 86.4002 51.0945 86.1251 51.1044C85.6147 51.1243 85.1673 51.0563 84.7828 50.9006C84.4017 50.7448 84.105 50.5028 83.8929 50.1747C83.6808 49.8466 83.5764 49.4323 83.5797 48.9318V41.5341ZM90.956 40.8182V51H88.8381V40.8182H90.956ZM92.8125 51V43.3636H94.9304V51H92.8125ZM93.8764 42.3793C93.5616 42.3793 93.2914 42.2749 93.0661 42.0661C92.844 41.8539 92.733 41.6004 92.733 41.3054C92.733 41.0137 92.844 40.7635 93.0661 40.5547C93.2914 40.3426 93.5616 40.2365 93.8764 40.2365C94.1913 40.2365 94.4598 40.3426 94.6818 40.5547C94.9072 40.7635 95.0199 41.0137 95.0199 41.3054C95.0199 41.6004 94.9072 41.8539 94.6818 42.0661C94.4598 42.2749 94.1913 42.3793 93.8764 42.3793ZM103.141 45.5412L101.202 45.6605C101.169 45.4948 101.097 45.3456 100.988 45.2131C100.879 45.0772 100.734 44.9695 100.555 44.8899C100.38 44.8071 100.169 44.7656 99.924 44.7656C99.5959 44.7656 99.3192 44.8352 99.0938 44.9744C98.8684 45.1103 98.7557 45.2926 98.7557 45.5213C98.7557 45.7036 98.8286 45.8577 98.9745 45.9837C99.1203 46.1096 99.3705 46.2107 99.7252 46.2869L101.107 46.5653C101.85 46.7178 102.403 46.9631 102.768 47.3011C103.132 47.6392 103.315 48.0833 103.315 48.6335C103.315 49.134 103.167 49.5732 102.872 49.951C102.581 50.3288 102.179 50.6238 101.669 50.8359C101.162 51.0447 100.577 51.1491 99.9141 51.1491C98.9032 51.1491 98.0978 50.9387 97.4979 50.5178C96.9013 50.0935 96.5516 49.5168 96.4489 48.7876L98.532 48.6783C98.595 48.9865 98.7474 49.2218 98.9894 49.3842C99.2313 49.5433 99.5412 49.6229 99.9191 49.6229C100.29 49.6229 100.589 49.5516 100.814 49.4091C101.043 49.2633 101.159 49.076 101.162 48.8473C101.159 48.6551 101.077 48.4976 100.918 48.375C100.759 48.2491 100.514 48.1529 100.183 48.0866L98.8601 47.8232C98.1144 47.674 97.5592 47.4155 97.1946 47.0476C96.8334 46.6797 96.6527 46.2107 96.6527 45.6406C96.6527 45.1501 96.7853 44.7275 97.0505 44.3729C97.3189 44.0182 97.6951 43.7448 98.179 43.5526C98.6662 43.3603 99.2363 43.2642 99.8892 43.2642C100.854 43.2642 101.613 43.468 102.166 43.8757C102.723 44.2834 103.048 44.8385 103.141 45.5412ZM108.87 43.3636V44.9545H104.271V43.3636H108.87ZM105.315 41.5341H107.433V48.6534C107.433 48.849 107.463 49.0014 107.523 49.1108C107.582 49.2169 107.665 49.2914 107.771 49.3345C107.881 49.3776 108.007 49.3991 108.149 49.3991C108.249 49.3991 108.348 49.3909 108.448 49.3743C108.547 49.3544 108.623 49.3395 108.676 49.3295L109.009 50.9055C108.903 50.9387 108.754 50.9768 108.562 51.0199C108.37 51.0663 108.136 51.0945 107.861 51.1044C107.35 51.1243 106.903 51.0563 106.519 50.9006C106.137 50.7448 105.841 50.5028 105.629 50.1747C105.416 49.8466 105.312 49.4323 105.315 48.9318V41.5341Z" fill="#8B7CFF"/>
<path d="M7.75781 16.6875L1.27344 10.2031C0.882812 9.8125 0.882812 9.14844 1.27344 8.75781L2.67969 7.35156C3.07031 6.96094 3.69531 6.96094 4.08594 7.35156L8.5 11.7266L17.875 2.35156C18.2656 1.96094 18.8906 1.96094 19.2812 2.35156L20.6875 3.75781C21.0781 4.14844 21.0781 4.8125 20.6875 5.20312L9.20312 16.6875C8.8125 17.0781 8.14844 17.0781 7.75781 16.6875Z" fill="#599F2A"/>
</svg>
