<svg width="359" height="18" viewBox="0 0 359 18" fill="none" xmlns="http://www.w3.org/2000/svg">
<path d="M31.8849 15V4.81818H38.7457V6.59304H34.0376V9.01918H38.3928V10.794H34.0376V13.2251H38.7656V15H31.8849ZM42.3473 7.36364L43.7493 10.0334L45.1861 7.36364H47.3587L45.1463 11.1818L47.4183 15H45.2557L43.7493 12.3601L42.2678 15H40.0803L42.3473 11.1818L40.1598 7.36364H42.3473ZM48.7765 17.8636V7.36364H50.8646V8.64631H50.959C51.0518 8.44081 51.1861 8.23201 51.3617 8.01989C51.5407 7.80445 51.7727 7.62547 52.0577 7.48295C52.3461 7.33712 52.7041 7.2642 53.1316 7.2642C53.6884 7.2642 54.2022 7.41004 54.6728 7.7017C55.1434 7.99006 55.5196 8.4259 55.8014 9.00923C56.0831 9.58925 56.2239 10.3168 56.2239 11.1918C56.2239 12.0436 56.0864 12.7628 55.8113 13.3494C55.5395 13.9328 55.1683 14.3752 54.6977 14.6768C54.2303 14.9751 53.7067 15.1243 53.1266 15.1243C52.7157 15.1243 52.366 15.0563 52.0776 14.9205C51.7926 14.7846 51.5589 14.6139 51.3766 14.4084C51.1943 14.1996 51.0551 13.9891 50.959 13.777H50.8944V17.8636H48.7765ZM50.8497 11.1818C50.8497 11.6359 50.9126 12.032 51.0386 12.37C51.1645 12.7081 51.3468 12.9716 51.5854 13.1605C51.8241 13.3461 52.1141 13.4389 52.4555 13.4389C52.8002 13.4389 53.0918 13.3445 53.3305 13.1555C53.5691 12.9633 53.7497 12.6982 53.8724 12.3601C53.9983 12.0187 54.0613 11.6259 54.0613 11.1818C54.0613 10.741 54 10.3532 53.8774 10.0185C53.7547 9.68371 53.5741 9.42187 53.3354 9.23295C53.0968 9.04403 52.8035 8.94957 52.4555 8.94957C52.1108 8.94957 51.8191 9.04072 51.5805 9.22301C51.3452 9.4053 51.1645 9.66383 51.0386 9.99858C50.9126 10.3333 50.8497 10.7277 50.8497 11.1818ZM61.276 15.1491C60.4905 15.1491 59.8143 14.9901 59.2476 14.6719C58.6841 14.3504 58.2499 13.8963 57.945 13.3097C57.6401 12.7197 57.4876 12.022 57.4876 11.2166C57.4876 10.4311 57.6401 9.74171 57.945 9.14844C58.2499 8.55516 58.6792 8.0928 59.2327 7.76136C59.7895 7.42992 60.4424 7.2642 61.1915 7.2642C61.6953 7.2642 62.1642 7.34541 62.5984 7.50781C63.0359 7.6669 63.4171 7.9072 63.7419 8.22869C64.07 8.55019 64.3252 8.95455 64.5075 9.44176C64.6898 9.92566 64.781 10.4924 64.781 11.142V11.7237H58.3328V10.4112H62.7874C62.7874 10.1063 62.7211 9.83617 62.5885 9.60085C62.4559 9.36553 62.272 9.18158 62.0366 9.04901C61.8046 8.91312 61.5345 8.84517 61.2263 8.84517C60.9048 8.84517 60.6197 8.91974 60.3712 9.06889C60.1259 9.21473 59.9337 9.41193 59.7945 9.66051C59.6552 9.90578 59.584 10.1792 59.5807 10.4808V11.7287C59.5807 12.1065 59.6503 12.433 59.7895 12.7081C59.932 12.9832 60.1325 13.1953 60.391 13.3445C60.6496 13.4936 60.9561 13.5682 61.3108 13.5682C61.5461 13.5682 61.7615 13.535 61.9571 13.4688C62.1526 13.4025 62.32 13.303 62.4592 13.1705C62.5984 13.0379 62.7045 12.8755 62.7774 12.6832L64.7362 12.8125C64.6368 13.2831 64.4329 13.6941 64.1247 14.0455C63.8198 14.3935 63.4254 14.6652 62.9415 14.8608C62.4609 15.053 61.9057 15.1491 61.276 15.1491ZM69.7733 15.1491C68.9911 15.1491 68.3183 14.9834 67.7549 14.652C67.1947 14.3172 66.7639 13.8532 66.4623 13.2599C66.164 12.6667 66.0148 11.9839 66.0148 11.2116C66.0148 10.4295 66.1656 9.74337 66.4672 9.15341C66.7722 8.56013 67.2047 8.09777 67.7648 7.76633C68.325 7.43158 68.9911 7.2642 69.7634 7.2642C70.4296 7.2642 71.0129 7.38518 71.5134 7.62713C72.0139 7.86908 72.4099 8.20881 72.7016 8.64631C72.9933 9.08381 73.154 9.59754 73.1839 10.1875H71.1853C71.1289 9.80634 70.9798 9.49976 70.7378 9.26776C70.4992 9.03243 70.186 8.91477 69.7982 8.91477C69.4701 8.91477 69.1834 9.00426 68.9381 9.18324C68.6962 9.3589 68.5072 9.61577 68.3714 9.95384C68.2355 10.2919 68.1675 10.7012 68.1675 11.1818C68.1675 11.669 68.2338 12.0833 68.3664 12.4247C68.5023 12.7661 68.6929 13.0263 68.9381 13.2053C69.1834 13.3842 69.4701 13.4737 69.7982 13.4737C70.0402 13.4737 70.2572 13.424 70.4495 13.3246C70.645 13.2251 70.8058 13.081 70.9317 12.892C71.061 12.6998 71.1455 12.4695 71.1853 12.201H73.1839C73.1507 12.7843 72.9916 13.2981 72.7066 13.7422C72.4249 14.183 72.0354 14.5277 71.5383 14.7763C71.0411 15.0249 70.4528 15.1491 69.7733 15.1491ZM78.7616 7.36364V8.95455H74.1629V7.36364H78.7616ZM75.207 5.53409H77.3249V12.6534C77.3249 12.849 77.3547 13.0014 77.4143 13.1108C77.474 13.2169 77.5569 13.2914 77.6629 13.3345C77.7723 13.3776 77.8982 13.3991 78.0408 13.3991C78.1402 13.3991 78.2396 13.3909 78.3391 13.3743C78.4385 13.3544 78.5147 13.3395 78.5678 13.3295L78.9009 14.9055C78.7948 14.9387 78.6456 14.9768 78.4534 15.0199C78.2612 15.0663 78.0275 15.0945 77.7524 15.1044C77.242 15.1243 76.7946 15.0563 76.4101 14.9006C76.0289 14.7448 75.7323 14.5028 75.5202 14.1747C75.308 13.8466 75.2036 13.4323 75.207 12.9318V5.53409ZM83.6993 15.1491C82.9138 15.1491 82.2377 14.9901 81.6709 14.6719C81.1075 14.3504 80.6733 13.8963 80.3684 13.3097C80.0635 12.7197 79.911 12.022 79.911 11.2166C79.911 10.4311 80.0635 9.74171 80.3684 9.14844C80.6733 8.55516 81.1025 8.0928 81.656 7.76136C82.2128 7.42992 82.8658 7.2642 83.6148 7.2642C84.1186 7.2642 84.5876 7.34541 85.0218 7.50781C85.4593 7.6669 85.8404 7.9072 86.1653 8.22869C86.4934 8.55019 86.7486 8.95455 86.9309 9.44176C87.1132 9.92566 87.2043 10.4924 87.2043 11.142V11.7237H80.7562V10.4112H85.2107C85.2107 10.1063 85.1444 9.83617 85.0118 9.60085C84.8793 9.36553 84.6953 9.18158 84.46 9.04901C84.228 8.91312 83.9579 8.84517 83.6496 8.84517C83.3281 8.84517 83.0431 8.91974 82.7945 9.06889C82.5493 9.21473 82.357 9.41193 82.2178 9.66051C82.0786 9.90578 82.0073 10.1792 82.004 10.4808V11.7287C82.004 12.1065 82.0736 12.433 82.2128 12.7081C82.3554 12.9832 82.5559 13.1953 82.8144 13.3445C83.0729 13.4936 83.3795 13.5682 83.7341 13.5682C83.9695 13.5682 84.1849 13.535 84.3805 13.4688C84.576 13.4025 84.7434 13.303 84.8826 13.1705C85.0218 13.0379 85.1278 12.8755 85.2008 12.6832L87.1596 12.8125C87.0601 13.2831 86.8563 13.6941 86.5481 14.0455C86.2431 14.3935 85.8487 14.6652 85.3648 14.8608C84.8842 15.053 84.3291 15.1491 83.6993 15.1491ZM91.5603 15.1243C90.9803 15.1243 90.455 14.9751 89.9843 14.6768C89.517 14.3752 89.1458 13.9328 88.8707 13.3494C88.5989 12.7628 88.463 12.0436 88.463 11.1918C88.463 10.3168 88.6039 9.58925 88.8856 9.00923C89.1673 8.4259 89.5419 7.99006 90.0092 7.7017C90.4798 7.41004 90.9952 7.2642 91.5554 7.2642C91.9829 7.2642 92.3392 7.33712 92.6243 7.48295C92.9126 7.62547 93.1446 7.80445 93.3203 8.01989C93.4993 8.23201 93.6352 8.44081 93.728 8.64631H93.7926V4.81818H95.9055V15H93.8174V13.777H93.728C93.6285 13.9891 93.4877 14.1996 93.3054 14.4084C93.1264 14.6139 92.8927 14.7846 92.6044 14.9205C92.3193 15.0563 91.9713 15.1243 91.5603 15.1243ZM92.2315 13.4389C92.5729 13.4389 92.8612 13.3461 93.0966 13.1605C93.3352 12.9716 93.5175 12.7081 93.6434 12.37C93.7727 12.032 93.8373 11.6359 93.8373 11.1818C93.8373 10.7277 93.7744 10.3333 93.6484 9.99858C93.5225 9.66383 93.3402 9.4053 93.1015 9.22301C92.8629 9.04072 92.5729 8.94957 92.2315 8.94957C91.8835 8.94957 91.5902 9.04403 91.3515 9.23295C91.1129 9.42187 90.9323 9.68371 90.8096 10.0185C90.687 10.3532 90.6257 10.741 90.6257 11.1818C90.6257 11.6259 90.687 12.0187 90.8096 12.3601C90.9356 12.6982 91.1162 12.9633 91.3515 13.1555C91.5902 13.3445 91.8835 13.4389 92.2315 13.4389ZM101.207 15V7.36364H103.26V8.69602H103.34C103.479 8.22206 103.713 7.86411 104.041 7.62216C104.369 7.37689 104.747 7.25426 105.174 7.25426C105.28 7.25426 105.395 7.26089 105.517 7.27415C105.64 7.28741 105.748 7.30563 105.841 7.32883V9.2081C105.741 9.17827 105.604 9.15175 105.428 9.12855C105.252 9.10535 105.092 9.09375 104.946 9.09375C104.634 9.09375 104.356 9.1617 104.11 9.29759C103.869 9.43016 103.676 9.61577 103.534 9.8544C103.395 10.093 103.325 10.3681 103.325 10.6797V15H101.207ZM110.22 15.1491C109.435 15.1491 108.759 14.9901 108.192 14.6719C107.628 14.3504 107.194 13.8963 106.889 13.3097C106.584 12.7197 106.432 12.022 106.432 11.2166C106.432 10.4311 106.584 9.74171 106.889 9.14844C107.194 8.55516 107.623 8.0928 108.177 7.76136C108.734 7.42992 109.387 7.2642 110.136 7.2642C110.639 7.2642 111.108 7.34541 111.543 7.50781C111.98 7.6669 112.361 7.9072 112.686 8.22869C113.014 8.55019 113.269 8.95455 113.452 9.44176C113.634 9.92566 113.725 10.4924 113.725 11.142V11.7237H107.277V10.4112H111.732C111.732 10.1063 111.665 9.83617 111.533 9.60085C111.4 9.36553 111.216 9.18158 110.981 9.04901C110.749 8.91312 110.479 8.84517 110.17 8.84517C109.849 8.84517 109.564 8.91974 109.315 9.06889C109.07 9.21473 108.878 9.41193 108.739 9.66051C108.599 9.90578 108.528 10.1792 108.525 10.4808V11.7287C108.525 12.1065 108.594 12.433 108.734 12.7081C108.876 12.9832 109.077 13.1953 109.335 13.3445C109.594 13.4936 109.9 13.5682 110.255 13.5682C110.49 13.5682 110.706 13.535 110.901 13.4688C111.097 13.4025 111.264 13.303 111.403 13.1705C111.543 13.0379 111.649 12.8755 111.722 12.6832L113.68 12.8125C113.581 13.2831 113.377 13.6941 113.069 14.0455C112.764 14.3935 112.37 14.6652 111.886 14.8608C111.405 15.053 110.85 15.1491 110.22 15.1491ZM117.385 4.81818V15H115.267V4.81818H117.385ZM122.722 15.1491C121.936 15.1491 121.26 14.9901 120.693 14.6719C120.13 14.3504 119.696 13.8963 119.391 13.3097C119.086 12.7197 118.933 12.022 118.933 11.2166C118.933 10.4311 119.086 9.74171 119.391 9.14844C119.696 8.55516 120.125 8.0928 120.679 7.76136C121.235 7.42992 121.888 7.2642 122.637 7.2642C123.141 7.2642 123.61 7.34541 124.044 7.50781C124.482 7.6669 124.863 7.9072 125.188 8.22869C125.516 8.55019 125.771 8.95455 125.953 9.44176C126.136 9.92566 126.227 10.4924 126.227 11.142V11.7237H119.779V10.4112H124.233C124.233 10.1063 124.167 9.83617 124.034 9.60085C123.902 9.36553 123.718 9.18158 123.482 9.04901C123.25 8.91312 122.98 8.84517 122.672 8.84517C122.351 8.84517 122.066 8.91974 121.817 9.06889C121.572 9.21473 121.38 9.41193 121.24 9.66051C121.101 9.90578 121.03 10.1792 121.027 10.4808V11.7287C121.027 12.1065 121.096 12.433 121.235 12.7081C121.378 12.9832 121.578 13.1953 121.837 13.3445C122.095 13.4936 122.402 13.5682 122.757 13.5682C122.992 13.5682 123.207 13.535 123.403 13.4688C123.599 13.4025 123.766 13.303 123.905 13.1705C124.044 13.0379 124.15 12.8755 124.223 12.6832L126.182 12.8125C126.083 13.2831 125.879 13.6941 125.571 14.0455C125.266 14.3935 124.871 14.6652 124.387 14.8608C123.907 15.053 123.352 15.1491 122.722 15.1491ZM129.946 15.1442C129.459 15.1442 129.025 15.0597 128.644 14.8906C128.263 14.7183 127.961 14.4647 127.739 14.13C127.52 13.7919 127.411 13.371 127.411 12.8672C127.411 12.4429 127.489 12.0866 127.645 11.7983C127.8 11.5099 128.013 11.2779 128.281 11.1023C128.549 10.9266 128.854 10.794 129.196 10.7045C129.54 10.6151 129.902 10.5521 130.28 10.5156C130.724 10.4692 131.082 10.4261 131.353 10.3864C131.625 10.3433 131.822 10.2803 131.945 10.1974C132.068 10.1146 132.129 9.99195 132.129 9.82955V9.79972C132.129 9.48485 132.03 9.24124 131.831 9.06889C131.635 8.89654 131.357 8.81037 130.995 8.81037C130.614 8.81037 130.311 8.89489 130.086 9.06392C129.86 9.22964 129.711 9.43845 129.638 9.69034L127.679 9.53125C127.779 9.06723 127.974 8.66619 128.266 8.32812C128.558 7.98674 128.934 7.7249 129.395 7.54261C129.859 7.35701 130.396 7.2642 131.005 7.2642C131.43 7.2642 131.836 7.31392 132.223 7.41335C132.615 7.51278 132.961 7.6669 133.263 7.87571C133.567 8.08452 133.808 8.35298 133.983 8.68111C134.159 9.00592 134.247 9.39536 134.247 9.84943V15H132.238V13.9411H132.179C132.056 14.1797 131.892 14.3902 131.687 14.5724C131.481 14.7514 131.234 14.8923 130.946 14.995C130.657 15.0945 130.324 15.1442 129.946 15.1442ZM130.553 13.6825C130.865 13.6825 131.14 13.6212 131.378 13.4986C131.617 13.3726 131.804 13.2036 131.94 12.9915C132.076 12.7794 132.144 12.5391 132.144 12.2706V11.4602C132.078 11.5033 131.986 11.5431 131.87 11.5795C131.758 11.6127 131.63 11.6442 131.488 11.674C131.345 11.7005 131.203 11.7254 131.06 11.7486C130.918 11.7685 130.788 11.7867 130.672 11.8033C130.424 11.8397 130.207 11.8977 130.021 11.9773C129.835 12.0568 129.691 12.1645 129.589 12.3004C129.486 12.433 129.434 12.5987 129.434 12.7976C129.434 13.0859 129.539 13.3063 129.748 13.4588C129.96 13.608 130.228 13.6825 130.553 13.6825ZM142.404 9.54119L140.465 9.66051C140.432 9.49479 140.36 9.34564 140.251 9.21307C140.142 9.07718 139.997 8.96946 139.818 8.88991C139.643 8.80705 139.432 8.76562 139.187 8.76562C138.859 8.76562 138.582 8.83523 138.357 8.97443C138.131 9.11032 138.019 9.29261 138.019 9.52131C138.019 9.7036 138.092 9.85772 138.238 9.98366C138.383 10.1096 138.634 10.2107 138.988 10.2869L140.37 10.5653C141.113 10.7178 141.666 10.9631 142.031 11.3011C142.395 11.6392 142.578 12.0833 142.578 12.6335C142.578 13.134 142.43 13.5732 142.135 13.951C141.844 14.3288 141.443 14.6238 140.932 14.8359C140.425 15.0447 139.84 15.1491 139.177 15.1491C138.166 15.1491 137.361 14.9387 136.761 14.5178C136.164 14.0935 135.815 13.5168 135.712 12.7876L137.795 12.6783C137.858 12.9865 138.01 13.2218 138.252 13.3842C138.494 13.5433 138.804 13.6229 139.182 13.6229C139.553 13.6229 139.852 13.5516 140.077 13.4091C140.306 13.2633 140.422 13.076 140.425 12.8473C140.422 12.6551 140.34 12.4976 140.181 12.375C140.022 12.2491 139.777 12.1529 139.446 12.0866L138.123 11.8232C137.377 11.674 136.822 11.4155 136.458 11.0476C136.096 10.6797 135.916 10.2107 135.916 9.64062C135.916 9.15009 136.048 8.72751 136.314 8.37287C136.582 8.01823 136.958 7.74479 137.442 7.55256C137.929 7.36032 138.499 7.2642 139.152 7.2642C140.117 7.2642 140.876 7.46804 141.429 7.87571C141.986 8.28338 142.311 8.83854 142.404 9.54119ZM147.551 15.1491C146.766 15.1491 146.09 14.9901 145.523 14.6719C144.96 14.3504 144.525 13.8963 144.22 13.3097C143.916 12.7197 143.763 12.022 143.763 11.2166C143.763 10.4311 143.916 9.74171 144.22 9.14844C144.525 8.55516 144.955 8.0928 145.508 7.76136C146.065 7.42992 146.718 7.2642 147.467 7.2642C147.971 7.2642 148.44 7.34541 148.874 7.50781C149.311 7.6669 149.693 7.9072 150.017 8.22869C150.345 8.55019 150.601 8.95455 150.783 9.44176C150.965 9.92566 151.056 10.4924 151.056 11.142V11.7237H144.608V10.4112H149.063C149.063 10.1063 148.997 9.83617 148.864 9.60085C148.731 9.36553 148.547 9.18158 148.312 9.04901C148.08 8.91312 147.81 8.84517 147.502 8.84517C147.18 8.84517 146.895 8.91974 146.647 9.06889C146.401 9.21473 146.209 9.41193 146.07 9.66051C145.931 9.90578 145.859 10.1792 145.856 10.4808V11.7287C145.856 12.1065 145.926 12.433 146.065 12.7081C146.207 12.9832 146.408 13.1953 146.667 13.3445C146.925 13.4936 147.232 13.5682 147.586 13.5682C147.822 13.5682 148.037 13.535 148.233 13.4688C148.428 13.4025 148.595 13.303 148.735 13.1705C148.874 13.0379 148.98 12.8755 149.053 12.6832L151.012 12.8125C150.912 13.2831 150.708 13.6941 150.4 14.0455C150.095 14.3935 149.701 14.6652 149.217 14.8608C148.736 15.053 148.181 15.1491 147.551 15.1491ZM153.836 15.1293C153.508 15.1293 153.227 15.0133 152.991 14.7812C152.759 14.5459 152.643 14.2642 152.643 13.9361C152.643 13.6113 152.759 13.3329 152.991 13.1009C153.227 12.8688 153.508 12.7528 153.836 12.7528C154.155 12.7528 154.433 12.8688 154.672 13.1009C154.91 13.3329 155.03 13.6113 155.03 13.9361C155.03 14.1548 154.973 14.3554 154.861 14.5376C154.751 14.7166 154.607 14.8608 154.428 14.9702C154.249 15.0762 154.052 15.1293 153.836 15.1293ZM153.836 9.77983C153.508 9.77983 153.227 9.66383 152.991 9.43182C152.759 9.19981 152.643 8.91809 152.643 8.58665C152.643 8.26184 152.759 7.98509 152.991 7.75639C153.227 7.52438 153.508 7.40838 153.836 7.40838C154.155 7.40838 154.433 7.52438 154.672 7.75639C154.91 7.98509 155.03 8.26184 155.03 8.58665C155.03 8.80871 154.973 9.01089 154.861 9.19318C154.751 9.37216 154.607 9.51468 154.428 9.62074C154.249 9.7268 154.052 9.77983 153.836 9.77983ZM164.212 11.4602H166.041L166.961 12.6435L167.866 13.6974L169.571 15.8352H167.562L166.389 14.3935L165.787 13.5384L164.212 11.4602ZM169.725 9.90909C169.725 11.0194 169.515 11.964 169.094 12.7429C168.676 13.5218 168.106 14.1167 167.383 14.5277C166.664 14.9354 165.855 15.1392 164.957 15.1392C164.052 15.1392 163.24 14.9337 162.521 14.5227C161.802 14.1117 161.234 13.5168 160.816 12.7379C160.398 11.959 160.189 11.0161 160.189 9.90909C160.189 8.79877 160.398 7.85417 160.816 7.07528C161.234 6.2964 161.802 5.70312 162.521 5.29545C163.24 4.88447 164.052 4.67898 164.957 4.67898C165.855 4.67898 166.664 4.88447 167.383 5.29545C168.106 5.70312 168.676 6.2964 169.094 7.07528C169.515 7.85417 169.725 8.79877 169.725 9.90909ZM167.542 9.90909C167.542 9.18987 167.435 8.58333 167.219 8.08949C167.007 7.59564 166.707 7.22112 166.319 6.96591C165.932 6.7107 165.478 6.5831 164.957 6.5831C164.437 6.5831 163.983 6.7107 163.595 6.96591C163.207 7.22112 162.906 7.59564 162.69 8.08949C162.478 8.58333 162.372 9.18987 162.372 9.90909C162.372 10.6283 162.478 11.2348 162.69 11.7287C162.906 12.2225 163.207 12.5971 163.595 12.8523C163.983 13.1075 164.437 13.2351 164.957 13.2351C165.478 13.2351 165.932 13.1075 166.319 12.8523C166.707 12.5971 167.007 12.2225 167.219 11.7287C167.435 11.2348 167.542 10.6283 167.542 9.90909ZM171.42 15V13.4489L175.044 10.093C175.352 9.79474 175.611 9.52628 175.82 9.28764C176.032 9.04901 176.193 8.81534 176.302 8.58665C176.411 8.35464 176.466 8.1044 176.466 7.83594C176.466 7.53764 176.398 7.28078 176.262 7.06534C176.126 6.84659 175.941 6.67921 175.705 6.56321C175.47 6.44389 175.203 6.38423 174.905 6.38423C174.593 6.38423 174.322 6.44721 174.09 6.57315C173.858 6.6991 173.679 6.87973 173.553 7.11506C173.427 7.35038 173.364 7.63044 173.364 7.95526H171.321C171.321 7.28906 171.471 6.7107 171.773 6.22017C172.075 5.72964 172.497 5.35014 173.041 5.08168C173.584 4.81321 174.211 4.67898 174.92 4.67898C175.649 4.67898 176.284 4.80824 176.824 5.06676C177.368 5.32197 177.79 5.67661 178.092 6.13068C178.393 6.58475 178.544 7.10511 178.544 7.69176C178.544 8.07623 178.468 8.45573 178.316 8.83026C178.166 9.20478 177.9 9.62074 177.515 10.0781C177.131 10.5322 176.589 11.0774 175.889 11.7138L174.403 13.1705V13.2401H178.678V15H171.42ZM183.799 15V13.4489L187.423 10.093C187.731 9.79474 187.99 9.52628 188.198 9.28764C188.411 9.04901 188.571 8.81534 188.681 8.58665C188.79 8.35464 188.845 8.1044 188.845 7.83594C188.845 7.53764 188.777 7.28078 188.641 7.06534C188.505 6.84659 188.319 6.67921 188.084 6.56321C187.849 6.44389 187.582 6.38423 187.284 6.38423C186.972 6.38423 186.7 6.44721 186.468 6.57315C186.236 6.6991 186.057 6.87973 185.931 7.11506C185.805 7.35038 185.742 7.63044 185.742 7.95526H183.699C183.699 7.28906 183.85 6.7107 184.152 6.22017C184.453 5.72964 184.876 5.35014 185.419 5.08168C185.963 4.81321 186.589 4.67898 187.299 4.67898C188.028 4.67898 188.662 4.80824 189.203 5.06676C189.746 5.32197 190.169 5.67661 190.47 6.13068C190.772 6.58475 190.923 7.10511 190.923 7.69176C190.923 8.07623 190.847 8.45573 190.694 8.83026C190.545 9.20478 190.278 9.62074 189.894 10.0781C189.509 10.5322 188.967 11.0774 188.268 11.7138L186.782 13.1705V13.2401H191.057V15H183.799ZM196.769 15.2237C195.914 15.2204 195.178 15.0099 194.562 14.5923C193.949 14.1747 193.476 13.5698 193.145 12.7777C192.817 11.9856 192.654 11.0327 192.658 9.91903C192.658 8.80871 192.822 7.86245 193.15 7.08026C193.481 6.29806 193.954 5.70312 194.567 5.29545C195.183 4.88447 195.917 4.67898 196.769 4.67898C197.621 4.67898 198.353 4.88447 198.967 5.29545C199.583 5.70644 200.057 6.30303 200.388 7.08523C200.72 7.86411 200.884 8.80871 200.881 9.91903C200.881 11.036 200.715 11.9905 200.383 12.7827C200.055 13.5748 199.585 14.1797 198.972 14.5973C198.358 15.0149 197.624 15.2237 196.769 15.2237ZM196.769 13.4389C197.352 13.4389 197.818 13.1456 198.166 12.5589C198.514 11.9723 198.686 11.0923 198.683 9.91903C198.683 9.14678 198.604 8.50379 198.445 7.99006C198.289 7.47633 198.067 7.0902 197.778 6.83168C197.493 6.57315 197.157 6.44389 196.769 6.44389C196.189 6.44389 195.725 6.7339 195.377 7.31392C195.029 7.89394 194.853 8.76231 194.85 9.91903C194.85 10.7012 194.928 11.3542 195.084 11.8778C195.243 12.3982 195.467 12.7893 195.755 13.0511C196.043 13.3097 196.381 13.4389 196.769 13.4389ZM202.576 15V13.4489L206.2 10.093C206.508 9.79474 206.767 9.52628 206.975 9.28764C207.188 9.04901 207.348 8.81534 207.458 8.58665C207.567 8.35464 207.622 8.1044 207.622 7.83594C207.622 7.53764 207.554 7.28078 207.418 7.06534C207.282 6.84659 207.096 6.67921 206.861 6.56321C206.626 6.44389 206.359 6.38423 206.061 6.38423C205.749 6.38423 205.477 6.44721 205.245 6.57315C205.013 6.6991 204.834 6.87973 204.708 7.11506C204.582 7.35038 204.519 7.63044 204.519 7.95526H202.476C202.476 7.28906 202.627 6.7107 202.929 6.22017C203.23 5.72964 203.653 5.35014 204.196 5.08168C204.74 4.81321 205.366 4.67898 206.076 4.67898C206.805 4.67898 207.439 4.80824 207.98 5.06676C208.523 5.32197 208.946 5.67661 209.247 6.13068C209.549 6.58475 209.7 7.10511 209.7 7.69176C209.7 8.07623 209.624 8.45573 209.471 8.83026C209.322 9.20478 209.055 9.62074 208.671 10.0781C208.286 10.5322 207.744 11.0774 207.045 11.7138L205.559 13.1705V13.2401H209.834V15H202.576ZM215.317 15.1392C214.575 15.1392 213.914 15.0116 213.334 14.7564C212.757 14.4979 212.301 14.1432 211.967 13.6925C211.635 13.2384 211.464 12.7147 211.455 12.1214H213.622C213.635 12.37 213.717 12.5888 213.866 12.7777C214.018 12.9633 214.22 13.1075 214.472 13.2102C214.724 13.313 215.008 13.3643 215.322 13.3643C215.651 13.3643 215.941 13.3063 216.192 13.1903C216.444 13.0743 216.642 12.9136 216.784 12.7081C216.927 12.5026 216.998 12.2656 216.998 11.9972C216.998 11.7254 216.922 11.4851 216.769 11.2763C216.62 11.0642 216.405 10.8984 216.123 10.7791C215.844 10.6598 215.513 10.6001 215.129 10.6001H214.179V9.01918H215.129C215.453 9.01918 215.74 8.96283 215.989 8.85014C216.241 8.73745 216.436 8.58168 216.575 8.38281C216.714 8.18063 216.784 7.94531 216.784 7.67685C216.784 7.42164 216.723 7.19792 216.6 7.00568C216.481 6.81013 216.312 6.65767 216.093 6.5483C215.878 6.43892 215.626 6.38423 215.337 6.38423C215.046 6.38423 214.779 6.43726 214.537 6.54332C214.295 6.64607 214.101 6.79356 213.955 6.9858C213.809 7.17803 213.732 7.40341 213.722 7.66193H211.658C211.668 7.07528 211.836 6.55824 212.16 6.1108C212.485 5.66335 212.923 5.31368 213.473 5.06179C214.026 4.80658 214.651 4.67898 215.347 4.67898C216.05 4.67898 216.665 4.80658 217.192 5.06179C217.719 5.317 218.128 5.66169 218.42 6.09588C218.715 6.52675 218.861 7.01065 218.857 7.54758C218.861 8.11766 218.683 8.59328 218.325 8.97443C217.971 9.35559 217.508 9.59754 216.938 9.70028V9.77983C217.687 9.87595 218.257 10.1361 218.648 10.5604C219.043 10.9813 219.238 11.5083 219.235 12.1413C219.238 12.7214 219.071 13.2367 218.733 13.6875C218.398 14.1383 217.936 14.4929 217.346 14.7514C216.756 15.0099 216.08 15.1392 215.317 15.1392Z" fill="#EBEDFA"/>
<path d="M7.75781 16.6875L1.27344 10.2031C0.882812 9.8125 0.882812 9.14844 1.27344 8.75781L2.67969 7.35156C3.07031 6.96094 3.69531 6.96094 4.08594 7.35156L8.5 11.7266L17.875 2.35156C18.2656 1.96094 18.8906 1.96094 19.2812 2.35156L20.6875 3.75781C21.0781 4.14844 21.0781 4.8125 20.6875 5.20312L9.20312 16.6875C8.8125 17.0781 8.14844 17.0781 7.75781 16.6875Z" fill="#599F2A"/>
</svg>
