<svg xmlns="http://www.w3.org/2000/svg" width="32" height="32" viewBox="0 0 32 32" fill="none">
  <path d="M21.3299 10.67L10.6599 32H21.3299C27.2199 32 31.9999 27.22 31.9999 21.33C31.9999 15.44 27.2199 10.66 21.3299 10.66V10.67Z" fill="url(#paint0_linear_903_2046)"/>
  <path d="M21.3299 10.67L10.6599 32H21.3299C27.2199 32 31.9999 27.22 31.9999 21.33C31.9999 15.44 27.2199 10.66 21.3299 10.66V10.67Z" fill="url(#paint1_radial_903_2046)"/>
  <path d="M21.3299 10.67L10.6599 32H21.3299C27.2199 32 31.9999 27.22 31.9999 21.33C31.9999 15.44 27.2199 10.66 21.3299 10.66V10.67Z" fill="url(#paint2_radial_903_2046)"/>
  <path d="M21.33 0H10.66C4.78 0 0 4.78 0 10.67C0 16.56 4.78 21.34 10.67 21.34L21.33 0Z" fill="url(#paint3_linear_903_2046)"/>
  <path d="M21.33 0H10.66C4.78 0 0 4.78 0 10.67C0 16.56 4.78 21.34 10.67 21.34L21.33 0Z" fill="url(#paint4_radial_903_2046)"/>
  <path d="M10.6699 32L21.3299 10.67V0L10.6699 21.33V32Z" fill="#8B66FF"/>
  <path d="M10.6699 32L21.3299 10.67V0L10.6699 21.33V32Z" fill="url(#paint5_linear_903_2046)"/>
  <defs>
    <linearGradient id="paint0_linear_903_2046" x1="17.8599" y1="21.64" x2="28.9099" y2="27.02" gradientUnits="userSpaceOnUse">
      <stop stop-color="#8B66FF"/>
      <stop offset="0.5" stop-color="#BF66FF"/>
      <stop offset="1" stop-color="#E399FA"/>
    </linearGradient>
    <radialGradient id="paint1_radial_903_2046" cx="0" cy="0" r="1" gradientUnits="userSpaceOnUse" gradientTransform="translate(10.5899 31.94) scale(14.88)">
      <stop stop-color="#42148C"/>
      <stop offset="1" stop-color="#8B66FF" stop-opacity="0"/>
    </radialGradient>
    <radialGradient id="paint2_radial_903_2046" cx="0" cy="0" r="1" gradientUnits="userSpaceOnUse" gradientTransform="translate(21.4699 10.65) scale(15.86)">
      <stop stop-color="#FFE1F7" stop-opacity="0.6"/>
      <stop offset="1" stop-color="#8B66FF" stop-opacity="0"/>
    </radialGradient>
    <linearGradient id="paint3_linear_903_2046" x1="4.45" y1="2.9" x2="14.96" y2="11.34" gradientUnits="userSpaceOnUse">
      <stop stop-color="#008AFF"/>
      <stop offset="1" stop-color="#8B66FF"/>
    </linearGradient>
    <radialGradient id="paint4_radial_903_2046" cx="0" cy="0" r="1" gradientUnits="userSpaceOnUse" gradientTransform="translate(21.28 -0.160001) scale(22.02 22.02)">
      <stop stop-color="#A9E8FF"/>
      <stop offset="1" stop-color="#8B66FF" stop-opacity="0"/>
    </radialGradient>
    <linearGradient id="paint5_linear_903_2046" x1="12.8999" y1="21.98" x2="21.0899" y2="6.18" gradientUnits="userSpaceOnUse">
      <stop stop-color="#281661"/>
      <stop offset="1" stop-color="#8B66FF" stop-opacity="0"/>
    </linearGradient>
  </defs>
</svg>