<svg width="191" height="48" viewBox="0 0 191 48" fill="none" xmlns="http://www.w3.org/2000/svg">
<path d="M51.8931 14.8265H39.9863V47.006H51.8931V14.8265Z" fill="#EBEDFA"/>
<path d="M105.877 27.4373V47.0059H93.9703V29.0525C93.9703 26.609 92.8728 25.3872 90.6985 25.3872C88.1929 25.3872 86.9091 27.0024 86.9091 30.15V47.0059H75.0023V29.0525C75.0023 26.609 73.9048 25.3872 71.7305 25.3872C69.2249 25.3872 67.941 27.0024 67.941 30.15V47.0059H56.0342V14.8264H67.941V17.8497C70.0739 15.2199 72.9522 13.9153 76.7003 13.9153C80.4483 13.9153 83.0782 15.2613 84.7348 17.9118C87.054 15.282 90.1394 13.9153 93.991 13.9153C101.446 13.9153 105.898 18.7401 105.898 27.4373H105.877Z" fill="#EBEDFA"/>
<path d="M121.884 0.0206299H109.978V46.9853H121.884V0.0206299Z" fill="#EBEDFA"/>
<path d="M41.539 10.5193C39.1576 8.0137 39.1576 4.20352 41.539 1.82215C44.0446 -0.559208 47.8547 -0.559208 50.2361 1.82215C52.7417 4.20352 52.7417 8.0137 50.2361 10.5193C47.8547 12.9007 44.0446 12.9007 41.539 10.5193Z" fill="#EBEDFA"/>
<path d="M161.746 14.8267V17.7258C159.696 15.2201 156.797 13.9363 153.131 13.9363C148.824 13.9363 145.283 15.5515 142.508 18.7611C139.734 21.9708 138.388 26.0295 138.388 30.9164C138.388 35.8034 139.734 39.8621 142.508 43.0717C145.283 46.2814 148.824 47.8966 153.131 47.8966C156.797 47.8966 159.696 46.6127 161.746 44.1071V47.0062H173.653V14.8267H161.746ZM160.131 35.2236C159.095 36.3832 157.749 36.963 156.01 36.963C154.27 36.963 152.924 36.3832 151.827 35.2236C149.777 32.9044 149.777 28.9078 151.827 26.6093C152.924 25.4497 154.27 24.8698 156.01 24.8698C157.749 24.8698 159.095 25.4497 160.131 26.6093C162.263 28.9285 162.263 32.9251 160.131 35.2236Z" fill="#EBEDFA"/>
<path d="M189.908 14.8265H178.001V47.006H189.908V14.8265Z" fill="#EBEDFA"/>
<path d="M179.555 10.5193C177.173 8.0137 177.173 4.20352 179.555 1.82215C182.06 -0.559208 185.87 -0.559208 188.252 1.82215C190.757 4.20352 190.757 8.0137 188.252 10.5193C185.87 12.9007 182.06 12.9007 179.555 10.5193Z" fill="#EBEDFA"/>
<path d="M126.605 45.2044C124.224 42.6988 124.224 38.8886 126.605 36.5072C129.111 34.1259 132.921 34.1259 135.303 36.5072C137.808 38.8886 137.808 42.6988 135.303 45.2044C132.921 47.5857 129.111 47.5857 126.605 45.2044Z" fill="#EBEDFA"/>
<path d="M0 36.4866L11.2235 29.9845C12.7351 33.8568 15.4892 35.824 19.4858 35.824C22.4469 35.824 23.9379 35.0371 23.9379 33.4633C23.9379 32.6143 23.6066 31.8896 22.3641 31.3719C21.7636 31.1027 21.1838 30.9163 20.7282 30.7921C20.2726 30.6057 19.4858 30.3986 18.3676 30.0673L15.8205 29.3425C6.70923 26.5884 2.11217 21.6601 2.11217 14.5781C2.11217 10.3745 3.62381 6.8956 6.64711 4.1415C9.73253 1.3874 13.7291 0 18.6575 0C26.4642 0 33.0285 3.81018 35.9068 10.6851L25.0147 17.0423C23.7722 13.8326 21.6808 12.1967 18.7196 12.1967C16.4211 12.1967 15.2407 13.2528 15.2407 14.6195C15.2407 15.6135 15.7584 16.3175 16.7524 16.8559C17.8085 17.3736 19.7757 18.0362 22.7161 18.8852C27.1061 20.1898 29.4047 21.1217 32.4901 23.2752C35.5755 25.3667 37.0871 28.7834 37.0871 33.3184C37.0871 42.6989 30.1915 48 19.1752 48C9.21484 48 2.31924 43.5479 0.0207075 36.4659L0 36.4866Z" fill="#EBEDFA"/>
</svg>
