<svg width="160" height="160" viewBox="0 0 20 20" fill="none" xmlns="http://www.w3.org/2000/svg">
<g clip-path="url(#clip0_375_46)">
<path d="M13.3325 6.66754L6.66504 20H13.3325C17.015 20 20 17.015 20 13.3325C20 9.65004 17.015 6.66504 13.3325 6.66504V6.66754Z" fill="url(#paint0_linear_375_46)"/>
<path d="M13.3325 6.66754L6.66504 20H13.3325C17.015 20 20 17.015 20 13.3325C20 9.65004 17.015 6.66504 13.3325 6.66504V6.66754Z" fill="url(#paint1_radial_375_46)"/>
<path d="M13.3325 6.66754L6.66504 20H13.3325C17.015 20 20 17.015 20 13.3325C20 9.65004 17.015 6.66504 13.3325 6.66504V6.66754Z" fill="url(#paint2_radial_375_46)"/>
<path d="M13.3325 0H6.665C2.985 0 0 2.985 0 6.6675C0 10.35 2.985 13.335 6.6675 13.335L13.3325 0Z" fill="url(#paint3_linear_375_46)"/>
<path d="M13.3325 0H6.665C2.985 0 0 2.985 0 6.6675C0 10.35 2.985 13.335 6.6675 13.335L13.3325 0Z" fill="url(#paint4_radial_375_46)"/>
<path d="M6.66797 20L13.333 6.6675V0L6.66797 13.3325V20Z" fill="#8B66FF"/>
<path d="M6.66797 20L13.333 6.6675V0L6.66797 13.3325V20Z" fill="url(#paint5_radial_375_46)"/>
</g>
<defs>
<linearGradient id="paint0_linear_375_46" x1="11.16" y1="13.5225" x2="18.07" y2="16.8875" gradientUnits="userSpaceOnUse">
<stop stop-color="#8B66FF"/>
<stop offset="0.5" stop-color="#BF66FF"/>
<stop offset="1" stop-color="#E399FA"/>
</linearGradient>
<radialGradient id="paint1_radial_375_46" cx="0" cy="0" r="1" gradientUnits="userSpaceOnUse" gradientTransform="translate(6.61754 19.96) scale(9.2975)">
<stop stop-color="#42148C"/>
<stop offset="1" stop-color="#8B66FF" stop-opacity="0"/>
</radialGradient>
<radialGradient id="paint2_radial_375_46" cx="0" cy="0" r="1" gradientUnits="userSpaceOnUse" gradientTransform="translate(13.42 6.65254) scale(9.91)">
<stop stop-color="#FFE1F7" stop-opacity="0.6"/>
<stop offset="1" stop-color="#8B66FF" stop-opacity="0"/>
</radialGradient>
<linearGradient id="paint3_linear_375_46" x1="2.7775" y1="1.8125" x2="9.35" y2="7.0875" gradientUnits="userSpaceOnUse">
<stop stop-color="#008AFF"/>
<stop offset="1" stop-color="#8B66FF"/>
</linearGradient>
<radialGradient id="paint4_radial_375_46" cx="0" cy="0" r="1" gradientUnits="userSpaceOnUse" gradientTransform="translate(13.3025 -0.100001) scale(13.765)">
<stop stop-color="#A9E8FF"/>
<stop offset="1" stop-color="#8B66FF" stop-opacity="0"/>
</radialGradient>
<radialGradient id="paint5_radial_375_46" cx="0" cy="0" r="1" gradientUnits="userSpaceOnUse" gradientTransform="translate(6.56105 13.328) rotate(-63.08) scale(13.1525 8.9437)">
<stop stop-color="#33008F" stop-opacity="0.7"/>
<stop offset="1" stop-color="#8B66FF" stop-opacity="0"/>
</radialGradient>
<clipPath id="clip0_375_46">
<rect width="20" height="20" fill="white"/>
</clipPath>
</defs>
</svg>
