<svg width="88" height="88" viewBox="0 0 88 88" fill="none" xmlns="http://www.w3.org/2000/svg">
<rect width="88" height="88" transform="matrix(0 1 -1 0 88 9.15527e-05)" fill="none" style="mix-blend-mode:multiply"/>
<path d="M44 5.00009C52.6552 5.00009 61.0644 7.87923 67.9034 13.184C74.7423 18.4889 79.6223 25.9179 81.7747 34.3012C83.9272 42.6844 83.2298 51.5455 79.7924 59.4889C76.355 67.4322 70.373 74.0064 62.7884 78.176C55.2038 82.3457 46.4477 83.8739 37.8991 82.5199C29.3505 81.166 21.4951 77.0068 15.5702 70.6974C9.64536 64.3881 5.98761 56.2871 5.17308 47.6703C4.35856 39.0536 6.43353 30.4107 11.0712 23.1029" stroke="#4B8AFF" stroke-width="10"/>
</svg>
