<svg width="88" height="88" viewBox="0 0 88 88" fill="none" xmlns="http://www.w3.org/2000/svg">
<rect width="88" height="88" transform="matrix(0 -1 1 0 0 88.0001)" fill="none" style="mix-blend-mode:multiply"/>
<path d="M44 83.0001C35.3448 83.0001 26.9356 80.121 20.0966 74.8161C13.2577 69.5113 8.37771 62.0823 6.22526 53.699C4.0728 45.3158 4.77019 36.4547 8.20757 28.5113C11.645 20.568 17.627 13.9938 25.2116 9.82414C32.7962 5.65448 41.5523 4.12629 50.1009 5.48025C58.6495 6.83422 66.5049 10.9934 72.4298 17.3028C78.3546 23.6121 82.0124 31.7131 82.8269 40.3299C83.6414 48.9466 81.5665 57.5895 76.9288 64.8973" stroke="#4B8AFF" stroke-width="10"/>
</svg>
