<svg width="88" height="88" viewBox="0 0 88 88" fill="none" xmlns="http://www.w3.org/2000/svg">
<rect width="88" height="88" transform="matrix(-1 0 0 -1 88.0001 88.0001)" fill="none" style="mix-blend-mode:multiply"/>
<path d="M83.0001 44.0001C83.0001 52.6553 80.1209 61.0645 74.8161 67.9035C69.5113 74.7424 62.0822 79.6224 53.699 81.7748C45.3157 83.9273 36.4546 83.2299 28.5113 79.7925C20.568 76.3551 13.9938 70.3731 9.8241 62.7885C5.65444 55.2039 4.12625 46.4478 5.48021 37.8991C6.83418 29.3505 10.9934 21.4952 17.3027 15.5703C23.6121 9.64544 31.7131 5.98769 40.3298 5.17317C48.9466 4.35864 57.5895 6.43362 64.8973 11.0713" stroke="#4B8AFF" stroke-width="10"/>
</svg>
